<?xml version="1.0" encoding="UTF-8"?>
<!DOCTYPE svg PUBLIC "-//W3C//DTD SVG 1.1//EN" "http://www.w3.org/Graphics/SVG/1.1/DTD/svg11.dtd">
<!-- Creator: CorelDRAW -->
<svg xmlns="http://www.w3.org/2000/svg" xml:space="preserve" width="100%" height="100%" style="shape-rendering:geometricPrecision; text-rendering:geometricPrecision; image-rendering:optimizeQuality; fill-rule:evenodd; clip-rule:evenodd"
viewBox="0 0 0.90509 0.66569"
 xmlns:xlink="http://www.w3.org/1999/xlink">
 <defs>
  <linearGradient id="id0" gradientUnits="userSpaceOnUse" x1="13.5999" y1="-51.4586" x2="13.5999" y2="-43.302">
   <stop offset="0" style="stop-color:white"/>
   <stop offset="0.721569" style="stop-color:#1D1D1B"/>
   <stop offset="1" style="stop-color:#1D1D1B"/>
  </linearGradient>
  <linearGradient id="id1" gradientUnits="userSpaceOnUse" x1="6.51533" y1="-29.5483" x2="20.281" y2="-29.5483">
   <stop offset="0" style="stop-color:#914700"/>
   <stop offset="0" style="stop-color:#914700"/>
   <stop offset="0.129412" style="stop-color:#CFA154"/>
   <stop offset="0.560784" style="stop-color:#FBC233"/>
   <stop offset="0.690196" style="stop-color:#F6DE91"/>
   <stop offset="0.921569" style="stop-color:#914700"/>
   <stop offset="1" style="stop-color:#914700"/>
  </linearGradient>
  <linearGradient id="id2" gradientUnits="userSpaceOnUse" x1="-36.5217" y1="-42.8722" x2="-15.5216" y2="-42.8722">
   <stop offset="0" style="stop-color:#914700"/>
   <stop offset="0.129412" style="stop-color:#CFA154"/>
   <stop offset="0.560784" style="stop-color:#FBC233"/>
   <stop offset="0.690196" style="stop-color:#F6DE91"/>
   <stop offset="0.921569" style="stop-color:#914700"/>
   <stop offset="1" style="stop-color:#914700"/>
  </linearGradient>
  <linearGradient id="id3" gradientUnits="userSpaceOnUse" xlink:href="#id0" x1="13.3982" y1="-17.5566" x2="13.3982" y2="-29.2288">
  </linearGradient>
  <linearGradient id="id4" gradientUnits="userSpaceOnUse" xlink:href="#id0" x1="-21.7764" y1="-55.1019" x2="-21.7764" y2="-65.2305">
  </linearGradient>
  <linearGradient id="id5" gradientUnits="userSpaceOnUse" xlink:href="#id0" x1="-26.0218" y1="-50.8125" x2="-26.0218" y2="-33.0062">
  </linearGradient>
 </defs>
<symbol id="Fm5-27-0" viewBox="11.4458 -36.1195 3.98457 2.38839">
 <path class="fil0" d="M12.2708 -33.7719l-0.82497 -2.3083 0.50573 0 0.58366 1.70852 0.56539 -1.70852 0.49444 0 -0.82658 2.3083 -0.49767 0zm1.28286 -0.7508l0.4536 -0.04461c0.02688,0.15263 0.08223,0.26442 0.16607,0.3359 0.08331,0.07094 0.19563,0.10695 0.33752,0.10695 0.14994,0 0.26334,-0.03171 0.33912,-0.09566 0.07632,-0.06342 0.11447,-0.13759 0.11447,-0.22251 0,-0.05481 -0.01612,-0.10103 -0.04837,-0.13919 -0.0317,-0.0387 -0.0876,-0.07202 -0.16768,-0.09997 -0.05428,-0.01934 -0.17896,-0.05267 -0.37298,-0.10103 -0.24991,-0.06181 -0.42511,-0.13813 -0.52562,-0.22842 -0.14188,-0.12683 -0.21282,-0.28162 -0.21282,-0.46434 0,-0.1177 0.03332,-0.22734 0.09996,-0.32999 0.06664,-0.10212 0.16285,-0.18005 0.28807,-0.23379 0.12576,-0.05321 0.27678,-0.08008 0.45414,-0.08008 0.29021,0 0.50788,0.06342 0.6546,0.19026 0.14618,0.12737 0.22304,0.29666 0.23056,0.50895l-0.46596 0.02042c-0.01989,-0.11877 -0.06288,-0.20422 -0.12845,-0.25582 -0.06557,-0.05213 -0.16392,-0.07793 -0.29505,-0.07793 -0.13544,0 -0.24185,0.02741 -0.31817,0.08331 -0.04944,0.03547 -0.07416,0.0833 -0.07416,0.14296 0,0.05482 0.02311,0.10157 0.06933,0.14027 0.05858,0.04944 0.20154,0.10104 0.42833,0.15424 0.2268,0.05375 0.39449,0.1091 0.50305,0.16607 0.10856,0.05751 0.19348,0.13544 0.25528,0.23486 0.06127,0.09943 0.0919,0.22197 0.0919,0.36761 0,0.13221 -0.03654,0.25636 -0.11017,0.37137 -0.07363,0.11555 -0.17736,0.20154 -0.31172,0.25744 -0.13436,0.05643 -0.30204,0.08438 -0.5025,0.08438 -0.29183,0 -0.51594,-0.06718 -0.67234,-0.20208 -0.15639,-0.1349 -0.24991,-0.3316 -0.28001,-0.58957z"/>
</symbol>
<symbol id="Fm3-23-0" viewBox="6.51537 -29.2288 13.7656 11.6721">
 <polygon class="fil1" points="6.51537,-17.5566 20.281,-17.5566 20.281,-29.2288 6.51537,-29.2288 "/>
</symbol>
<symbol id="Fm4-25-0" viewBox="6.51533 -29.8601 13.7657 0.62368">
 <path class="fil2" d="M6.51533 -29.2364l13.7657 0 0 -0.06551c0,-0.30826 -0.24991,-0.55817 -0.5582,-0.55817l-12.6493 0c-0.30829,0 -0.5582,0.24991 -0.5582,0.55817l0 0.06551z"/>
</symbol>
<symbol id="Fm1-19-0" viewBox="5.94048 -13.6344 15.1126 4.17885">
 <path class="fil0" d="M8.64708 -11.0323l0.78371 0.24818c-0.12036,0.43757 -0.32002,0.76225 -0.59991,0.97497 -0.27897,0.21179 -0.63444,0.31815 -1.06454,0.31815 -0.53181,0 -0.96938,-0.18193 -1.31178,-0.54487 -0.34241,-0.36386 -0.51408,-0.86115 -0.51408,-1.49091 0,-0.66709 0.1726,-1.1849 0.51687,-1.55436 0.34428,-0.36853 0.79678,-0.55326 1.35844,-0.55326 0.48981,0 0.8882,0.14461 1.19422,0.43477 0.18287,0.17074 0.31908,0.41705 0.41052,0.73799l-0.80144 0.19127c-0.04665,-0.20806 -0.14555,-0.37227 -0.29669,-0.49262 -0.15021,-0.12036 -0.33308,-0.18007 -0.54767,-0.18007 -0.29669,0 -0.53833,0.10636 -0.72306,0.32002 -0.18473,0.21272 -0.2771,0.55792 -0.2771,1.03561 0,0.50662 0.0905,0.86768 0.27337,1.08227 0.18193,0.21552 0.41891,0.32281 0.71,0.32281 0.21552,0 0.40025,-0.0681 0.55513,-0.20525 0.15487,-0.13622 0.2659,-0.35174 0.33401,-0.6447zm5.02321 0.9843l-0.46463 0.59245c-0.22765,-0.11102 -0.44597,-0.26403 -0.65589,-0.45903 -0.16234,0.14555 -0.33401,0.25377 -0.51688,0.32282 -0.18193,0.06904 -0.39838,0.10356 -0.65029,0.10356 -0.49915,0 -0.87421,-0.13995 -1.12612,-0.42078 -0.19499,-0.21645 -0.29202,-0.46649 -0.29202,-0.74919 0,-0.25657 0.0765,-0.48795 0.22951,-0.69228 0.15301,-0.20525 0.3816,-0.38346 0.68575,-0.5346 -0.13622,-0.16234 -0.23978,-0.31722 -0.30882,-0.4637 -0.06904,-0.14647 -0.10356,-0.28549 -0.10356,-0.41704 0,-0.24164 0.09703,-0.44784 0.29109,-0.61577 0.19406,-0.16887 0.47023,-0.25284 0.82943,-0.25284 0.34614,0 0.6167,0.08863 0.8117,0.26497 0.19499,0.17633 0.29296,0.39278 0.29296,0.64749 0,0.16234 -0.04852,0.31628 -0.14555,0.46183 -0.0961,0.14648 -0.29109,0.31068 -0.58498,0.49542l0.55792 0.73519c0.06531,-0.11662 0.12223,-0.2687 0.16981,-0.45623l0.69414 0.15767c-0.06904,0.24631 -0.12968,0.42638 -0.181,0.5402 -0.05038,0.11383 -0.10543,0.20899 -0.16327,0.2855 0.0849,0.08024 0.19593,0.16794 0.33214,0.26403 0.13529,0.0961 0.23512,0.15861 0.29856,0.19033zm-2.09083 -2.17852l0.20806 -0.15861c0.15301,-0.11849 0.22951,-0.23605 0.22951,-0.35267 0,-0.0989 -0.03732,-0.18287 -0.11102,-0.25191 -0.07371,-0.06904 -0.17354,-0.10356 -0.29949,-0.10356 -0.12129,0 -0.21739,0.03079 -0.28643,0.09143 -0.06904,0.06065 -0.10449,0.13155 -0.10449,0.21179 0,0.09517 0.05877,0.20992 0.1754,0.34427l0.18846 0.21926zm-0.30042 0.83315c-0.17727,0.08957 -0.30882,0.19687 -0.39652,0.32282 -0.0877,0.12595 -0.13155,0.25377 -0.13155,0.38532 0,0.16608 0.05504,0.30136 0.16327,0.40585 0.10823,0.1045 0.25377,0.15675 0.43571,0.15675 0.12035,0 0.23604,-0.02333 0.34707,-0.07091 0.11102,-0.04665 0.23231,-0.12502 0.36386,-0.23512l-0.78184 -0.96471zm2.88667 -2.17292l1.47878 0c0.33308,0 0.58685,0.02519 0.76225,0.0765 0.23512,0.06904 0.43664,0.1922 0.60365,0.36946 0.16794,0.17634 0.29576,0.39279 0.38346,0.64843 0.08676,0.25657 0.13061,0.57192 0.13061,0.94792 0,0.32934 -0.04105,0.6139 -0.12315,0.85275 -0.09983,0.29109 -0.24258,0.52714 -0.42917,0.7072 -0.13995,0.13715 -0.32935,0.24351 -0.56819,0.32002 -0.1782,0.05691 -0.41705,0.0849 -0.71654,0.0849l-1.5217 0 0 -4.00718zm0.8089 0.67828l0 2.65342 0.60364 0c0.22578,0 0.38906,-0.01213 0.48982,-0.03826 0.13062,-0.03265 0.23978,-0.0877 0.32655,-0.16607 0.08676,-0.07837 0.15674,-0.20805 0.21178,-0.38719 0.05412,-0.17913 0.08211,-0.42451 0.08211,-0.73426 0,-0.30975 -0.02799,-0.54673 -0.08211,-0.7128 -0.05504,-0.16607 -0.13155,-0.29576 -0.22951,-0.38813 -0.0989,-0.09329 -0.22392,-0.15581 -0.37506,-0.18846 -0.11289,-0.02612 -0.33401,-0.03825 -0.66429,-0.03825l-0.36293 0zm3.25799 3.3289l0 -3.97453 0.80891 0 0 3.29905 2.01152 0 0 0.67548 -2.82043 0z"/>
</symbol>
<symbol id="Símbolo3" viewBox="-36.5217 -43.3479 21 0.95145">
 <path class="fil3" d="M-36.5217 -42.3964l21 0 0 -0.09994c0,-0.47026 -0.38125,-0.85151 -0.85155,-0.85151l-19.2969 0c-0.47031,0 -0.85155,0.38125 -0.85155,0.85151l0 0.09994z"/>
</symbol>
<symbol id="Símbolo1" viewBox="-89.0306 -207.876 21 12.5876">
 <path class="fil0" d="M-84.6828 -195.504l-4.34786 -12.1655 2.66536 0 3.07608 9.00446 2.97979 -9.00446 2.60586 0 -4.35635 12.1655 -2.62289 0 1e-005 0zm6.7611 -3.95696l2.39062 -0.23511c0.14167,0.80441 0.43338,1.39358 0.87524,1.7703 0.43907,0.37388 1.03103,0.56366 1.77884,0.56366 0.79023,0 1.38789,-0.16712 1.78727,-0.50416 0.40223,-0.33424 0.60329,-0.72514 0.60329,-1.1727 0,-0.28887 -0.08496,-0.53246 -0.25493,-0.73358 -0.16707,-0.20396 -0.46168,-0.37957 -0.88373,-0.52687 -0.28607,-0.10193 -0.94318,-0.27759 -1.96573,-0.53246 -1.31711,-0.32576 -2.24047,-0.72799 -2.77019,-1.20385 -0.74775,-0.66844 -1.12163,-1.48423 -1.12163,-2.44723 0,-0.62032 0.17561,-1.19816 0.52682,-1.73916 0.35121,-0.53821 0.85827,-0.94892 1.51822,-1.23215 0.6628,-0.28043 1.45872,-0.42205 2.39347,-0.42205 1.5295,0 2.6767,0.33424 3.44996,1.00273 0.77042,0.67128 1.17549,1.5635 1.21513,2.68233l-2.45576 0.10762c-0.10483,-0.62596 -0.3314,-1.07631 -0.67697,-1.34826 -0.34558,-0.27474 -0.86391,-0.41072 -1.55501,-0.41072 -0.71381,0 -1.27463,0.14446 -1.67686,0.43907 -0.26057,0.18694 -0.39085,0.43902 -0.39085,0.75345 0,0.28892 0.1218,0.53531 0.36539,0.73927 0.30874,0.26057 1.06218,0.53251 2.25744,0.8129 1.19531,0.28328 2.07909,0.57499 2.65124,0.87524 0.57215,0.3031 1.0197,0.71381 1.34541,1.23779 0.32291,0.52403 0.48434,1.16986 0.48434,1.93743 0,0.69679 -0.19258,1.3511 -0.58063,1.95724 -0.38805,0.60899 -0.93475,1.06218 -1.64287,1.35679 -0.70812,0.2974 -1.59185,0.44471 -2.64834,0.44471 -1.53804,0 -2.71917,-0.35406 -3.54345,-1.06503 -0.82423,-0.71097 -1.31711,-1.74764 -1.47575,-3.10723l2e-005 3e-005z"/>
</symbol>
<symbol id="Fm2-21-0" viewBox="7.63015 -9.31241 11.7696 4.09489">
 <path class="fil0" d="M9.38977 -5.28843l-0.76785 0 0 -2.89506c-0.28083,0.2631 -0.61111,0.45716 -0.99177,0.58218l0 -0.69694c0.19966,-0.06531 0.41798,-0.1894 0.65309,-0.37226 0.23511,-0.1838 0.39652,-0.39746 0.48329,-0.6419l0.62324 0 0 4.02398zm1.16436 -0.92646l0.74359 -0.0821c0.01866,0.15114 0.06625,0.2631 0.14275,0.33588 0.07651,0.07277 0.17727,0.10916 0.30322,0.10916 0.15861,0 0.29296,-0.07278 0.40399,-0.21832 0.11196,-0.14555 0.18286,-0.44784 0.21365,-0.9078 -0.19313,0.22485 -0.43477,0.33681 -0.724,0.33681 -0.31535,0 -0.58778,-0.12222 -0.81636,-0.3648 -0.22858,-0.24351 -0.34334,-0.55979 -0.34334,-0.94978 0,-0.40679 0.12129,-0.73427 0.36293,-0.98337 0.24071,-0.24818 0.5486,-0.3732 0.92179,-0.3732 0.40679,0 0.73986,0.15768 1.0011,0.47209 0.2603,0.31442 0.39092,0.8313 0.39092,1.55063 0,0.73333 -0.13622,1.2614 -0.40771,1.58608 -0.2715,0.32375 -0.62511,0.48609 -1.06081,0.48609 -0.31349,0 -0.56633,-0.08304 -0.75945,-0.25004 -0.19313,-0.16701 -0.31722,-0.41612 -0.37227,-0.74733zm1.73909 -1.67844c0,-0.24818 -0.05691,-0.44037 -0.17073,-0.57659 -0.11383,-0.13715 -0.24631,-0.20526 -0.39559,-0.20526 -0.14182,0 -0.2603,0.05598 -0.3536,0.16794 -0.09424,0.11196 -0.14088,0.29576 -0.14088,0.5514 0,0.25843 0.05131,0.44876 0.15301,0.56912 0.10169,0.12129 0.22951,0.18193 0.38252,0.18193 0.14741,0 0.27243,-0.05784 0.3732,-0.17447 0.10169,-0.11662 0.15207,-0.28829 0.15207,-0.51407zm3.95214 1.89116l0 0.71374 -2.6926 0c0.02985,-0.26963 0.11662,-0.52527 0.2631,-0.76692 0.14554,-0.24164 0.43384,-0.56166 0.86301,-0.96097 0.34707,-0.32189 0.55886,-0.54114 0.63723,-0.6559 0.10543,-0.1586 0.15861,-0.31535 0.15861,-0.47022 0,-0.17074 -0.04572,-0.30229 -0.13808,-0.39466 -0.09237,-0.09236 -0.21925,-0.13808 -0.38159,-0.13808 -0.16048,0 -0.28736,0.04852 -0.38253,0.14462 -0.09423,0.09703 -0.14928,0.2575 -0.1642,0.48142l-0.76505 -0.07651c0.04571,-0.42264 0.18846,-0.72586 0.42917,-0.91059 0.24071,-0.1838 0.54113,-0.27617 0.9022,-0.27617 0.39559,0 0.70627,0.1073 0.93205,0.32002 0.22579,0.21365 0.33868,0.47862 0.33868,0.79584 0,0.18006 -0.03266,0.35173 -0.09703,0.515 -0.06438,0.16328 -0.16701,0.33401 -0.30695,0.51222 -0.0933,0.11849 -0.26124,0.28922 -0.50289,0.51127 -0.24257,0.22205 -0.39652,0.3704 -0.46089,0.44317 -0.06438,0.07278 -0.11756,0.14368 -0.15768,0.21272l1.52544 0zm0.49262 -0.34987l0.74265 -0.08956c0.02426,0.18939 0.0877,0.33401 0.1922,0.43384 0.10356,0.10076 0.22951,0.15114 0.37693,0.15114 0.1586,0 0.29202,-0.06064 0.40025,-0.181 0.10823,-0.12036 0.16234,-0.28176 0.16234,-0.48609 0,-0.19313 -0.05132,-0.34614 -0.15581,-0.45903 -0.10356,-0.11382 -0.23045,-0.1698 -0.37973,-0.1698 -0.09796,0 -0.21552,0.01866 -0.35267,0.05691l0.08491 -0.6251c0.20805,0.00466 0.36666,-0.04012 0.47582,-0.13528 0.10916,-0.0961 0.16421,-0.22299 0.16421,-0.3816 0,-0.13528 -0.04012,-0.24257 -0.12036,-0.32281 -0.08024,-0.08024 -0.18753,-0.12036 -0.32001,-0.12036 -0.13156,0 -0.24351,0.04572 -0.33588,0.13715 -0.0933,0.0905 -0.15021,0.22392 -0.1698,0.39839l-0.70814 -0.11942c0.04945,-0.24258 0.12315,-0.43664 0.22298,-0.58125 0.0989,-0.14462 0.23791,-0.25844 0.41518,-0.34148 0.1782,-0.08303 0.37693,-0.12502 0.59711,-0.12502 0.37786,0 0.68015,0.12036 0.9078,0.36107 0.18753,0.19686 0.28176,0.41891 0.28176,0.66708 0,0.35174 -0.19219,0.63257 -0.57658,0.84156 0.22951,0.04945 0.41238,0.15954 0.55046,0.33121 0.13715,0.17074 0.20619,0.37786 0.20619,0.62044 0,0.35173 -0.12875,0.65122 -0.38532,0.8994 -0.25657,0.24724 -0.57659,0.37133 -0.95912,0.37133 -0.36293,0 -0.66335,-0.1045 -0.90219,-0.31255 -0.23885,-0.20899 -0.37693,-0.48142 -0.41518,-0.81917z"/>
</symbol>
<symbol id="Fm0-17-0" viewBox="5.14426 -51.4586 16.9113 8.15661">
 <polygon class="fil4" points="22.0556,-43.302 22.0556,-51.4586 5.14426,-51.4586 5.14426,-43.302 "/>
</symbol>
<symbol id="Símbolo6" viewBox="-32.2765 -65.2306 21 10.1287">
 <polygon class="fil5" points="-11.2764,-55.1019 -11.2764,-65.2306 -32.2765,-65.2306 -32.2765,-55.1019 "/>
</symbol>
<symbol id="Símbolo2" viewBox="-36.5219 -50.8125 21.0001 17.8063">
 <polygon class="fil6" points="-36.5219,-33.0062 -15.5218,-33.0062 -15.5218,-50.8125 -36.5219,-50.8125 "/>
</symbol>
<symbol id="Símbolo5" viewBox="-39.9557 -18.549 21.0001 7.30636">
 <path class="fil0" d="M-36.8161 -11.3691l-1.37004 0 0 -5.16553c-0.50107,0.46944 -1.09038,0.81569 -1.76957,1.03876l0 -1.24352c0.35624,-0.11653 0.74578,-0.33794 1.16528,-0.66421 0.4195,-0.32795 0.70749,-0.70917 0.86231,-1.14532l1.11202 0 0 7.17982zm2.07752 -1.65305l1.32676 -0.14649c0.03329,0.26967 0.11821,0.46944 0.2547,0.5993 0.13651,0.12984 0.3163,0.19477 0.54102,0.19477 0.283,0 0.52272,-0.12986 0.72082,-0.38954 0.19977,-0.2597 0.32627,-0.79906 0.38121,-1.61975 -0.34459,0.40119 -0.77574,0.60096 -1.2918,0.60096 -0.56267,0 -1.04875,-0.21807 -1.4566,-0.6509 -0.40785,-0.43448 -0.61261,-0.99881 -0.61261,-1.69465 0,-0.72582 0.21641,-1.31013 0.64756,-1.75459 0.42949,-0.44282 0.97884,-0.66588 1.64471,-0.66588 0.72582,0 1.3201,0.28134 1.78622,0.84233 0.46444,0.56101 0.6975,1.48325 0.6975,2.76672 0,1.30845 -0.24305,2.25066 -0.72746,2.82998 -0.48443,0.57765 -1.11536,0.86731 -1.89276,0.86731 -0.55935,0 -1.01048,-0.14816 -1.35505,-0.44614 -0.34459,-0.29799 -0.566,-0.74247 -0.66423,-1.33343l1e-005 0zm3.10298 -2.99477c0,-0.44282 -0.10154,-0.78573 -0.30463,-1.02879 -0.2031,-0.24471 -0.43948,-0.36624 -0.70583,-0.36624 -0.25304,0 -0.46444,0.09988 -0.63091,0.29965 -0.16815,0.19977 -0.25137,0.52771 -0.25137,0.98384 0,0.46111 0.09155,0.8007 0.27301,1.01546 0.18144,0.21641 0.4095,0.32461 0.68251,0.32461 0.26302,0 0.48609,-0.1032 0.66588,-0.3113 0.18144,-0.20808 0.27133,-0.51438 0.27133,-0.91723l1e-005 0zm7.05164 3.37432l0 1.2735 -4.80429 0c0.05326,-0.48109 0.20808,-0.93722 0.46944,-1.36838 0.25968,-0.43115 0.77408,-1.00215 1.53983,-1.71462 0.61926,-0.57433 0.99715,-0.96553 1.13698,-1.17029 0.18811,-0.28298 0.283,-0.56267 0.283,-0.83899 0,-0.30464 -0.08158,-0.53936 -0.24637,-0.70418 -0.16481,-0.16479 -0.3912,-0.24637 -0.68085,-0.24637 -0.28634,0 -0.51272,0.08657 -0.68253,0.25804 -0.16813,0.17313 -0.26635,0.45945 -0.29298,0.85898l-1.36505 -0.13651c0.08156,-0.7541 0.33626,-1.29512 0.76575,-1.62473 0.42949,-0.32795 0.96552,-0.49276 1.60976,-0.49276 0.70583,0 1.26017,0.19145 1.66302,0.571 0.40287,0.38121 0.60429,0.85398 0.60429,1.41998 0,0.32127 -0.05827,0.62758 -0.17313,0.91889 -0.11487,0.29133 -0.29799,0.59596 -0.54768,0.91393 -0.16647,0.21142 -0.46612,0.51604 -0.89729,0.91224 -0.43281,0.39619 -0.70749,0.66089 -0.82235,0.79073 -0.11487,0.12986 -0.20976,0.25636 -0.28134,0.37955l2.72178 0 1e-005 -1e-005zm0.87896 -0.62426l1.32508 -0.1598c0.04329,0.33792 0.15648,0.59596 0.34293,0.77408 0.18478,0.17978 0.4095,0.26967 0.67254,0.26967 0.28298,0 0.52104,-0.1082 0.71415,-0.32295 0.19311,-0.21475 0.28966,-0.50273 0.28966,-0.86731 0,-0.34459 -0.09157,-0.6176 -0.27801,-0.81903 -0.18478,-0.20308 -0.41118,-0.30297 -0.67754,-0.30297 -0.17479,0 -0.38454,0.03329 -0.62925,0.10154l0.1515 -1.11534c0.37121,0.00831 0.65422,-0.07158 0.84899,-0.24137 0.19477,-0.17147 0.29299,-0.39787 0.29299,-0.68087 0,-0.24137 -0.07158,-0.43281 -0.21475,-0.57598 -0.14317,-0.14317 -0.3346,-0.21475 -0.57098,-0.21475 -0.23474,0 -0.43448,0.08158 -0.5993,0.24471 -0.16647,0.16148 -0.26801,0.39953 -0.30297,0.71083l-1.2635 -0.21308c0.08823,-0.43283 0.21973,-0.77908 0.39785,-1.0371 0.17646,-0.25804 0.42449,-0.46112 0.74079,-0.60929 0.31795,-0.14815 0.67254,-0.22307 1.0654,-0.22307 0.6742,0 1.21356,0.21475 1.61975,0.64424 0.3346,0.35125 0.50273,0.74744 0.50273,1.19024 0,0.62759 -0.34292,1.12867 -1.02877,1.50156 0.4095,0.08823 0.73579,0.28466 0.98216,0.59096 0.24471,0.30464 0.3679,0.6742 0.3679,1.10702 0,0.62758 -0.22972,1.16194 -0.68751,1.60476 -0.45779,0.44114 -1.02879,0.66255 -1.71132,0.66255 -0.64756,0 -1.18359,-0.18645 -1.60974,-0.55767 -0.42617,-0.37289 -0.67254,-0.85898 -0.74079,-1.46161l1e-005 3e-005z"/>
</symbol>
<symbol id="Símbolo4" viewBox="-34.4706 -18.6641 20.9999 5.80679">
 <path class="fil0" d="M-30.7096 -15.0484l1.08902 0.34486c-0.16725,0.60803 -0.44469,1.0592 -0.83362,1.35479 -0.38765,0.2943 -0.8816,0.44209 -1.47925,0.44209 -0.73899,0 -1.34702,-0.2528 -1.82281,-0.75713 -0.4758,-0.50561 -0.71435,-1.19663 -0.71435,-2.07172 0,-0.92697 0.23984,-1.6465 0.71823,-2.15989 0.4784,-0.5121 1.10718,-0.76879 1.88765,-0.76879 0.68062,0 1.23422,0.20095 1.65945,0.60414 0.25411,0.23726 0.44338,0.57952 0.57045,1.02549l-1.11366 0.26578c-0.06482,-0.28911 -0.20225,-0.51729 -0.41227,-0.68453 -0.20873,-0.16725 -0.46284,-0.25022 -0.76103,-0.25022 -0.41227,0 -0.74805,0.14779 -1.00474,0.44469 -0.2567,0.29559 -0.38505,0.77527 -0.38505,1.43905 0,0.70398 0.12576,1.2057 0.37987,1.50389 0.2528,0.29948 0.5821,0.44857 0.98659,0.44857 0.29948,0 0.55617,-0.09463 0.77139,-0.28521 0.2152,-0.18929 0.36949,-0.48877 0.46413,-0.89586zm6.98009 1.36775l-0.64564 0.82325c-0.31634,-0.15427 -0.61971,-0.36689 -0.9114,-0.63785 -0.22558,0.20225 -0.46413,0.35263 -0.71824,0.44858 -0.2528,0.09594 -0.55358,0.1439 -0.90362,0.1439 -0.6936,0 -1.21478,-0.19447 -1.56482,-0.5847 -0.27095,-0.30077 -0.40578,-0.64822 -0.40578,-1.04105 0,-0.35652 0.1063,-0.67804 0.31892,-0.96197 0.21262,-0.28521 0.53026,-0.53284 0.9529,-0.74286 -0.18929,-0.22558 -0.33319,-0.4408 -0.42913,-0.64434 -0.09594,-0.20353 -0.1439,-0.39671 -0.1439,-0.57951 0,-0.33578 0.13483,-0.6223 0.40449,-0.85565 0.26966,-0.23466 0.65342,-0.35134 1.15255,-0.35134 0.48099,0 0.85695,0.12316 1.12791,0.36819 0.27095,0.24502 0.40709,0.54579 0.40709,0.89973 0,0.22558 -0.06742,0.43949 -0.20225,0.64174 -0.13354,0.20354 -0.40449,0.43171 -0.81287,0.68842l0.77527 1.0216c0.09075,-0.16205 0.16985,-0.37338 0.23596,-0.63396l0.96456 0.21909c-0.09594,0.34226 -0.1802,0.59248 -0.25151,0.75065 -0.07001,0.15817 -0.1465,0.29041 -0.22687,0.39672 0.11797,0.1115 0.27226,0.23336 0.46153,0.36689 0.18799,0.13354 0.32672,0.2204 0.41487,0.26448l-2e-005 -1e-005zm-2.90535 -3.0272l0.28911 -0.2204c0.21262,-0.16465 0.31892,-0.32801 0.31892,-0.49006 0,-0.13743 -0.05186,-0.25411 -0.15427,-0.35005 -0.10243,-0.09594 -0.24115,-0.1439 -0.41616,-0.1439 -0.16854,0 -0.30208,0.04278 -0.39801,0.12705 -0.09594,0.08428 -0.1452,0.1828 -0.1452,0.2943 0,0.13225 0.08166,0.2917 0.24373,0.47839l0.26188 0.30468 0 -1e-005zm-0.41745 1.15772c-0.24633,0.12446 -0.42913,0.27356 -0.55099,0.44858 -0.12187,0.17502 -0.1828,0.35263 -0.1828,0.53543 0,0.23078 0.07648,0.41876 0.22687,0.56396 0.15039,0.14521 0.35263,0.21781 0.60545,0.21781 0.16723,0 0.32799,-0.03242 0.48228,-0.09853 0.15427,-0.06482 0.32281,-0.17372 0.50561,-0.32672l-1.08642 -1.34053zm4.01122 -3.01942l2.05487 0c0.46284,0 0.81547,0.035 1.0592,0.1063 0.32672,0.09594 0.60674,0.26708 0.83881,0.51339 0.23336,0.24504 0.41098,0.54581 0.53284,0.90104 0.12056,0.35652 0.18149,0.79472 0.18149,1.3172 0,0.45764 -0.05704,0.85306 -0.17113,1.18495 -0.13872,0.40449 -0.33708,0.7325 -0.59636,0.9827 -0.19447,0.19058 -0.45765,0.33837 -0.78954,0.44469 -0.24762,0.07908 -0.57952,0.11797 -0.99568,0.11797l-2.11451 0 0 -5.56825 1e-005 1e-005zm1.12403 0.94251l0 3.68711 0.8388 0c0.31374,0 0.54063,-0.01686 0.68064,-0.05316 0.18151,-0.04537 0.33319,-0.12187 0.45376,-0.23077 0.12056,-0.1089 0.2178,-0.2891 0.29428,-0.53803 0.0752,-0.24891 0.1141,-0.58989 0.1141,-1.0203 0,-0.43042 -0.03889,-0.75972 -0.1141,-0.99048 -0.07648,-0.23077 -0.1828,-0.41098 -0.31892,-0.53933 -0.13743,-0.12963 -0.31115,-0.21651 -0.52117,-0.26188 -0.15687,-0.0363 -0.46413,-0.05315 -0.92308,-0.05315l-0.50432 0 1e-005 -1e-005zm4.5272 4.62574l0 -5.52288 1.12404 0 0 4.58426 2.79515 0 0 0.93863 -3.91918 0 -1e-005 -1e-005z"/>
</symbol>
 <g id="Capa_x0020_1">
  <metadata id="CorelCorpID_0Corel-Layer"/>
  <path class="fil7" d="M0.6629 0.18136c-0.04956,0 -0.0957,0.015 -0.13412,0.04068 0.01436,0.0122 0.02737,0.02593 0.03884,0.04092 0.0279,-0.01658 0.06046,-0.02614 0.09528,-0.02614 0.10312,0 0.18673,0.08361 0.18673,0.18672 0,0.10312 -0.08361,0.18669 -0.18673,0.18669 -0.03482,0 -0.06738,-0.00952 -0.09528,-0.02614 -0.01147,0.015 -0.02448,0.02872 -0.03884,0.04096 0.03842,0.02565 0.08456,0.04064 0.13412,0.04064 0.13353,0 0.24219,-0.10862 0.24219,-0.24215 0,-0.13352 -0.10866,-0.24218 -0.24219,-0.24218zm-0.30769 0.12319c-0.0007,0.00265 -0.00296,0.0036 -0.00557,0.00293 -0.00293,-0.00074 -0.00283,-0.00526 -0.00283,-0.00526 0,0 4e-005,0 4e-005,0 -4e-005,-0.00042 -4e-005,-0.00067 -4e-005,-0.00067 0.00247,-0.00338 0.00741,-0.00215 0.00741,-0.00215 0,0 0.00216,0.00103 0.00099,0.00515zm-0.02642 0.00734c-0.0011,-0.00109 -0.003,-0.00081 -0.003,-0.00081 0,0 0.00145,-0.00138 0.00286,-0.00155 0.00141,-0.00018 0.00285,0.0007 0.00285,0.00194 0,0.0012 -0.00162,0.00151 -0.00271,0.00042zm0.13543 0.05105c-0.00667,-0.00092 -0.01231,-0.00092 -0.01951,-0.00092 -0.00275,0 -0.00896,-3e-005 -0.00892,-0.00049 0.00165,0.00268 0.00356,0.00726 0.00765,0.00963 0.00018,0.0001 0.00035,0.00021 0.00057,0.00031 7e-005,4e-005 0.00014,8e-005 0.00021,0.00011 7e-005,7e-005 0.00017,7e-005 0.00028,0.00011 0.00279,0.00137 0.006,0.0018 0.00963,0.00222 0.00226,0.00028 0.00392,0.0006 0.0043,0.00155 0.00025,0.00074 -0.0001,0.00184 -0.00098,0.00367 -0.00261,0.00536 -0.0012,0.01337 0.00328,0.01662 0.00056,-0.00357 0.00081,-0.00681 0.00158,-0.00992 0.00152,-0.00596 0.00819,-0.00899 0.0126,-0.00557 0.0054,0.0042 0.00504,0.00836 0.00402,0.01531 -0.00173,0.01221 -0.01341,0.02127 -0.02579,0.0224 -0.01337,0.0012 -0.02159,-3e-005 -0.03432,-0.00543 -0.00395,-0.00166 -0.01002,-0.00395 -0.01545,-0.003 -0.00318,0.00056 -0.00667,0.00166 -0.00949,0.00466 -0.00283,0.00299 -0.003,0.00702 -0.00254,0.01083 0.00098,0.00808 0.00804,0.01682 0.01097,0.0194 0.00349,0.00307 0.00744,0.00681 0.00878,0.01143 0.00085,0.00289 -0.00042,0.00737 -0.00296,0.00984 -0.00349,-0.00561 -0.00787,-0.00966 -0.00787,-0.00966 -0.00511,-0.00473 -0.00787,-0.00745 -0.01284,-0.01122 -0.00759,-0.00575 -0.01228,-0.00981 -0.01104,-0.01923 0.00049,-0.00374 0.00056,-0.00751 0.0006,-0.01132l0 0c0,-0.00029 3e-005,-0.00141 3e-005,-0.00166 0,-0.00039 0,-0.00071 0,-0.00102 0,-0.00198 4e-005,-0.00396 0.00011,-0.00593 3e-005,-0.00021 7e-005,-0.00042 0.00014,-0.00064 0,0 3e-005,-3e-005 3e-005,-3e-005 8e-005,-0.00021 0.00015,-0.00039 0.00025,-0.00057 4e-005,-3e-005 4e-005,-7e-005 7e-005,-0.0001 0.00025,-0.00039 0.00053,-0.00074 0.00081,-0.00078 0.00325,-0.00067 0.01115,0.01115 0.01115,0.01115 0.00346,-0.00134 0.00452,-0.01693 0.00427,-0.01916 -0.00042,-0.00412 -0.00159,-0.01474 -0.00102,-0.01273 0.00158,0.00575 0.003,0.00762 0.00913,0.01058 0.00092,0.00046 0.00674,0.00057 0.00702,-0.00095 0,0 -0.00381,-0.00296 -0.00755,-0.01048 -0.00405,-0.00811 -0.00352,-0.01115 -0.00479,-0.01771 -0.00025,-0.00141 -0.00148,-0.0158 -0.00046,-0.01577 0.00533,0.00014 0.01139,0.00981 0.01139,0.00981 0.00166,-0.00772 -0.00233,-0.01605 -0.00455,-0.02155 -0.00222,-0.00551 -0.0116,-0.01284 -0.0116,-0.01284 0.00613,-0.00106 0.01368,0.00433 0.01368,0.00433 -0.00081,-0.00363 -0.00222,-0.00589 -0.00257,-0.00705 -0.00124,-0.00416 -0.00328,-0.00635 -0.0055,-0.01034 -0.00082,-0.00141 -0.00332,-0.0055 -0.00791,-0.01005 -0.00109,-0.00106 -0.00218,-0.00201 -0.00324,-0.00289 7e-005,-0.00011 0.00017,-0.00018 0.00024,-0.00036 0.00251,-0.00568 0.00505,-0.01132 0.00755,-0.017 0.00011,-0.00025 0.00152,-0.00349 0.00152,-0.00349 -0.00116,0.00095 -0.0061,0.00511 -0.00755,0.00603 -0.00204,0.00127 -0.00444,0.00233 -0.00628,0.0001 -0.00116,-0.00137 -0.00173,-0.00314 -0.00215,-0.0049 -0.00042,-0.00166 -0.00169,-0.00967 -0.00169,-0.00967 0,0 -0.00424,0.0066 -0.00544,0.00819 -0.00109,0.00141 -0.00229,0.00282 -0.00395,0.00363 -0.00257,0.00127 -0.0043,-0.00067 -0.00568,-0.00264 -0.00098,-0.00141 -0.00381,-0.0072 -0.00451,-0.00854 0,0 0,0.00353 0,0.00381 0,0.00621 3e-005,0.01242 7e-005,0.01859 0,0.00018 7e-005,0.00028 0.0001,0.00039 -0.00053,7e-005 -0.00109,0.00014 -0.00155,0.00025 -0.00293,0.00049 -0.00744,0.00141 -0.01238,0.00381 -0.00138,0.00067 -0.00268,0.00299 -0.00251,0.00455 0.00015,0.00134 0.00011,0.00166 0.00011,0.00166 -0.00342,-0.00032 -0.00427,-0.00039 -0.00769,-0.00011 -0.00342,0.00028 -0.00886,0.00321 -0.00974,0.00346 -0.00384,0.00113 -0.00113,0.00603 0.00043,0.00539 0,0 -0.00226,0.00036 -0.00141,0.0035 0.00222,0.00832 0.00123,0.00758 0.00123,0.0098 0,0.00463 0.0188,0.0005 0.0206,-0.00038 0.0018,-0.00089 0.00138,-0.00378 0.00311,-0.00307 0,0 0.00204,0.00038 0.00028,0.00236 -0.00399,0.00452 -0.00078,0.00709 -0.00011,0.0097 -0.00035,-0.00067 -0.0007,-0.0013 -0.00113,-0.00187 -0.00151,-0.00197 -0.00465,-0.0048 -0.01146,-0.00229 -0.00677,0.0025 -0.01298,0.00296 -0.01662,0.00279 -0.00561,-0.00025 -0.00987,-0.00494 -0.00839,-0.00166 0.00148,0.00331 0.01012,0.00698 0.01774,0.00547 0.00762,-0.00149 0.00977,0 0.01507,0.00433 0.00067,0.00053 0.00127,0.00092 0.00183,0.00117 -0.00138,0.0006 -0.00318,0.00081 -0.00547,0.00116 -0.00966,0.00074 -0.01136,-0.00522 -0.0158,-0.0037 -0.00244,0.00078 -0.00184,0.00423 -0.0017,0.00688 0.00018,0.00296 -0.00074,0.00222 -0.00278,0.0067 -0.00074,0.00155 0.01097,0.00053 0.01153,0.00021 0,0.00046 4e-005,0.00452 -0.0024,0.00611 -0.00271,0.00172 -0.00314,0.00077 -0.00621,0.00151 -0.00567,0.00131 -0.00716,0.00364 -0.01125,-0.00028 -0.003,-0.00289 -0.00564,-0.00628 -0.00899,-0.00871 -0.003,-0.00216 -0.00664,-0.00431 -0.01016,-0.00466 -0.01235,-0.00123 -0.02258,-0.00554 -0.026,-0.01281 -0.00127,-0.00268 0.00074,-0.01153 -0.00103,-0.01467 -0.00296,-0.00526 -0.0073,-0.00723 -0.01333,-0.00737 0,0 0.00215,0.00151 0.00243,0.00299 0.00028,0.00149 -0.00084,0.00279 -0.0013,0.00427 -0.00113,0.0023 -0.00159,0.00275 -0.0041,0.00321 0.00134,0.00148 0.00159,0.00272 0.00166,0.00526 -0.00032,0.00286 -0.00102,0.00339 -0.00162,0.00501 -0.00088,0.00247 -0.00109,0.00518 -0.00124,0.00797 -7e-005,0.00117 -0.00049,0.00554 0.00127,0.00861 0.0012,0.0018 0.00198,0.00317 0.00759,0.00392 0.00536,0.0007 0.00967,0.00529 0.00892,0.01181 -0.00021,0.0018 -3e-005,0.00685 0.00124,0.00734 0.00053,0.00018 0.00063,-0.00303 0.0019,-0.00335 0.0011,-0.00028 0.00216,0.00226 0.00247,0.00293 0.00106,0.00236 0.00223,0.00458 0.00396,0.00652 0.00056,0.00067 0.00134,0.00191 0.00215,0.00223 0.00187,0.00067 0.00077,-0.00395 0.00187,-0.00381 0.00204,0.00028 0.00451,0.00056 0.00691,0.00102 0.00018,4e-005 0.00039,0.00011 0.0006,0.00018 0.00021,0.0001 0.00039,0.00021 0.00057,0.00031 3e-005,0 3e-005,4e-005 7e-005,4e-005 0.00014,0.0001 0.00024,0.00018 0.00035,0.00028 7e-005,7e-005 0.0001,0.00014 0.00014,0.00021 7e-005,7e-005 0.00011,0.00014 0.00014,0.00021 0,4e-005 0,0.00011 0,0.00015 0.00011,0.00077 -7e-005,0.0019 -0.00025,0.00264 -0.00074,0.00296 -0.00285,0.00519 -0.00762,0.00872 -0.00261,0.0019 -0.0092,0.00437 -0.01234,0.00539 0,0 0.00113,0.00205 0.00363,0.00342 0.00282,0.00156 0.00621,0.0029 0.00706,0.00318 -0.00018,0.0006 -0.0017,0.00056 -0.00406,0.00208 -0.00801,0.00522 -0.00963,0.01277 -0.01584,0.01965 -0.00286,0.00318 -0.00607,0.00614 -0.00946,0.00875 -0.00345,0.00268 -0.00747,0.00406 -0.0121,0.00321 -0.00698,-0.00127 -0.01308,-0.01016 -0.02289,-0.01016 -0.00184,0 -0.00787,0.00134 -0.00903,0.00473 -0.00053,0.00169 0.00744,-0.0017 0.00589,0.00282 -0.00187,0.00536 -0.00159,0.00762 -0.00159,0.00762 0,0 0.00289,-0.00215 0.0042,-0.00021 0.00071,0.00109 -0.00494,0.00215 0.00046,0.00998 0,0 -0.0012,-0.00596 0.00829,-0.00437 0.00243,0.00296 0.00529,0.00472 0.00762,0.00511 0.00183,0.00028 0.00466,-0.0012 0.00603,-0.00159 0.00261,-0.00084 0.00431,-0.00155 0.00875,0.00057 0.00409,0.00194 0.00448,0.00243 0.00811,0.00529 0.00099,0.00085 0.00318,0.00226 0.00445,0.00275 0.00049,-0.00173 0.00159,-0.00356 0.0013,-0.00515 -0.00028,-0.00169 -0.00187,-0.00321 -0.00303,-0.00501 0.00321,-0.00462 0.0073,-0.00039 0.01125,-0.00067 0.00089,-0.00448 -0.00067,-0.00966 0.00343,-0.01312 0.00141,-0.0012 0.00303,-0.00212 0.00504,-0.00296 -0.0007,0.00451 -0.00152,0.00878 0.00064,0.01241 0.0043,-0.00222 0.01125,-0.00603 0.01513,-0.00836 0.00416,-0.0025 0.01573,-0.01319 0.01891,-0.01527 0,0 0,0 0,0l0 0c0,0 0,3e-005 3e-005,7e-005 0.00025,0.00134 0.00071,0.0025 0.00127,0.00363 4e-005,0.00011 4e-005,0.00018 0.00011,0.00032 0.00018,0.00056 0.00064,0.00123 0.00123,0.00197 0.00262,0.00367 0.0065,0.00653 0.00974,0.00995 0.00589,0.00625 0.01224,0.01217 0.01761,0.01888 0.00296,0.0037 0.00444,0.00864 0.00627,0.01315 4e-005,8e-005 -3e-005,0.00022 -7e-005,0.00036 -3e-005,7e-005 -7e-005,0.00021 -0.0001,0.00032 -0.00043,0.0007 -0.00138,0.00172 -0.00205,0.0019 -0.01016,0.00275 -0.01735,0.00455 -0.02723,0.00744 -0.00148,0.00046 -0.00967,0.003 -0.0108,0.0041 -0.00554,0.00557 -0.00501,0.01266 -0.00314,0.02032 0.00205,0.00836 0.00367,0.01538 0.00484,0.01823 0.00109,0.00265 -0.00523,0.0041 -0.00967,0.00519 -0.00183,0.00046 -0.00836,4e-005 -0.01157,-0.00183 -0.00762,-0.00448 -0.00787,-0.00635 -0.01506,-0.00858 -0.00195,-0.0006 -0.00618,-0.00137 -0.00932,-0.0001 -0.00388,0.00162 -0.00642,0.00547 -0.00522,0.00504 0.00215,-0.00074 0.00279,-0.00077 0.00505,-0.00017 0.00144,0.00035 0.00328,0.00031 0.00102,0.00296 -0.00169,0.00194 -0.00244,0.00702 -0.00169,0.00653 0.00169,-0.00113 0.00624,-0.0023 0.00384,-0.00022 -0.00363,0.00318 0.00039,0.0126 0.00074,0.01027 0.00032,-0.00212 -0.00067,-0.00522 0.00596,-0.00413 0.0011,0.00021 0.00032,-0.00123 0.00184,-0.00046 0.00169,0.00085 0.00151,0.00378 0.00822,0.0048 0.00674,0.00099 0.00427,-0.00367 0.00984,-0.00293 0.0061,0.00081 0.0084,0.00149 0.01563,0.00244 0.00995,0.00127 0.01284,0.00134 0.01471,-0.00113 0.00243,-0.00321 0.00557,-0.01023 0.0043,-0.01118 -0.00381,-0.00276 -0.00314,-0.00872 -0.0013,-0.01228 0.0024,-0.00473 0.00363,-0.00406 0.00836,-0.00614 0.00861,-0.00374 0.01213,-0.01231 0.02134,-0.01281 0.00095,-7e-005 0.00212,0.00089 0.00286,0.0017 0.00081,0.00081 0.00303,0.00275 0.0037,0.00363 0.01119,0.01443 0.02449,0.01778 0.02646,0.01852 0.00804,0.00297 0.01577,0.00155 0.0235,-0.00109 0.00282,-0.00095 0.00571,-0.00176 0.0086,-0.00247 0.00293,-0.00071 0.00434,0.00067 0.00484,0.00363 0.00144,0.009 0.00144,0.01394 -0.00233,0.01694 -0.00339,0.00271 -0.00864,0.00176 -0.0121,0.00621 -0.00226,0.00289 -0.00282,0.00712 -0.00328,0.01076 -4e-005,0.00028 0.00349,-0.00325 0.00518,-0.00276 0.00036,0.00011 -0.00137,0.00233 0.00103,0.00773 0.00067,0.00152 0.00183,-0.00423 0.00822,-0.00448 0.00183,-7e-005 -0.00071,0.00194 0.00342,0.00705 0.00102,0.00127 -0.00014,-0.00497 0.00864,-0.00476 0.0061,0.00014 0.00847,-0.00331 0.00875,-0.0067 0.00028,-0.00335 -0.00113,-0.00843 -0.00183,-0.01284 -0.00039,-0.00378 0.00123,-0.00713 0.00321,-0.01059 0.00307,-0.00546 0.00405,-0.01143 0.00384,-0.0177 -7e-005,-0.00184 0.00099,-0.0041 0.00222,-0.00558 0.00318,-0.0037 0.00403,-0.00903 0.0017,-0.01376 -0.0018,-0.00363 -0.00519,-0.00518 -0.01041,-0.00451 -0.00476,0.0006 -0.00903,0.00243 -0.01231,0.00607 -0.00237,0.00261 -0.00529,0.00529 -0.00861,0.00356 -0.00265,-0.00138 -0.0054,-0.00452 -0.0061,-0.00734 -0.00131,-0.00519 -0.0011,-0.00811 -0.00155,-0.01122 0.00412,-0.00444 0.00652,-0.0079 0.00652,-0.0079 0.00314,-0.00568 0.00296,-0.01397 -0.00017,-0.01997 -0.00336,-0.00638 -0.00907,-0.01002 -0.0138,-0.01524 -0.00861,-0.00949 -0.00247,-0.01693 0.00448,-0.01651 0.0048,0.00032 0.00864,0.00304 0.0114,0.0072 0.00268,0.00406 0.00458,0.00688 0.00882,0.00907 0.00522,0.00268 0.01365,0.00215 0.01763,0.0079 0,0 0.00015,-0.00032 0.00025,-0.00085 0.00014,-0.00046 0.00021,-0.00095 0.00025,-0.00148 0,-7e-005 -4e-005,-0.00011 -4e-005,-0.00018 4e-005,-0.00074 -3e-005,-0.00158 -0.00024,-0.00257 -7e-005,-0.00021 -0.00011,-0.00043 -0.00018,-0.00064 -0.00021,-0.0007 -0.00046,-0.00144 -0.00085,-0.00225 -0.00038,-0.00078 -0.00091,-0.00149 -0.00151,-0.00219 -4e-005,-4e-005 -0.00011,-0.00011 -0.00014,-0.00018 -0.0005,-0.00053 -0.00106,-0.00106 -0.00166,-0.00155 -7e-005,-7e-005 -0.00014,-0.00018 -0.00025,-0.00025 -7e-005,-7e-005 -0.00018,-0.0001 -0.00025,-0.00017 -0.0007,-0.00053 -0.00141,-0.00103 -0.00215,-0.00149 -0.00032,-0.00021 -0.0006,-0.00035 -0.00092,-0.00052 -0.0006,-0.00036 -0.0012,-0.00071 -0.00179,-0.00103 -0.00011,-3e-005 -0.00022,-0.0001 -0.00032,-0.00017 0.00148,0.00077 0.00458,0.00063 0.00621,0.00074 0.00225,0.00017 0.00451,0.00021 0.00677,0.00014 0.00437,-0.00014 0.00868,-0.00081 0.01281,-0.00226 0.01644,-0.00582 0.02769,-0.02392 0.02211,-0.04096 -0.00335,-0.01026 -0.01192,-0.01845 -0.02102,-0.01968zm-0.46422 0.3l0.05489 0 0 -0.47756 -0.05489 0 0 0.47756zm0.24088 -0.58893c0.00088,-0.00046 0.00222,-0.00067 0.00395,-0.00067 0.00261,0 0.00554,0.00053 0.00783,0.0011 -7e-005,0.00448 0.00088,0.00938 0.00279,0.01453 0.00663,0.01799 0.02427,0.03637 0.03429,0.04494 -0.00138,0.00187 -0.00216,0.00417 -0.00216,0.00653 0,0.0043 0.00251,0.00808 0.00618,0.00988 -0.00311,0.00113 -0.00621,0.0024 -0.00928,0.0037 0.00049,-0.00123 0.00074,-0.00257 0.00074,-0.00395 0,-0.00607 -0.00494,-0.01101 -0.01104,-0.01101 -0.00607,0 -0.01104,0.00494 -0.01104,0.01101 0,0.00494 0.00324,0.0091 0.00769,0.01051 -0.00103,0.00057 -0.00201,0.0011 -0.00297,0.00166 -0.00046,0.00021 -0.00088,0.00046 -0.0013,0.00071 -0.00543,-0.006 -0.0211,-0.02851 -0.02999,-0.04576 -0.00413,-0.00804 -0.00645,-0.01407 -0.00684,-0.01799 -0.00177,-0.01732 0.00808,-0.02364 0.01115,-0.02519zm0.04159 -0.0043c0.00462,-0.00014 0.04459,-0.00184 0.06561,-0.01739 -0.0025,0.00995 -0.00391,0.02406 -0.00391,0.03901 0,0.02057 0.00272,0.03916 0.00691,0.04784 -0.00564,0.00018 -0.01143,0.00064 -0.01718,0.00138 0.00145,-0.00191 0.00226,-0.00424 0.00226,-0.00667 0,-0.00607 -0.00494,-0.01101 -0.01104,-0.01101 -0.00607,0 -0.01101,0.00494 -0.01101,0.01101 0,0.00384 0.00191,0.0072 0.00491,0.00917 -0.0036,0.00078 -0.00717,0.00162 -0.01069,0.00258 0.00084,-0.00156 0.00134,-0.00335 0.00134,-0.00519 0,-0.006 -0.00484,-0.0109 -0.01083,-0.01101 -0.00431,-0.00589 -0.02068,-0.02928 -0.02198,-0.046 -0.00053,-0.00652 0.0013,-0.011 0.00561,-0.01372zm0.08784 0.02162c0,-0.01502 -0.00145,-0.02921 -0.00395,-0.03915 0.02095,0.01569 0.06117,0.01739 0.06583,0.01753 0.00427,0.00272 0.0061,0.0072 0.00564,0.01372 -0.00127,0.01704 -0.01827,0.0411 -0.0218,0.046 -7e-005,0 -0.00014,0 -0.00021,0 -0.0061,0 -0.01104,0.00494 -0.01104,0.01101 0,0.00184 0.00042,0.0036 0.00127,0.00515 -0.0035,-0.00099 -0.00706,-0.00183 -0.01059,-0.00257 0.00293,-0.00198 0.00487,-0.00537 0.00487,-0.00914 0,-0.00607 -0.00494,-0.01101 -0.01104,-0.01101 -0.00607,0 -0.01104,0.00494 -0.01104,0.01101 0,0.00247 0.00081,0.00476 0.00222,0.00663 -0.00572,-0.0007 -0.01143,-0.00116 -0.01707,-0.00134 0.00419,-0.00868 0.00691,-0.02727 0.00691,-0.04784zm0.08894 -0.00232c0.0019,-0.00515 0.00282,-0.01006 0.00275,-0.01457 0.00292,-0.00071 0.00568,-0.0011 0.00783,-0.0011 0.00169,0 0.00303,0.00021 0.00395,0.00067 0.00303,0.00155 0.01291,0.0079 0.01111,0.02519 -0.00039,0.00392 -0.00275,0.01013 -0.00684,0.01799 -0.00953,0.01838 -0.02523,0.0404 -0.03009,0.04569 -0.00039,-0.00025 -0.00078,-0.00046 -0.00117,-0.00064 -0.00099,-0.00056 -0.00201,-0.00113 -0.00307,-0.00169 0.00438,-0.00145 0.00755,-0.00561 0.00755,-0.01048 0,-0.00607 -0.00494,-0.01101 -0.01104,-0.01101 -0.00607,0 -0.01101,0.00494 -0.01101,0.01101 0,0.00134 0.00025,0.00265 0.00071,0.00388 -0.00307,-0.0013 -0.00614,-0.00254 -0.00921,-0.00367 0.00364,-0.00183 0.0061,-0.00557 0.0061,-0.00984 0,-0.00226 -0.00067,-0.00444 -0.00197,-0.00624 0.01002,-0.00858 0.02773,-0.02703 0.0344,-0.04519zm-0.19781 0.0787l0.00473 0.00924c0.02815,-0.0115 0.05891,-0.01785 0.09116,-0.01785 0.03164,0 0.06187,0.00618 0.08964,0.01725l0.00582 -0.00825c0.00028,-0.00028 0.02737,-0.02822 0.04681,-0.0563 0.01087,-0.01567 0.01016,-0.02689 0.00766,-0.03352 -0.00318,-0.00847 -0.0115,-0.01513 -0.02223,-0.01781 -0.00296,-0.00074 -0.00606,-0.00113 -0.00917,-0.00113 -0.0067,0 -0.01252,0.00173 -0.01654,0.00335 -0.00134,-0.00272 -0.00314,-0.00526 -0.00547,-0.00766 -0.01584,-0.01622 -0.04368,-0.01965 -0.06424,-0.01965 -0.00907,0 -0.01718,0.00064 -0.02307,0.00131 0.00116,-0.00177 0.00179,-0.00388 0.00179,-0.00607 0,-0.00391 -0.00204,-0.00744 -0.00539,-0.00945l0 -0.00466 0.00543 0 0 -0.01122 -0.00543 0 0 -0.00529 -0.01122 0 0 0.00529 -0.00543 0 0 0.01122 0.00543 0 0 0.00466c-0.00339,0.00201 -0.00543,0.00554 -0.00543,0.00945 0,0.00219 0.00063,0.0043 0.00183,0.00607 -0.00603,-0.00067 -0.01408,-0.00131 -0.02314,-0.00131 -0.02053,0 -0.04833,0.00343 -0.06421,0.01965 -0.00229,0.00237 -0.00409,0.00494 -0.0054,0.00766 -0.00405,-0.00162 -0.00987,-0.00335 -0.01658,-0.00335 -0.0031,0 -0.0062,0.00039 -0.0092,0.00113 -0.01073,0.00268 -0.01902,0.00934 -0.02223,0.01781 -0.0025,0.00663 -0.00317,0.01785 0.00769,0.03352 0.01863,0.02695 0.04421,0.05365 0.04639,0.05591zm0.09589 0.44252c-0.10312,0 -0.18673,-0.08357 -0.18673,-0.18669 0,-0.10311 0.08361,-0.18672 0.18673,-0.18672 0.10311,0 0.18669,0.08361 0.18669,0.18672 0,0.10312 -0.08358,0.18669 -0.18669,0.18669zm0 -0.42887c-0.13356,0 -0.24218,0.10866 -0.24218,0.24218 0,0.13353 0.10862,0.24215 0.24218,0.24215 0.13352,0 0.24218,-0.10862 0.24218,-0.24215 0,-0.13352 -0.10866,-0.24218 -0.24218,-0.24218z"/>
 </g>
</svg>
