<?xml version="1.0" encoding="UTF-8"?>
<!DOCTYPE svg PUBLIC "-//W3C//DTD SVG 1.1//EN" "http://www.w3.org/Graphics/SVG/1.1/DTD/svg11.dtd">
<!-- Creator: CorelDRAW -->
<svg xmlns="http://www.w3.org/2000/svg" xml:space="preserve" width="100%" height="100%" 
viewBox="0 0 0.81756 0.75604"
 xmlns:xlink="http://www.w3.org/1999/xlink">
 <defs>
  <style type="text/css">
   <![CDATA[
    .fil0 {fill:#373435;fill-rule:nonzero}
   ]]>
  </style>
  <clipPath id="id0" style="clip-rule:nonzero">
   <rect x="4.2639" y="-4.57581" width="0.94819" height="0.94819"/>
  </clipPath>
  <clipPath id="id1" style="clip-rule:nonzero">
   <rect x="4.2639" y="-10.4216" width="0.94819" height="0.94819"/>
  </clipPath>
  <clipPath id="id2" style="clip-rule:nonzero">
   <rect x="-5.62995" y="-6.37102" width="0.94819" height="0.94819"/>
  </clipPath>
 </defs>

 <g id="Capa_x0020_1">
  <metadata id="CorelCorpID_0Corel-Layer"/>
  <path class="fil0" d="M0.80874 0.75604l-0.18461 0 -0.00882 0 0 -0.00882 0 -0.18461 0 -0.00882 0.00882 0 0.18461 0 0.00882 0 0 0.00882 0 0.18461 0 0.00882 -0.00882 0zm-0.61531 -0.55379l-0.18461 0 -0.00882 0 0 -0.00882 0 -0.18461 0 -0.00882 0.00882 0 0.18461 0 0.00882 0 0 0.00882 0 0.18461 0 0.00882 -0.00882 0zm-0.17579 -0.01764l0.16697 0 0 -0.16697 -0.16697 0 0 0.16697zm0.48344 0.01764l-0.1846 0 -0.00882 0 0 -0.00882 0 -0.18461 0 -0.00882 0.00882 0 0.1846 0 0.00882 0 0 0.00882 0 0.18461 0 0.00882 -0.00882 0zm-0.17578 -0.01764l0.16696 0 0 -0.16697 -0.16696 0 0 0.16697zm0.48344 0.01764l-0.18461 0 -0.00882 0 0 -0.00882 0 -0.18461 0 -0.00882 0.00882 0 0.18461 0 0.00882 0 0 0.00882 0 0.18461 0 0.00882 -0.00882 0zm-0.17579 -0.01764l0.16697 0 0 -0.16697 -0.16697 0 0 0.16697zm-0.43952 0.29454l-0.18461 0 -0.00882 0 0 -0.00882 0 -0.18458 0 -0.00882 0.00882 0 0.18461 0 0.00882 0 0 0.00882 0 0.18458 0 0.00882 -0.00882 0zm-0.17579 -0.01764l0.16697 0 0 -0.16694 -0.16697 0 0 0.16694zm0.48344 0.01764l-0.1846 0 -0.00882 0 0 -0.00882 0 -0.18458 0 -0.00882 0.00882 0 0.1846 0 0.00882 0 0 0.00882 0 0.18458 0 0.00882 -0.00882 0zm-0.17578 -0.01764l0.16696 0 0 -0.16694 -0.16696 0 0 0.16694zm0.48344 0.01764l-0.18461 0 -0.00882 0 0 -0.00882 0 -0.18458 0 -0.00882 0.00882 0 0.18461 0 0.00882 0 0 0.00882 0 0.18458 0 0.00882 -0.00882 0zm-0.17579 -0.01764l0.16697 0 0 -0.16694 -0.16697 0 0 0.16694zm-0.43952 0.29453l-0.18461 0 -0.00882 0 0 -0.00882 0 -0.18461 0 -0.00882 0.00882 0 0.18461 0 0.00882 0 0 0.00882 0 0.18461 0 0.00882 -0.00882 0zm-0.17579 -0.01764l0.16697 0 0 -0.16697 -0.16697 0 0 0.16697zm0.48344 0.01764l-0.1846 0 -0.00882 0 0 -0.00882 0 -0.18461 0 -0.00882 0.00882 0 0.1846 0 0.00882 0 0 0.00882 0 0.18461 0 0.00882 -0.00882 0zm-0.17578 -0.01764l0.16696 0 0 -0.16697 -0.16696 0 0 0.16697zm0.30765 0l0.16697 0 0 -0.16697 -0.16697 0 0 0.16697z"/>
 </g>
</svg>
