<?xml version="1.0" encoding="UTF-8"?>
<!DOCTYPE svg PUBLIC "-//W3C//DTD SVG 1.1//EN" "http://www.w3.org/Graphics/SVG/1.1/DTD/svg11.dtd">
<!-- Creator: CorelDRAW -->
<svg xmlns="http://www.w3.org/2000/svg" xml:space="preserve" width="100%" height="100%" style="shape-rendering:geometricPrecision; text-rendering:geometricPrecision; image-rendering:optimizeQuality; fill-rule:evenodd; clip-rule:evenodd"
viewBox="0 0 3.04896 4.23333"
 xmlns:xlink="http://www.w3.org/1999/xlink">
 <defs>

 </defs>
 <g id="Capa_x0020_1">
  <metadata id="CorelCorpID_0Corel-Layer"/>
  <path class="fil0" d="M1.52448 3.88418c-0.6491,0 -1.17528,-0.52618 -1.17528,-1.17534 0,-0.64909 0.52618,-1.17529 1.17528,-1.17529 0.64921,0 1.17533,0.5262 1.17533,1.17529 0,0.64916 -0.52612,1.17534 -1.17533,1.17534zm0.90994 -1.45726c0.03927,0.12023 -0.04002,0.2477 -0.15597,0.28858 -0.0289,0.01014 -0.05949,0.01491 -0.09001,0.01598 -0.01594,0.00053 -0.03198,0.00017 -0.04792,-0.00096 -0.01148,-0.0008 -0.03336,0.00011 -0.04361,-0.00521 0.01352,0.00698 0.02682,0.01466 0.03815,0.02376l0.00088 0.00075 8e-005 5e-005 0.00096 0.00079 0.00042 0.00035 0.00054 0.00045c0.0094,0.00788 0.01729,0.01682 0.02234,0.02707l0.00095 0.00204c0.0037,0.00744 0.00627,0.0156 0.00744,0.02459l0.00011 0.00078 4e-005 0.00044 0.00011 0.00088 3e-005 0.0003 0.00011 0.00104 0 0.00012 9e-005 0.00115 1e-005 8e-005 6e-005 0.00103c0.00016,0.00238 0.0002,0.00482 0.00016,0.0073 -0.00016,0.00575 -0.00155,0.01155 -0.00349,0.01632l-3e-005 -3e-005 -1e-005 3e-005 -2e-005 -9e-005c-0.02792,-0.04031 -0.08747,-0.03662 -0.12418,-0.05566 -0.02973,-0.01534 -0.04315,-0.03525 -0.06212,-0.06384 -0.01938,-0.02923 -0.04659,-0.04839 -0.08038,-0.05054 -0.04898,-0.00305 -0.092,0.04931 -0.03143,0.1161 0.03341,0.0368 0.07365,0.06244 0.09725,0.10752 0.02211,0.04217 0.02324,0.10069 0.00108,0.14071 0,0 -0.01689,0.02415 -0.04597,0.05548 0.00327,0.02209 0.00182,0.04253 0.01099,0.07902 0.00499,0.02012 0.02424,0.04217 0.04303,0.05188 0.02328,0.01217 0.04382,-0.00666 0.06057,-0.02521 0.02307,-0.02559 0.05316,-0.03837 0.08674,-0.04266 0.03682,-0.00467 0.06057,0.00607 0.07329,0.03171 0.01653,0.03332 0.01052,0.07076 -0.01174,0.09695 -0.00885,0.01034 -0.01621,0.02623 -0.01577,0.03937 0.00149,0.04426 -0.00543,0.08627 -0.02704,0.12457 -0.01384,0.02453 -0.02538,0.04796 -0.0226,0.07474 0.00494,0.03101 0.01477,0.0669 0.01277,0.09046 -0.00193,0.02364 -0.01861,0.04828 -0.06142,0.0472 -0.06202,-0.00145 -0.05376,0.04249 -0.061,0.03347 -0.02903,-0.03589 -0.01133,-0.05015 -0.02409,-0.04967 -0.04496,0.00171 -0.05333,0.04226 -0.05804,0.03148 -0.01685,-0.03792 -0.00467,-0.05369 -0.00715,-0.05444 -0.0118,-0.00344 -0.03691,0.0214 -0.03658,0.01953 0.00343,-0.0256 0.00729,-0.05559 0.02306,-0.07575l3e-005 -5e-005 -6e-005 3e-005c0.00307,-0.00392 0.00634,-0.00725 0.00975,-0.01011l1e-005 0c0.00426,-0.00357 0.00872,-0.00642 0.01332,-0.00876l3e-005 0 0.00137 -0.00068 2e-005 0 0.00277 -0.0013 3e-005 0 0.00138 -0.00061 2e-005 0 0.00139 -0.00059 2e-005 0 0.0014 -0.00056 1e-005 0 0.0014 -0.00053 2e-005 0 0.00141 -0.00054 2e-005 0 0.00141 -0.0005 0.00143 -0.00048 0.00143 -0.00048 0.00143 -0.00045 2e-005 0 0.00141 -0.00046 2e-005 0 0.00285 -0.00086 0.00143 -0.00042 0.00143 -0.00042 0.00143 -0.00041 0.00143 -0.0004 0.00142 -0.00041 1e-005 0 0.00142 -0.00041 0.00141 -0.00039 0.0014 -0.00041 0.00141 -0.00041 0.00139 -0.00043 1e-005 0 0.00139 -0.00043 0.00138 -0.00044 0.00137 -0.00044 2e-005 0 0.00135 -0.00045 1e-005 0 0.00136 -0.00048 0.00134 -0.00047 1e-005 0 0.00132 -0.0005 2e-005 0 0.00132 -0.00052 0.00131 -0.00053 2e-005 0 0.00129 -0.00056 0.00129 -0.00058 2e-005 0 0.00126 -0.00059 1e-005 0 0.00125 -0.00064 2e-005 0 0.00123 -0.00066 1e-005 0 0.00123 -0.00066 2e-005 0 0.0012 -0.00072 2e-005 0c0.002,-0.0012 0.00395,-0.00254 0.00584,-0.00403 0.00249,-0.00199 0.00476,-0.00411 0.00681,-0.00634l1e-005 0 0.00099 -0.00114 2e-005 0 0.00094 -0.00114 2e-005 0 0.00091 -0.00119 1e-005 0 0.00089 -0.0012 1e-005 0 0.00085 -0.00122 2e-005 0 0.0008 -0.00124 2e-005 0 0.00077 -0.00128 2e-005 0 0.00074 -0.00129 0.00072 -0.00131 1e-005 0 0.00067 -0.00135 2e-005 0 0.00065 -0.00137 0.00063 -0.0014 0.00057 -0.00142 2e-005 0 0.00055 -0.00144 1e-005 0 0.00052 -0.00148 0.00049 -0.0015 1e-005 0 0.00046 -0.00152 0.00044 -0.00157 0.00039 -0.00158 2e-005 0 0.00036 -0.00161 0.00035 -0.00164 0.00031 -0.00166 1e-005 0 0.00028 -0.00171 1e-005 0 0.00025 -0.00173 1e-005 0 0.00023 -0.00176 0.0002 -0.00178 1e-005 0 0.00017 -0.00183 0.00015 -0.00185 0.00012 -0.00189 9e-005 -0.0019 2e-005 0 6e-005 -0.00195 1e-005 0 4e-005 -0.00199 1e-005 0 2e-005 -0.00201 0 -0.00203 -2e-005 -0.00209 -1e-005 0 -4e-005 -0.00211 -1e-005 0 -6e-005 -0.00215 -2e-005 0 -7e-005 -0.00218 -2e-005 0 -0.0001 -0.00221 -2e-005 0 -0.00012 -0.00225 -2e-005 0 -0.00015 -0.0023 -0.00018 -0.00232 -0.0002 -0.00236 -1e-005 0 -0.00022 -0.00239 -0.00024 -0.00243 -0.00027 -0.00248 -0.00028 -0.00251 -0.0003 -0.00254 -0.00032 -0.00258 -2e-005 0 -0.00033 -0.00262 -0.00035 -0.00266 -2e-005 0 -0.00036 -0.00271 -0.0004 -0.00274 -0.00041 -0.00278 -0.00042 -0.00281 -0.00044 -0.00288 -2e-005 0 -0.00044 -0.00289 -1e-005 0 -0.00046 -0.00295 -2e-005 0 -0.00015 -0.00097 -1e-005 0 -0.00016 -0.00097 -1e-005 0 -0.00018 -0.00095 -0.00019 -0.00092 -1e-005 0 -0.0002 -0.00092 -0.00021 -0.00089 -0.00023 -0.00087 0 -2e-005 -0.00023 -0.00085 -0.0005 -0.00165 0 -2e-005 -0.00027 -0.00079 0 -2e-005 -0.00028 -0.00077 0 -2e-005 -0.00029 -0.00076 0 -1e-005 -0.00029 -0.00075 -0.00031 -0.00073 0 -1e-005 -0.00032 -0.0007 0 -2e-005 -0.00034 -0.00068 0 -2e-005 -0.00033 -0.00067 0 -1e-005 -0.00035 -0.00065 0 -2e-005 -0.00037 -0.00062 0 -2e-005 -0.00038 -0.00062 -0.00039 -0.00061 -0.0004 -0.00059 -0.00041 -0.00057 0 -1e-005 -0.00043 -0.00055 -0.00044 -0.00053 0 -2e-005 -0.00044 -0.0005 0 -1e-005 -0.00045 -0.00049 -0.00096 -0.00093 0 -1e-005 -0.0005 -0.00043 0 -1e-005 -0.00052 -0.00041 0 -2e-005 -0.00052 -0.0004 0 -1e-005 -0.00053 -0.00037 0 -1e-005 -0.00055 -0.00035 0 -2e-005 -0.00056 -0.00033 0 -2e-005 -0.00058 -0.0003 0 -1e-005 -0.00058 -0.00031 -1e-005 0 -0.00059 -0.00027 0 -2e-005 -0.00125 -0.0005 0 -1e-005 -0.00064 -0.00023 -0.00132 -0.0004 -2e-005 0 -0.00135 -0.00032 -2e-005 0 -0.00143 -0.00024 -1e-005 0c-0.0012,-0.00017 -0.0025,-0.00023 -0.00382,-0.00024l-3e-005 0 -0.00079 1e-005 -1e-005 0 -0.00081 3e-005 -2e-005 0 -0.00083 5e-005 -2e-005 1e-005 -0.00083 6e-005 -2e-005 2e-005 -0.00085 9e-005 -3e-005 0 -0.00087 0.00011 -1e-005 0 -0.00089 0.00013 -1e-005 0 -0.00091 0.00017 -2e-005 0 -0.00091 0.00017 -2e-005 0 -0.00092 0.00019 -3e-005 2e-005 -0.00095 0.00021 -1e-005 0 -0.00094 0.00023 -2e-005 0 -0.00094 0.00023 -2e-005 0 -0.00094 0.00023 -2e-005 0 -0.00094 0.00023 -0.00096 0.00024 -0.00096 0.00023 -0.00095 0.00022 -0.00096 0.00025 -0.00094 0.00024 -2e-005 0 -0.00094 0.00023 -0.00096 0.00024 -0.00096 0.00025 -0.00094 0.00024 -2e-005 0 -0.00094 0.00024 -1e-005 0 -0.00095 0.00025 -0.00096 0.00025 -0.00094 0.00025 -1e-005 0 -0.0019 0.0005 -0.00095 0.00026 -1e-005 0 -0.00095 0.00024 -1e-005 0 -0.00093 0.00026 -1e-005 0 -0.00095 0.00026 -1e-005 0 -0.00093 0.00026 -3e-005 0 -0.00093 0.00026 -1e-005 0 -0.00093 0.00025 -3e-005 0 -0.00093 0.00028 -1e-005 0 -0.00093 0.00026 -3e-005 0 -0.00093 0.00026 -1e-005 0 -0.00093 0.00027 -2e-005 0 -0.00094 0.00027 -2e-005 0 -0.00092 0.00026 -2e-005 0 -0.00093 0.00028 -1e-005 0 -0.00094 0.00027 -2e-005 0 -0.00093 0.00027 -1e-005 0 -0.00093 0.00028 -2e-005 0 -0.00092 0.00027 -2e-005 0 -0.00094 0.00029 -2e-005 0 -0.00092 0.00027 -2e-005 0 -0.00187 0.00057 -1e-005 0 -0.00093 0.00028 -2e-005 0 -0.00187 0.00057 -1e-005 0 -0.00093 0.00029 -2e-005 0 -0.00092 0.00028 -0.00095 0.00029 0 2e-005 -0.00094 0.00027 0 2e-005 -0.00094 0.00029 -0.00093 0.00029 0 1e-005 -0.00094 0.00029 -0.00095 0.00029 0 1e-005 -0.00092 0.00029 0 2e-005 -0.00095 0.00029 -0.00092 0.0003 -2e-005 0 -0.00091 0.00031 -2e-005 0 -0.00092 0.0003 -2e-005 0 -0.00091 0.0003 -2e-005 2e-005 -0.00091 0.00029 -3e-005 1e-005 -0.00091 0.00031 -2e-005 0 -0.00091 0.0003 -2e-005 2e-005 -0.00091 0.0003 -3e-005 0 -0.0009 0.0003 -3e-005 2e-005 -0.00089 0.0003 -3e-005 2e-005 -0.00253 0.00085 -3e-005 2e-005 -0.00252 0.00083 -3e-005 2e-005 -0.00253 0.00083 -3e-005 2e-005 -0.00252 0.00081 -3e-005 1e-005 -0.00253 0.00081 -3e-005 1e-005 -0.00252 0.00078 -3e-005 1e-005 -0.00253 0.00076 -3e-005 2e-005 -0.00254 0.00076 -1e-005 1e-005 -0.00254 0.00073 -2e-005 2e-005 -0.00254 0.00071 -1e-005 2e-005 -0.00254 0.0007 -3e-005 1e-005 -0.00253 0.00067 -3e-005 2e-005 -0.00254 0.00067 -1e-005 1e-005 -0.00254 0.00064 -2e-005 2e-005 -0.00254 0.0006 -3e-005 2e-005 -0.00254 0.00061 -1e-005 1e-005 -0.00254 0.00058 -2e-005 2e-005 -0.00255 0.00056 -2e-005 1e-005 -0.00254 0.00054 -1e-005 1e-005 -0.00256 0.00052 -1e-005 1e-005 -0.00254 0.00049 -3e-005 2e-005 -0.00254 0.00047 -2e-005 1e-005 -0.00255 0.00044 -2e-005 2e-005 -0.00255 0.00041 -2e-005 1e-005 -0.00255 0.0004 -2e-005 2e-005 -0.00255 0.00036 -2e-005 2e-005 -0.00255 0.00035 -2e-005 1e-005 -0.00255 0.00032 -2e-005 0 -0.00255 0.0003 -2e-005 0 -0.00255 0.00028 -2e-005 1e-005 -0.00257 0.00023 -1e-005 2e-005 -0.00256 0.00021 -1e-005 0 -0.00257 0.00018 -2e-005 2e-005 -0.00257 0.00015 0 1e-005 -0.00257 0.00011 -1e-005 2e-005 -0.00257 9e-005 -2e-005 1e-005 -0.00257 6e-005 -1e-005 0 -0.00257 3e-005 -2e-005 2e-005 -0.00258 0 -0.00259 -2e-005 0 -1e-005 -0.00519 -0.00014 0 -1e-005 -0.0026 -0.00013 -0.0026 -0.00015 0 -1e-005 -0.00258 -0.00019 -2e-005 -1e-005 -0.0026 -0.00021 0 -2e-005 -0.0026 -0.00026 -0.0026 -0.0003 -0.0026 -0.00034 -1e-005 -1e-005 -0.0026 -0.00037 0 -1e-005 -0.00262 -0.00041 -0.00262 -0.00044 0 -2e-005 -0.00261 -0.00048 -0.00262 -0.00054 -1e-005 0 -0.0026 -0.00057 -2e-005 0 -0.00261 -0.00061 -2e-005 0 -0.0026 -0.00066 -3e-005 0 -0.0026 -0.0007 -3e-005 0 -0.0026 -0.00074 -3e-005 0 -0.0026 -0.00078 -3e-005 0 -0.00262 -0.00082 -1e-005 0 -0.00262 -0.00087 -3e-005 0 -0.00262 -0.00091 -3e-005 0 -0.00261 -0.00096 -3e-005 0 -0.00069 -0.00025 -3e-005 0 -0.00079 -0.00028 -3e-005 0 -0.00091 -0.00032 -3e-005 0 -0.00102 -0.00035 -3e-005 0 -0.00114 -0.00036 -2e-005 0 -0.00124 -0.00041 -2e-005 0 -0.00135 -0.00046 -0.00146 -0.00047 -2e-005 0 -0.00155 -0.00053 -0.00166 -0.00055 -1e-005 0 -0.00175 -0.00061 -2e-005 0 -0.00182 -0.00064 -3e-005 0 -0.0019 -0.00068 -0.00204 -0.00073 -3e-005 0 -0.00427 -0.0016 -6e-005 -1e-005c-0.03592,-0.01358 -0.10335,-0.04595 -0.1624,-0.12227l-2e-005 0 -0.00021 -0.00029 -2e-005 0 -0.00024 -0.00031 -0.00026 -0.0003 -2e-005 -1e-005 -0.00025 -0.00031 -2e-005 -1e-005 -0.00029 -0.00032 0 -2e-005 -0.0003 -0.00032 0 -1e-005 -0.00032 -0.00034 0 -1e-005 -0.00032 -0.00035 -2e-005 -2e-005 -0.00033 -0.00035 0 -1e-005 -0.00035 -0.00037 0 -1e-005 -0.00037 -0.00037 0 -1e-005 -0.00038 -0.00037 0 -1e-005 -0.00118 -0.0012 0 -2e-005 -0.00084 -0.00081 0 -1e-005c-0.00556,-0.00548 -0.01303,-0.01226 -0.01781,-0.01688l-3e-005 -2e-005 -0.00135 -0.00133 -3e-005 -2e-005 -0.00116 -0.00116 -1e-005 -3e-005c-0.00175,-0.00181 -0.0038,-0.00374 -0.00604,-0.00552l-0.00029 -0.00022 -1e-005 -4e-005 -0.00032 -0.00022 0 -2e-005 -0.00099 -0.00074 -0.00031 -0.00022 0 -1e-005 -0.00199 -0.00134 0 -2e-005 -1e-005 0 -0.00032 -0.00019 0 -2e-005 -0.00136 -0.00077 0 -2e-005 -1e-005 0 -0.00032 -0.00017 0 -1e-005 -0.00033 -0.00017 0 -1e-005 -0.00102 -0.00051 -0.00037 -0.00016 -0.0003 -0.00014 -2e-005 0 -1e-005 -2e-005 -0.00034 -0.00013 -0.0003 -0.00012 -2e-005 0 -1e-005 -2e-005 -0.00031 -0.00012 -1e-005 0 -2e-005 0 -0.0003 -0.00012 -2e-005 0 -1e-005 0 -0.00031 -0.00011 -3e-005 -1e-005 -0.0003 -9e-005 -3e-005 -2e-005 -0.0003 -8e-005 -3e-005 -1e-005 -0.00029 -8e-005 -3e-005 -1e-005 -2e-005 0 -0.00029 -8e-005 -1e-005 0 -2e-005 0 -0.0003 -6e-005 -3e-005 -1e-005 -0.00029 -7e-005 -3e-005 0 -2e-005 0 -0.00027 -4e-005 -5e-005 -2e-005 -0.00029 -3e-005 -3e-005 -1e-005 -0.00029 -3e-005 -3e-005 0 -0.00028 -2e-005 -4e-005 -1e-005 -0.00027 0 -4e-005 -2e-005 -0.00028 0 -0.00062 2e-005c-0.01115,0.00061 -0.02113,0.0029 -0.03028,0.00638l-3e-005 0 -0.00245 0.00099 -3e-005 0c-0.00327,0.00136 -0.00643,0.00288 -0.00953,0.0045l-2e-005 0 -0.00228 0.00125 -3e-005 0 -0.00225 0.00131 -0.00449 0.00274 -1e-005 0 -0.00219 0.00143 -2e-005 1e-005 -0.00216 0.00146 -1e-005 2e-005 -0.00215 0.0015 -1e-005 0 -0.00213 0.00154 -2e-005 1e-005 -0.0021 0.00157 -1e-005 1e-005 -0.0021 0.0016 -1e-005 2e-005 -0.00209 0.00162 -1e-005 0 -0.00206 0.00166 -3e-005 2e-005 -0.00205 0.00168 -1e-005 0 -0.00206 0.00171 -1e-005 1e-005 -0.00204 0.00172 -2e-005 2e-005 -0.00203 0.00175 -2e-005 1e-005 -0.00204 0.00175 -1e-005 1e-005 -0.00202 0.00178 -4e-005 2e-005 -0.00202 0.00178 -1e-005 1e-005 -0.00204 0.0018 -2e-005 1e-005 -0.00203 0.00181 -3e-005 2e-005 -0.00204 0.00181 -2e-005 1e-005 -0.00205 0.00181 -2e-005 2e-005 -0.00205 0.00181 -3e-005 3e-005 -0.00207 0.00181 -1e-005 1e-005 -0.00209 0.00181 -1e-005 2e-005 -0.0021 0.00181 -1e-005 1e-005 -0.00212 0.00181 -3e-005 2e-005 -0.00213 0.00179 -1e-005 2e-005 -0.00215 0.00178 -3e-005 3e-005 -0.00216 0.00176 -3e-005 2e-005 -0.00219 0.00176 -1e-005 2e-005 -0.00222 0.00173 -2e-005 3e-005 -0.00225 0.00172 -1e-005 1e-005 -0.00229 0.00171 -1e-005 1e-005 -0.00465 0.00335 -3e-005 3e-005 -0.00432 0.00292 -0.00048 0.00032 -3e-005 1e-005 -0.00243 0.00157 -1e-005 1e-005 -0.00248 0.00154 -3e-005 2e-005 -0.00251 0.0015 -3e-005 2e-005 -0.00256 0.00146 -3e-005 3e-005 -0.0026 0.00141 -3e-005 2e-005 -0.00265 0.00138 -1e-005 1e-005 -0.00269 0.00136 -3e-005 1e-005 -0.00276 0.0013 -1e-005 1e-005 -0.0028 0.00125 -3e-005 1e-005 -0.00152 0.00066 -3e-005 1e-005 -0.00148 0.00063 -3e-005 1e-005 -0.00146 0.00061 -3e-005 2e-005 -0.0014 0.00056 -3e-005 1e-005 -0.00138 0.00057 -3e-005 1e-005 -0.00135 0.00053 -3e-005 2e-005 -0.00131 0.0005 -3e-005 2e-005 -0.00129 0.0005 -3e-005 1e-005 -0.00125 0.00047 -3e-005 2e-005 -0.00123 0.00046 -3e-005 1e-005 -0.00119 0.00044 -3e-005 2e-005 -0.00117 0.00044 -3e-005 1e-005 -0.00114 0.00041 -3e-005 2e-005 -0.00111 0.00041 -3e-005 1e-005 -0.0011 0.0004 -3e-005 2e-005 -0.00213 0.00079 -3e-005 1e-005 -0.00102 0.00037 -3e-005 1e-005 -0.00099 0.00038 -3e-005 2e-005 -0.00097 0.00036 -3e-005 2e-005 -0.00096 0.00036 -1e-005 2e-005 -0.00095 0.00036 -1e-005 2e-005 -0.00093 0.00036 -2e-005 2e-005 -0.00089 0.00036 -3e-005 2e-005 -0.00088 0.00038 -2e-005 1e-005 -0.00087 0.00037 -1e-005 1e-005 -0.00171 0.00079 -3e-005 2e-005 -0.0008 0.00039 -3e-005 2e-005 -0.00081 0.00041 -1e-005 2e-005 -0.00154 0.00083 -4e-005 3e-005 -4e-005 2e-005 -0.00076 0.00044 -1e-005 1e-005 -0.00076 0.00046 -2e-005 2e-005 -0.00074 0.00048 -2e-005 2e-005 -0.00074 0.00048 -2e-005 2e-005 -0.00073 0.00052 -1e-005 1e-005 -0.00073 0.00053 0 2e-005 -0.00073 0.00055 0 1e-005 -0.00072 0.00058 -1e-005 1e-005 -0.0007 0.00061 -2e-005 2e-005 -0.0007 0.00062 -1e-005 2e-005 -0.0007 0.00065 0 2e-005 -0.0007 0.00068 -2e-005 2e-005 -0.0007 0.00071 0 2e-005 -0.0007 0.00074 0 2e-005 -0.00069 0.00077 0 2e-005 -0.0007 0.0008 0 2e-005 -0.00069 0.00085 -1e-005 0 -0.00139 0.00182 -1e-005 0 -0.0007 0.00098 -0.0007 0.001 -2e-005 0 -0.0007 0.00105 -1e-005 0 -0.0007 0.0011 -2e-005 0 -0.0007 0.00114 -1e-005 0 -0.00072 0.00118 -1e-005 0 -0.00222 0.00382 -2e-005 1e-005 -0.00074 0.00137 -2e-005 2e-005 -0.00232 0.00442c-0.00081,0.00157 -0.00157,0.0032 -0.00232,0.00489l-1e-005 0 -0.00105 0.00257 -2e-005 0 -0.0005 0.0013 -1e-005 0 -0.00096 0.00268 -2e-005 0 -0.00045 0.00137 -2e-005 0 -0.00042 0.00138 -2e-005 0 -0.00042 0.0014 -0.00041 0.00142 -2e-005 0 -0.00038 0.00141 0 2e-005 -0.00037 0.00142 -1e-005 0 -0.00067 0.00291 -1e-005 0c-0.00054,0.00243 -0.00099,0.00491 -0.00134,0.00742l-2e-005 0 -0.00036 0.003 0 1e-005 -0.00016 0.00151 -0.00022 0.00302 -8e-005 0.00151 0 1e-005 -4e-005 0.00151 0 2e-005 -2e-005 0.00301 3e-005 0.0015 2e-005 2e-005 4e-005 0.00149 2e-005 0 7e-005 0.00149 2e-005 1e-005 0.00012 0.00148 1e-005 1e-005 0.00014 0.00148 2e-005 1e-005 0.00016 0.00146 2e-005 2e-005 0.00046 0.00292 1e-005 1e-005 0.00027 0.00145 2e-005 0c0.0003,0.00144 0.00064,0.00287 0.00103,0.00427l2e-005 2e-005c0.00039,0.00141 0.00084,0.0028 0.00135,0.00415l2e-005 0c0.00305,0.00817 0.00809,0.01542 0.01565,0.02095 0.00197,0.00146 0.00247,0.00496 0.00185,0.00977l-1e-005 3e-005 -0.00014 0.00102 -2e-005 3e-005 -0.00016 0.00106 -2e-005 3e-005 -0.0002 0.0011 -1e-005 3e-005 -0.00023 0.00114 -1e-005 3e-005 -0.00026 0.00117 -2e-005 3e-005 -0.00064 0.00245 -1e-005 3e-005 -0.00035 0.00126 0 3e-005 -0.00038 0.00129 -2e-005 3e-005 -0.00041 0.00131 -1e-005 3e-005 -0.00043 0.00134 -1e-005 3e-005 -0.00046 0.00137 0 2e-005 -0.00049 0.00139 -1e-005 2e-005 -0.0005 0.00141 -2e-005 2e-005 -0.00053 0.00143 0 3e-005 -0.00056 0.00144 0 2e-005 -0.00058 0.00146 0 3e-005 -0.00061 0.00146 0 3e-005 -0.00061 0.00148 0 3e-005 -0.00198 0.00454 0 3e-005 -0.00068 0.00152 0 2e-005 -0.00216 0.00461 0 1e-005c-0.00147,0.00309 -0.00303,0.00616 -0.00462,0.00919l-2e-005 0 -0.00159 0.00299 -2e-005 0 -0.00245 0.0044 -1e-005 0 -0.00165 0.00283 -1e-005 1e-005 -0.00082 0.00139 -2e-005 0c-0.00137,0.00229 -0.00277,0.00447 -0.00415,0.00654l-3e-005 3e-005 -0.00161 0.00238 -3e-005 3e-005 -0.00079 0.00113 -3e-005 3e-005 -0.00079 0.00109 -3e-005 3e-005 -0.00078 0.00105 -3e-005 3e-005 -0.00059 0.00078 -3e-005 3e-005 -0.00061 0.00075 -3e-005 3e-005 -0.00063 0.00073 -3e-005 1e-005 -0.00064 0.0007 -3e-005 3e-005 -0.00063 0.00067 -3e-005 3e-005 -0.00067 0.00065 -3e-005 3e-005 -0.00069 0.00061 -1e-005 3e-005 -0.00072 0.00061 -1e-005 2e-005 -0.00073 0.00058 -2e-005 3e-005 -0.00074 0.00054 -3e-005 3e-005c-0.00077,0.00055 -0.00156,0.00107 -0.00239,0.00155l-3e-005 3e-005 -0.00082 0.00046 -3e-005 2e-005 -0.00086 0.00044 -1e-005 1e-005c-0.00088,0.00044 -0.0018,0.00084 -0.00277,0.00122l-1e-005 1e-005 -0.00096 0.00035 -3e-005 2e-005c-0.00199,0.00071 -0.00414,0.00126 -0.00651,0.00172l-2e-005 1e-005 -0.00118 0.0002 -2e-005 2e-005 -0.00121 0.00018 -4e-005 1e-005 -0.00124 0.00016 -3e-005 1e-005 -0.0013 0.00014 -1e-005 1e-005 -0.00134 0.00012 -1e-005 2e-005 -0.00137 9e-005 -3e-005 2e-005 -0.00142 9e-005 -1e-005 1e-005 -0.00145 5e-005 -3e-005 1e-005 -0.00149 5e-005 -1e-005 1e-005 -0.00155 2e-005 -2e-005 1e-005 -0.00158 2e-005 -0.00166 0 -1e-005 0c-0.00224,0 -0.00457,-8e-005 -0.00706,-0.00018l-2e-005 0 -0.00187 -9e-005 -3e-005 0 -0.00191 -0.00011 -2e-005 0 -0.00197 -0.00012 -4e-005 0 -0.00412 -0.00031 -1e-005 0 -0.00215 -0.00016 -1e-005 0 -0.00219 -0.0002 -3e-005 0 -0.00225 -0.0002 -2e-005 0 -0.00231 -0.00023 -1e-005 0 -0.00238 -0.00022 -1e-005 0 -0.00242 -0.00026 -3e-005 0 -0.00248 -0.00026 -3e-005 0 -0.00254 -0.00028 -3e-005 -1e-005 -0.0026 -0.00029 -3e-005 0 -0.00268 -0.0003 -1e-005 -2e-005 -0.00274 -0.0003 -3e-005 -2e-005 -0.0028 -0.00032 -3e-005 -1e-005 -0.00286 -0.00034 -3e-005 -1e-005 -0.00293 -0.00035 -3e-005 -2e-005 -0.003 -0.00036 -3e-005 -2e-005 -0.00947 -0.00118 -0.00698 -0.00092 -2e-005 -1e-005 -0.00439 -0.00058 -2e-005 -1e-005 -0.00211 -0.00028 -3e-005 -1e-005 -0.00207 -0.00028 -3e-005 -1e-005 -0.00203 -0.00028 -3e-005 -1e-005 -0.00199 -0.00028 -1e-005 -1e-005 -0.00196 -0.00027 -2e-005 -2e-005 -0.00192 -0.00026 -1e-005 -1e-005 -0.00189 -0.00028 -1e-005 -1e-005 -0.00186 -0.00026 -1e-005 -2e-005 -0.00183 -0.00025 -1e-005 -2e-005 -0.00178 -0.00026 -2e-005 -1e-005 -0.00176 -0.00026 -2e-005 -2e-005 -0.00173 -0.00026 -2e-005 -1e-005 -0.0017 -0.00026 -1e-005 -1e-005 -0.00168 -0.00026 -1e-005 -2e-005 -0.00166 -0.00026 -0.00164 -0.00026 0 -1e-005 -0.00163 -0.00024 0 -2e-005 -0.0016 -0.00026 -0.00158 -0.00026 0 -1e-005 -0.00156 -0.00024 0 -2e-005 -0.00156 -0.00024 0 -2e-005 -0.00153 -0.00024 0 -2e-005 -0.00152 -0.00026 -0.00301 -0.0005 0 -1e-005 -0.00149 -0.00025 0 -1e-005 -0.00149 -0.00024 0 -2e-005 -0.00148 -0.00024 0 -2e-005 -0.00147 -0.00023 0 -1e-005 -0.00294 -0.0005 0 -2e-005c-0.01369,-0.0024 -0.02733,-0.00471 -0.04614,-0.00715 -0.00859,-0.00115 -0.01446,-0.00048 -0.0189,0.00119l0 2e-005c-0.00094,0.00036 -0.00183,0.00076 -0.00266,0.0012l0 1e-005 -0.00082 0.00044 0 2e-005c-0.00079,0.00047 -0.00154,0.00096 -0.00225,0.00149l0 1e-005 -0.0007 0.00054 0 1e-005 -0.00198 0.0017 0 2e-005 -0.00062 0.00058 0 1e-005 -0.00183 0.00183 0 1e-005 -0.00061 0.00061 0 2e-005 -0.0012 0.00124 -0.00061 0.00063 -0.00062 0.00062 -0.00062 0.00061 -0.00066 0.00062 -0.00065 0.0006 -0.00069 0.00059 -0.0007 0.00058 -1e-005 0 -0.00072 0.00056 -1e-005 0 -0.00154 0.00108 0 1e-005 -0.00082 0.00051 -1e-005 0c-0.00113,0.00066 -0.00233,0.00129 -0.00367,0.00182l-1e-005 0c-0.00438,0.00176 -0.01007,0.00272 -0.01812,0.00222l-6e-005 -1e-005 -0.00383 -0.00032 -8e-005 -2e-005 -0.00418 -0.00053c-0.00742,-0.00113 -0.01364,-0.00259 -0.0189,-0.00426l-0.00151 -0.00047 -4e-005 -3e-005c-0.00151,-0.0005 -0.00294,-0.00102 -0.00429,-0.00157l-3e-005 -1e-005 -0.00262 -0.00113 -0.00121 -0.00055 -2e-005 -1e-005c-0.00283,-0.00134 -0.00526,-0.00275 -0.0074,-0.0042l-2e-005 -1e-005 -0.00088 -0.00061 -2e-005 -2e-005 -0.00086 -0.00064 -0.00082 -0.0006 0 -2e-005 -0.0008 -0.00061 -1e-005 -3e-005 -0.00149 -0.00124 0 -2e-005 -0.0007 -0.00062 -2e-005 -2e-005 -0.00194 -0.00188 -2e-005 -2e-005 0 -1e-005 -0.00118 -0.00124 0 -1e-005 -0.00057 -0.00061 0 -2e-005 -0.00054 -0.0006 0 -2e-005c-0.00107,-0.00122 -0.00204,-0.00243 -0.00294,-0.00357l-1e-005 -3e-005 -0.00133 -0.00168 0 -1e-005 -0.00042 -0.00053 -2e-005 -2e-005 -0.00042 -0.00052 0 -1e-005 -0.00171 -0.00199 0 -2e-005 -0.00042 -0.00044 -2e-005 -3e-005 -0.00042 -0.00043 -2e-005 -3e-005 -0.00043 -0.00041 -1e-005 -3e-005 -0.00044 -0.00038 -2e-005 -3e-005 -0.00044 -0.00038 -1e-005 -3e-005 -0.00012 -9e-005c-0.00189,-0.00112 -0.00289,-0.0019 -0.00289,-0.0019l-3e-005 -3e-005c-0.01079,-0.00546 -0.00533,0.00456 -0.01305,0.00328 -0.04657,-0.00789 -0.03976,0.0141 -0.04194,0.02887 -0.00253,0.01657 -0.03086,-0.04985 -0.00533,-0.07216 0.01707,-0.01481 -0.01501,-0.00656 -0.02687,0.00134 -0.00526,0.00354 0,-0.03214 0.01186,-0.04593 0.01603,-0.01866 0.003,-0.01834 -0.00725,-0.02097 -0.01592,-0.00408 -0.02033,-0.00392 -0.03534,0.00128 -0.00849,0.00296 0.00932,-0.02403 0.03669,-0.03535 0.02193,-0.00912 0.05194,-0.00354 0.0655,0.00064 0.05081,0.01562 0.05253,0.02881 0.10629,0.06036 0.02247,0.01314 0.06845,0.01626 0.08122,0.01309 0.03148,-0.00789 0.07601,-0.01792 0.06824,-0.03675 -0.00826,-0.02001 -0.01964,-0.06947 -0.03407,-0.12849 -0.0132,-0.05397 -0.01689,-0.10381 0.0222,-0.14292 0.00784,-0.00773 0.06567,-0.02581 0.07609,-0.02886 0.06953,-0.0205 0.12027,-0.03311 0.19163,-0.05253 0.00497,-0.00138 0.01201,-0.00871 0.01478,-0.01389 0.00079,-0.00232 0.00103,-0.00404 0.00106,-0.0043l0 -4e-005 -1e-005 0c-0.01309,-0.03177 -0.02333,-0.06664 -0.0443,-0.09277l-2e-005 0 -0.00176 -0.00221 -2e-005 0 -0.00176 -0.00219 -1e-005 0 -0.00178 -0.00219 -2e-005 0 -0.00178 -0.00219 -1e-005 0 -0.0018 -0.00217 -1e-005 0 -0.00181 -0.00216 -2e-005 0 -0.00181 -0.00216 -1e-005 0 -0.00183 -0.00216 -1e-005 0 -0.00184 -0.00214 -2e-005 0 -0.00184 -0.00213 -1e-005 0 -0.00184 -0.00215 -2e-005 0 -0.00185 -0.00212 -2e-005 0 -0.00187 -0.00212 -0.00187 -0.00211 -2e-005 0 -0.00188 -0.00212 -2e-005 0 -0.00188 -0.00211 -2e-005 0 -0.00188 -0.0021 -2e-005 0 -0.0019 -0.00208 -1e-005 0 -0.00191 -0.0021 -1e-005 0 -0.0019 -0.00208 -2e-005 0 -0.00191 -0.00209 -2e-005 0 -0.00191 -0.00208 -2e-005 0 -0.00193 -0.00207 -2e-005 0 -0.00193 -0.00207 -1e-005 0 -0.00193 -0.00207 -2e-005 0 -0.00193 -0.00206 -2e-005 0 -0.00194 -0.00206 -2e-005 0 -0.00194 -0.00205 -2e-005 0 -0.00195 -0.00205 -1e-005 0 -0.00196 -0.00206 -2e-005 0 -0.00196 -0.00205 -0.00198 -0.00204 -0.00197 -0.00205 -0.00198 -0.00204 -2e-005 0 -0.00196 -0.00204 -1e-005 0 -0.00198 -0.00203 -2e-005 0 -0.00197 -0.00204 -0.00199 -0.00204 -0.002 -0.00202 0 -2e-005 -0.00199 -0.00202 -0.00199 -0.00204 -0.00199 -0.00202 0 -1e-005 -0.002 -0.00203 -0.00199 -0.00202 0 -2e-005 -0.00199 -0.00202 -0.00199 -0.00204 -0.00199 -0.00202 -2e-005 -1e-005 -0.00198 -0.00203 -1e-005 0 -0.00198 -0.00202 -1e-005 -1e-005 -0.00198 -0.00203 -2e-005 -1e-005 -0.00197 -0.00202 -2e-005 0 -0.00198 -0.00204 -0.00197 -0.00204 -2e-005 0 -0.00197 -0.00204 -2e-005 -1e-005 -0.00196 -0.00203 -2e-005 -1e-005 -0.00196 -0.00202 -1e-005 -2e-005 -0.00197 -0.00204 -3e-005 -1e-005 -0.00194 -0.00202 -2e-005 -2e-005 -0.00196 -0.00204 -1e-005 -1e-005 -0.00195 -0.00204 -3e-005 -2e-005 -0.00193 -0.00203 -3e-005 -2e-005 -0.00193 -0.00205 -4e-005 -2e-005 -0.00193 -0.00203 -3e-005 -2e-005 -0.00191 -0.00205 -3e-005 -2e-005 -0.00155 -0.00164 -3e-005 -2e-005 -0.00157 -0.00164 -3e-005 -1e-005 -0.00158 -0.00163 -3e-005 -2e-005 -0.0016 -0.00161 -3e-005 -1e-005 -0.00491 -0.00482 -3e-005 -2e-005 -0.00499 -0.00474 -3e-005 -2e-005 -0.00166 -0.00157 -3e-005 -1e-005 -0.00675 -0.00625 -3e-005 -2e-005 -0.00336 -0.0031 -3e-005 -1e-005 -0.00336 -0.00311 -4e-005 -1e-005 -0.00165 -0.00155 -3e-005 -2e-005c-0.00505,-0.00468 -0.01001,-0.00937 -0.0148,-0.01419l-3e-005 -1e-005 -0.00313 -0.00321 -3e-005 -2e-005 -0.00152 -0.00161 -3e-005 -1e-005 -0.00151 -0.00163 -3e-005 -1e-005c-0.00611,-0.00657 -0.01176,-0.01342 -0.01664,-0.02073 -0.00274,-0.00365 -0.00477,-0.007 -0.00596,-0.00998 -0.00471,-0.00886 -0.00824,-0.01848 -0.01013,-0.02914l-0.00109 0.00072 0 1e-005 -0.00117 0.00081 0 1e-005 -0.00127 0.00089 0 1e-005 -0.00133 0.00098 0 1e-005 -0.00289 0.00218 -2e-005 1e-005 -0.00486 0.00382 -2e-005 3e-005 -0.00175 0.00138 0 2e-005 -0.00181 0.00144 -1e-005 3e-005 -0.00187 0.00151 -2e-005 3e-005 -0.00192 0.00156 -1e-005 2e-005 -0.00196 0.00163 -2e-005 1e-005 -0.00202 0.00168 -2e-005 1e-005 -0.00208 0.00172 -1e-005 3e-005 -0.00212 0.00176 -1e-005 2e-005 -0.00216 0.00181 -2e-005 3e-005 -0.0022 0.00184 -2e-005 1e-005 -0.00223 0.0019 -2e-005 2e-005 -0.00227 0.00192 -1e-005 1e-005 -0.00231 0.00196 -2e-005 2e-005 -0.00234 0.00199 -1e-005 2e-005 -0.00236 0.002 -3e-005 2e-005 -0.00239 0.00204 -1e-005 1e-005 -0.00019 0.00015 -0.00468 0.00402 -2e-005 0 -0.00244 0.0021 -2e-005 1e-005 -0.00246 0.00212 -2e-005 0 -0.00499 0.00427 -1e-005 0 -0.00502 0.00429 -2e-005 0c-0.02597,0.02219 -0.05243,0.04427 -0.06654,0.05278 -0.01594,0.00955 -0.03903,0.02249 -0.06153,0.03474l0 1e-005 -0.00546 0.00295 0 2e-005 -0.00181 0.00097 0 2e-005 -0.00539 0.00289 0 1e-005 -0.00178 0.00094 0 2e-005 -0.00352 0.00187 0 1e-005 -0.00175 0.00093 -0.00174 0.00093 -0.00171 0.00091 -0.00171 0.00091 -1e-005 0 -0.00169 0.0009 -0.00167 0.00088 -0.00166 0.00089 -0.00164 0.00085 0 1e-005 -0.00162 0.00085 -0.00159 0.00084 -2e-005 0 -0.00156 0.00082 -2e-005 0 -0.00155 0.00082 -0.00154 0.00079 -0.0015 0.00079 -2e-005 0 -0.00147 0.00078 -0.00146 0.00075 -2e-005 0 -0.00141 0.00074 -2e-005 0 -0.00134 -0.0024 -1e-005 0 -0.00062 -0.00122 -2e-005 0 -0.00058 -0.00122 -1e-005 0 -0.00057 -0.00121 -1e-005 0 -0.00053 -0.00123 -2e-005 0 -0.0005 -0.00125 -1e-005 0 -0.00095 -0.00249 -1e-005 0 -0.00123 -0.00379 -2e-005 0 -0.00035 -0.00128 -1e-005 0 -0.00066 -0.00257 -1e-005 0 -0.00028 -0.00129 -1e-005 0 -0.00052 -0.0026 0 -2e-005 -0.00023 -0.00129 0 -1e-005 -0.00021 -0.00131 -0.00018 -0.00133 -0.00017 -0.00132 0 -1e-005 -0.00015 -0.00133 -0.00012 -0.00134 -0.00011 -0.00133 -9e-005 -0.00136 -8e-005 -0.00135 -6e-005 -0.00135 -3e-005 -0.00137 -1e-005 0 -2e-005 -0.00136 0 -1e-005 0 -0.00137 0 -0.00137 0 -1e-005 2e-005 -0.00137 1e-005 0 8e-005 -0.00279 1e-005 0 0.00021 -0.00419 2e-005 0 0.0002 -0.00282 1e-005 0 0.00011 -0.00141 1e-005 0 0.00026 -0.00284 2e-005 0 0.00013 -0.00143 2e-005 0 0.00015 -0.00143 2e-005 0 0.00015 -0.00143 1e-005 0 0.00017 -0.00145 2e-005 0 0.00056 -0.00433 2e-005 0 0.00018 -0.00145 1e-005 0 0.0002 -0.00146 2e-005 0 0.00065 -0.00438 0.00023 -0.00146 0.00023 -0.00147 0.00022 -0.00146 2e-005 0 0.00023 -0.00148 0.00024 -0.00147 0.00023 -0.00148 0.00024 -0.00149 0.00023 -0.00147 2e-005 0 0.00022 -0.00149 -0.00065 0.00027 -0.00065 0.00029 -0.00066 0.00027 -0.00064 0.00028 0 1e-005c-0.01008,0.00444 -0.01882,0.00923 -0.02661,0.01486l0 2e-005 -0.00099 0.0007 0 1e-005 -0.00049 0.00035 0 2e-005 -0.00048 0.00036 -0.00049 0.00037 0 1e-005 -0.00047 0.00037 -2e-005 0 -0.00047 0.00036 -1e-005 2e-005 -0.00046 0.00036 -1e-005 2e-005 -0.00046 0.00036 -1e-005 2e-005 -0.00046 0.00036 -2e-005 2e-005 -0.00045 0.00038 -2e-005 1e-005 -0.00045 0.00037 -2e-005 1e-005 -0.00044 0.00038 -3e-005 2e-005 -0.00129 0.00114 -3e-005 1e-005 -0.00125 0.00114 -3e-005 2e-005 -0.00119 0.00117 -1e-005 2e-005 -0.00114 0.00118 -3e-005 2e-005 -0.00108 0.00121 -2e-005 0 -0.00103 0.00124 -3e-005 1e-005 -0.00098 0.00123 -3e-005 2e-005 -0.00092 0.00124 -2e-005 2e-005c-0.00217,0.00296 -0.00394,0.00605 -0.0054,0.00923l-1e-005 0 -0.0006 0.00137 -1e-005 1e-005c-0.00079,0.00184 -0.00145,0.00368 -0.00205,0.00559l-2e-005 1e-005 -0.00082 0.00284 -2e-005 2e-005 -0.0007 0.00289 -1e-005 0 -0.00031 0.00146 -1e-005 0 -0.00027 0.00147 -2e-005 0 -0.0005 0.00295 -2e-005 2e-005 -0.00059 0.00449 -1e-005 1e-005 -0.00043 0.00453 -2e-005 2e-005 -0.0001 0.0015 -2e-005 2e-005 -9e-005 0.00152 -1e-005 0 -0.00017 0.00307 -2e-005 0 -6e-005 0.00154 -1e-005 1e-005 -0.00023 0.00618 -2e-005 0 -9e-005 0.00308 -1e-005 2e-005 -9e-005 0.00309 -2e-005 1e-005 -4e-005 0.00154 -2e-005 1e-005 -5e-005 0.00154 -1e-005 1e-005 -0.00021 0.00463 -2e-005 0 -7e-005 0.00153 -2e-005 2e-005 -0.0002 0.00307 -1e-005 0 -0.00012 0.00152 -2e-005 2e-005 -0.00012 0.00152 -2e-005 0 -0.00015 0.00152 -1e-005 0 -0.00016 0.00152 -1e-005 0 -0.00018 0.00152 -2e-005 0 -0.00044 0.00301 -1e-005 0 -0.00025 0.00149 -1e-005 0 -0.00028 0.00149 -1e-005 0 -0.00129 6e-005 -2e-005 0 -0.00128 2e-005 -0.00131 -2e-005 -1e-005 0 -0.00129 -6e-005 -2e-005 0c-0.0161,-0.00099 -0.03239,-0.0106 -0.04751,-0.01066l-0.00118 0 -5e-005 2e-005 -0.00117 4e-005 -5e-005 2e-005 -0.00117 9e-005 -3e-005 1e-005 -0.00117 0.00014 -4e-005 1e-005 -0.00116 0.0002 -4e-005 2e-005 -0.00115 0.00023 -4e-005 1e-005 -0.00114 0.00031 -6e-005 1e-005 -0.00113 0.00035 -4e-005 2e-005 -0.00113 0.00041 -6e-005 1e-005 -0.00111 0.00047 -6e-005 2e-005 -0.00111 0.00055 -5e-005 1e-005 -0.00111 0.00059 -4e-005 2e-005c-0.0042,0.00239 -0.00824,0.00613 -0.01215,0.01171 0.00231,0.0036 0.00483,0.00704 0.00733,0.01036l1e-005 0 0.00123 0.00165 2e-005 0 0.0004 0.00055 1e-005 0 0.00122 0.00163 1e-005 0 0.0004 0.00054 1e-005 0 0.0004 0.00054 0.00039 0.00054 0.0004 0.00054 0.00039 0.00054 0.00038 0.00054 2e-005 0 0.00038 0.00053 0.00038 0.00055 0.00036 0.00053 0.00039 0.00053 0.00034 0.00053 2e-005 0 0.00035 0.00054 0.00035 0.00053 1e-005 0 0.00034 0.00055 0.00033 0.00053 2e-005 0 0.00032 0.00053 1e-005 0 0.00032 0.00053 0.00032 0.00053 0.00031 0.00054 1e-005 0 0.00029 0.00054 2e-005 0 0.00027 0.00054 1e-005 0 0.00028 0.00053 1e-005 0 0.00028 0.00055 0.00026 0.00053 1e-005 0 0.00026 0.00055 0.00024 0.00053 2e-005 0 0.00023 0.00055 1e-005 0 0.00021 0.00053 2e-005 0 0.00021 0.00055 0.00022 0.00054 0.00019 0.00055 0.00019 0.00055 1e-005 0 0.00017 0.00054 0.00017 0.00057 0.00015 0.00055 0.00013 0.00056 2e-005 0 0.00012 0.00055 0.00011 0.00056 1e-005 0 9e-005 0.00056 2e-005 0 0.00014 0.00105 1e-005 0 5e-005 0.00053 1e-005 0 3e-005 0.00053 2e-005 0 3e-005 0.00216 0 0.00054 -2e-005 1e-005 -1e-005 0.00053 -2e-005 2e-005 -3e-005 0.00053 -1e-005 2e-005 -3e-005 0.00053 -2e-005 1e-005 -4e-005 0.00054 -2e-005 1e-005 -6e-005 0.00053 -2e-005 2e-005 -6e-005 0.00055 -1e-005 1e-005 -8e-005 0.00053 -1e-005 2e-005 -8e-005 0.00055 -1e-005 1e-005 -0.00022 0.0011 -1e-005 3e-005 -0.00011 0.00053 -1e-005 3e-005 -0.00013 0.00053 -1e-005 3e-005 -0.00012 0.00053 -2e-005 3e-005 -0.00044 0.00168 -1e-005 3e-005 -0.00016 0.00053 -1e-005 3e-005 -0.00015 0.00055 -2e-005 3e-005 -0.00017 0.00055 -1e-005 1e-005 -0.00035 0.00113 -2e-005 1e-005 -0.00077 0.00228 -2e-005 3e-005 -0.00039 0.00113 -2e-005 1e-005 -0.00019 0.00057 -2e-005 1e-005 -0.00196 0.0052 -2e-005 2e-005 -0.00042 0.00114 -2e-005 1e-005 -0.00085 0.00232 -1e-005 0c-0.00084,0.00231 -0.00159,0.00459 -0.00227,0.0069l-3e-005 0 -0.0004 -0.00017 -3e-005 0 -0.00039 -0.00016 -3e-005 0 -0.00087 -0.00039 -3e-005 0 -0.0009 -0.00041 -3e-005 0 -0.00044 -0.00022 -3e-005 0 -0.00094 -0.00046 -3e-005 0 -0.00046 -0.00024 -3e-005 0 -0.00099 -0.00051 -3e-005 0 -0.00099 -0.00053 -3e-005 0c-0.00777,-0.00404 -0.01715,-0.01025 -0.02301,-0.0147l-1e-005 0 -0.0011 -0.00087 -1e-005 0 -0.00035 -0.00027 -2e-005 0 -0.00032 -0.00028 -1e-005 0 -0.00116 -0.00094 -1e-005 0 -0.00114 -0.00091 -2e-005 0 -0.00109 -0.0009 -2e-005 0 -0.00106 -0.00087 -2e-005 0 -0.00105 -0.00085 -1e-005 0 -0.00101 -0.00082 -1e-005 0 -0.00099 -0.00081 -1e-005 0 -0.00096 -0.00077 -2e-005 0 -0.00094 -0.00078 -2e-005 0 -0.00091 -0.00074 -1e-005 0 -0.0009 -0.00072 -0.00088 -0.00071 -0.00087 -0.00069 -0.00084 -0.00068 -1e-005 0 -0.00082 -0.00065 -0.00081 -0.00064 -1e-005 0 -0.00157 -0.00125 -0.00076 -0.00059 -2e-005 0 -0.00074 -0.0006 -0.00075 -0.00056 0 -1e-005 -0.00074 -0.00055 0 -2e-005 -0.00072 -0.00054 -0.00071 -0.00054 -2e-005 0 -0.0007 -0.00053 -0.00071 -0.00052 0 -1e-005 -0.0007 -0.0005 0 -2e-005 -0.0007 -0.00048 0 -2e-005 -0.00068 -0.00049 -2e-005 0 -0.00068 -0.00048 -2e-005 -2e-005 -0.00068 -0.00047 -2e-005 -1e-005 -0.00068 -0.00048 -2e-005 0 -0.00068 -0.00047 -2e-005 0 -0.00068 -0.00047 -2e-005 0 -0.0014 -0.00093 -3e-005 -1e-005 -0.0007 -0.00044 -1e-005 -2e-005 -0.00072 -0.00045 -1e-005 0 -0.00146 -0.00092 -3e-005 -1e-005 -0.00073 -0.00044 -3e-005 -2e-005 -0.00075 -0.00044 -3e-005 -1e-005 -0.00076 -0.00046 -3e-005 0 -0.00076 -0.00046 -4e-005 -1e-005 -0.00333 -0.00187 -5e-005 -2e-005 -0.00181 -0.00097 -0.00088 -0.00047 -6e-005 -2e-005 -0.0009 -0.00048 -6e-005 -2e-005 -0.00093 -0.0005 -6e-005 -2e-005 -0.00094 -0.0005 -6e-005 -1e-005 -0.00098 -0.00052 -6e-005 -2e-005c-0.00314,-0.00158 -0.00667,-0.00331 -0.01076,-0.00524 -0.00341,-0.00163 -0.00656,-0.00303 -0.00954,-0.0042l-7e-005 -2e-005c-0.00169,-0.00066 -0.0033,-0.00127 -0.00487,-0.0018l-8e-005 -2e-005 -0.00111 -0.00038 -7e-005 -2e-005 -0.00108 -0.00035 -8e-005 -1e-005 -0.00106 -0.00034 -8e-005 -1e-005 -0.00105 -0.0003 -6e-005 -2e-005 -0.00211 -0.00056 -8e-005 -2e-005 -0.00099 -0.00024 -6e-005 0 -0.00099 -0.00023 -6e-005 -1e-005 -0.00097 -0.0002 -5e-005 -2e-005 -0.00096 -0.00018 -6e-005 0 -0.00092 -0.00017 -6e-005 -1e-005 -0.00093 -0.00014 -5e-005 -1e-005 -0.00091 -0.00013 -5e-005 0 -0.00091 -0.0001 -4e-005 -2e-005 -0.00089 -9e-005 -4e-005 0 -0.00088 -7e-005 -5e-005 0 -0.00087 -7e-005 -4e-005 0 -0.00085 -3e-005 -5e-005 -1e-005 -0.00085 -2e-005 -3e-005 -1e-005 -0.00085 0 -2e-005 0 -0.00255 6e-005 -2e-005 0c-0.0014,8e-005 -0.00278,0.0002 -0.00412,0.00038l0 1e-005 -0.00081 0.00011 0 2e-005 -0.0008 0.0001 0 2e-005 -0.00079 0.00012 0 1e-005 -0.00079 0.00014 -2e-005 2e-005 -0.00156 0.00032 -2e-005 1e-005 -0.00155 0.00035 -3e-005 2e-005 -0.00076 0.00018 -2e-005 1e-005c-0.00421,0.00107 -0.00839,0.0025 -0.013,0.00402 -0.00274,0.00076 -0.00626,0.0021 -0.01023,0.00362l-5e-005 3e-005 -0.00129 0.00049 -5e-005 3e-005 -0.00342 0.00129 -5e-005 3e-005 -0.00501 0.00181 -3e-005 1e-005 -0.00145 0.00049 -3e-005 2e-005 -0.0007 0.00022 -3e-005 2e-005 -0.00146 0.00046 -1e-005 1e-005 -0.00072 0.00021 -3e-005 2e-005 -0.00071 0.0002 -3e-005 1e-005 -0.00072 0.0002 -1e-005 1e-005 -0.00072 0.0002 -3e-005 2e-005 -0.00071 0.00018 -2e-005 1e-005 -0.00071 0.00019 -4e-005 1e-005 -0.00069 0.00017 -4e-005 2e-005 -0.00069 0.00015 -3e-005 1e-005 -0.0007 0.00015 -3e-005 2e-005 -0.0007 0.00014 -2e-005 1e-005 -0.0007 0.00014 -3e-005 0 -0.00068 0.00014 -3e-005 0 -0.00069 0.00012 -3e-005 0 -0.00068 0.0001 -2e-005 0 -0.00068 9e-005 -2e-005 0 -0.00068 0.0001 -2e-005 0 -0.00067 6e-005 -3e-005 1e-005 -0.00065 5e-005 -3e-005 0 -0.00066 4e-005 -1e-005 0 -0.00065 3e-005 -2e-005 0 -0.00064 2e-005 -3e-005 0 -0.00064 0 -1e-005 0 -0.00063 -2e-005 -1e-005 0 -0.00063 -3e-005 -1e-005 0 -0.00061 -6e-005 -1e-005 0 -0.00061 -6e-005 -2e-005 0 -0.00059 -9e-005 -2e-005 0 -0.00076 -0.00014 -1e-005 0 -0.00076 -0.00013 -2e-005 0 -0.00076 -0.00017 -1e-005 0 -0.00076 -0.00017 -3e-005 0 -0.00076 -0.00018 -3e-005 0 -0.00157 -0.00043 -2e-005 0 -0.00079 -0.00022 -1e-005 0 -0.00079 -0.00025 -2e-005 0 -0.0008 -0.00026 -2e-005 0 -0.00079 -0.00027 -1e-005 0 -0.00247 -0.0009 -1e-005 0 -0.00165 -0.00067 -3e-005 0 -0.00249 -0.00111 -2e-005 0c-0.01265,-0.00582 -0.02617,-0.0163 -0.03836,-0.03114l6e-005 3e-005 -5e-005 -5e-005c-0.06684,-0.01116 -0.05832,0.0308 -0.05832,0.0308 -0.03803,-0.05504 0.00172,-0.0625 -0.00338,-0.07017 -0.00912,-0.01373 -0.02939,0.00134 -0.02939,0.00134 0,0 -0.00199,-0.01577 0.0111,-0.05376 0.01095,-0.03165 -0.04523,-0.00788 -0.0413,-0.01968 0.00804,-0.02398 0.05047,-0.03342 0.06356,-0.03342 0.06917,0 0.11192,0.06261 0.16117,0.07156 0.03267,0.00595 0.06079,-0.00371 0.0853,-0.02264 0.02388,-0.01845 0.04651,-0.03916 0.06669,-0.06159 0.04372,-0.04839 0.05503,-0.10171 0.11159,-0.13836 0.01662,-0.01084 0.02725,-0.01051 0.02842,-0.01471 -0.00579,-0.00197 -0.02988,-0.01142 -0.04973,-0.0223 -0.01753,-0.00962 -0.02548,-0.02426 -0.02548,-0.02426 0.02205,-0.00707 0.06857,-0.02452 0.08691,-0.03803 0.03353,-0.02473 0.04845,-0.04046 0.05371,-0.06138 0.00088,-0.00353 0.00175,-0.00834 0.00201,-0.01278l-5e-005 -0.00027c5e-005,-0.00306 0.00011,-0.00573 -0.00038,-0.00692 -0.00021,-0.00062 -0.00055,-0.0012 -0.00099,-0.00173l-0.0001 -0.00011 -5e-005 -6e-005 -0.00011 -0.00011 -0.00057 -0.00061 -5e-005 -4e-005 -0.00014 -0.00014 -3e-005 -1e-005 -0.00016 -0.00015 -0.00149 -0.00121 -8e-005 -4e-005 -0.00035 -0.00025 -5e-005 -4e-005 -0.00012 -8e-005 -0.0001 -7e-005 -6e-005 -5e-005 -0.00224 -0.00132 -3e-005 -3e-005 -0.0004 -0.0002 -0.0001 -5e-005 -2e-005 -1e-005 -0.00013 -6e-005 -0.00013 -6e-005 -1e-005 -2e-005 -0.00014 -6e-005 -0.0001 -4e-005 -3e-005 -2e-005 -0.00014 -6e-005 -0.00011 -5e-005 -3e-005 -1e-005 -0.00014 -6e-005 -0.0001 -5e-005 -3e-005 -1e-005 -0.00014 -6e-005 -9e-005 -5e-005 -6e-005 -1e-005 -0.00014 -6e-005 -7e-005 -5e-005 -6e-005 -2e-005 -0.00016 -6e-005 -6e-005 -3e-005 -7e-005 -3e-005 -0.00016 -6e-005 -0.00027 -0.0001 -3e-005 -2e-005 -0.00012 -5e-005 -0.00014 -4e-005 -1e-005 -2e-005 -0.00014 -4e-005 -0.0004 -0.00015 -3e-005 0 -0.00013 -5e-005 -9e-005 -5e-005 -5e-005 0 -0.00014 -4e-005 -7e-005 -3e-005 -8e-005 -2e-005 -0.00014 -4e-005 -4e-005 -2e-005 -9e-005 -3e-005 -0.00014 -4e-005 -3e-005 0 -0.00011 -3e-005 -0.00013 -5e-005 -2e-005 0 -0.0001 -3e-005 -0.00014 -5e-005 -0.00014 -3e-005 -0.00011 -3e-005 -1e-005 0 -0.00014 -3e-005 -9e-005 -1e-005 -3e-005 -2e-005 -0.00012 -3e-005 -9e-005 -1e-005 -3e-005 -2e-005 -0.00012 -1e-005 -0.0001 -2e-005 -3e-005 -1e-005 -0.00077 -0.00014 -2e-005 -2e-005 -0.00077 -0.00013 -3e-005 -2e-005 -0.00078 -0.00013 -1e-005 0 -0.00078 -0.00014 -3e-005 -2e-005 -0.00077 -0.00013 -2e-005 0 -0.00079 -0.00014 -2e-005 0 -0.00077 -0.00015 -2e-005 0 -0.00079 -0.00014 -1e-005 0 -0.00079 -0.00012 0 -2e-005 -0.0016 -0.00025 0 -2e-005 -0.00079 -0.00012 -0.00081 -0.00012 0 -2e-005 -0.00079 -0.00011 0 -1e-005 -0.00079 -0.00012 -1e-005 -2e-005 -0.00079 -0.0001 0 -2e-005 -0.0008 -0.00011 0 -1e-005 -0.00079 -0.00011 0 -1e-005 -0.00079 -0.00011 -1e-005 -1e-005 -0.00078 -0.00011 -1e-005 -2e-005 -0.00078 -0.0001 -1e-005 -2e-005 -0.00155 -0.00021 -2e-005 -2e-005 -0.00157 -0.00021 -1e-005 -1e-005 -0.00233 -0.00032 -1e-005 -2e-005 -0.00076 -9e-005 -2e-005 -1e-005 -0.00076 -0.0001 -3e-005 -1e-005 -0.00075 -9e-005 -3e-005 -2e-005 -0.00074 -9e-005 -3e-005 -1e-005 -0.00075 -9e-005 -1e-005 -2e-005 -0.00228 -0.00029 -3e-005 -1e-005 -0.00073 -0.0001 -3e-005 -1e-005 -0.00149 -0.00018 -3e-005 -2e-005 -0.00148 -0.00018 -3e-005 -2e-005 -0.00148 -0.00018 -1e-005 -1e-005 -0.00073 -8e-005 -2e-005 -2e-005 -0.00071 -7e-005 -3e-005 -2e-005 -0.00072 -9e-005 -3e-005 -1e-005 -0.0007 -8e-005 -3e-005 -1e-005 -0.0007 -8e-005 -3e-005 -2e-005 -0.0007 -7e-005 -3e-005 -2e-005 -0.0007 -9e-005 -3e-005 0 -0.0007 -9e-005 -3e-005 0 -0.00068 -9e-005 -3e-005 0 -0.00068 -9e-005 -4e-005 0 -0.00068 -9e-005 -3e-005 0 -0.00068 -9e-005 -3e-005 0 -0.00067 -0.0001 -3e-005 0 -0.00067 -9e-005 -3e-005 0 -0.00481 -0.00064 -0.00035 -3e-005 -0.0003 2e-005 -3e-005 1e-005 -0.00029 5e-005 -2e-005 2e-005 -0.00027 9e-005 -2e-005 1e-005 -0.00026 0.00015 -1e-005 2e-005 -0.00024 0.00017 -2e-005 1e-005 -0.00021 0.00023 -2e-005 2e-005 -0.00021 0.00025 -2e-005 2e-005 -0.00018 0.00029 -1e-005 1e-005 -0.00019 0.00034 0 1e-005 -0.00016 0.00037 0 1e-005 -0.00017 0.00038 0 2e-005 -0.00027 0.0009 0 1e-005 -0.00025 0.00099 0 1e-005 -0.00019 0.0011 0 1e-005c-0.00113,0.00706 -0.00046,0.01869 -0.0051,0.02122l-0.00038 0.00017 0 1e-005 -0.00041 0.00012 0 2e-005 -0.00044 7e-005 0 2e-005 -0.00046 5e-005 0 1e-005 -0.00048 0c-0.00067,-3e-005 -0.00142,-0.00017 -0.00224,-0.00046l-0.00105 -0.00047 -3e-005 0 -0.00024 -0.00013 -3e-005 0 -0.00025 -0.00016 -0.00079 -0.00048 -3e-005 -2e-005 -0.00024 -0.00017 -3e-005 -1e-005 -0.00023 -0.00017 -3e-005 -1e-005 -0.00024 -0.00019 -3e-005 -1e-005 -0.00023 -0.00018 -3e-005 -2e-005 -0.00023 -0.0002 -3e-005 -1e-005 -0.00023 -0.0002 -3e-005 -1e-005 -0.00024 -0.00022 -3e-005 -1e-005 -0.00023 -0.00021 -3e-005 -2e-005 -0.00023 -0.00021 -3e-005 -2e-005 -0.00023 -0.00023 -3e-005 -1e-005 -0.00023 -0.00023 -3e-005 -1e-005 -0.00047 -0.00048 -3e-005 -3e-005 -0.00023 -0.00022 -3e-005 -4e-005 -0.00023 -0.00024 -3e-005 -1e-005 -0.00021 -0.00025 -3e-005 -3e-005 -0.00023 -0.00024 -3e-005 -2e-005 -0.00021 -0.00025 -3e-005 -2e-005 -0.00047 -0.00053 -3e-005 -3e-005 -0.00022 -0.00025 -3e-005 -3e-005 -0.00021 -0.00025 -3e-005 -4e-005 -0.00046 -0.00054 -3e-005 -2e-005 -0.00021 -0.00027 -3e-005 -2e-005 -0.00021 -0.00027 -3e-005 -2e-005c-0.00233,-0.00279 -0.00446,-0.00574 -0.00631,-0.0078 -0.00552,-0.00622 -0.01016,-0.01285 -0.01433,-0.01975l0 -2e-005 -0.00087 -0.00143 0 -1e-005 -0.00042 -0.00072 0 -1e-005 -0.00041 -0.0007 0 -2e-005 -0.00043 -0.00071 0 -2e-005 -0.00041 -0.00071 0 -2e-005 -0.00041 -0.00071 0 -2e-005 -0.00041 -0.00071 0 -2e-005 -0.0004 -0.00073 -1e-005 -1e-005 -0.0004 -0.00072 0 -1e-005 -0.00039 -0.00073 0 -2e-005 -0.0004 -0.00073 0 -1e-005 -0.00038 -0.00072 -1e-005 -1e-005 -0.00038 -0.00073 -2e-005 -2e-005 -0.00038 -0.00074 -1e-005 -2e-005 -0.00037 -0.00073 -1e-005 -1e-005 -0.00037 -0.00073 -1e-005 -2e-005 -0.00037 -0.00074 -1e-005 -2e-005 -0.00037 -0.00073 -1e-005 -1e-005 -0.00073 -0.00151 -2e-005 -1e-005c-0.00175,-0.00353 -0.00342,-0.00712 -0.00506,-0.01076 -0.00098,-0.00211 -0.00301,-0.00699 -0.00571,-0.01149l-1e-005 0 -0.00114 -0.00183 -2e-005 0 -0.0012 -0.00173 -1e-005 0 -0.00061 -0.00082 -2e-005 0 -0.0003 -0.0004 -2e-005 0 -0.00032 -0.00038 -1e-005 0 -0.00031 -0.00038 -1e-005 0 -0.00032 -0.00035 -1e-005 0 -0.00098 -0.00099 -1e-005 0 -2e-005 -1e-005 -0.00032 -0.00029 -1e-005 -2e-005 -3e-005 -1e-005 -0.00061 -0.00049 -3e-005 -3e-005 -2e-005 -1e-005 -0.00033 -0.00023 -2e-005 -2e-005 -0.00033 -0.00022 -2e-005 0 -0.00033 -0.0002 -2e-005 -2e-005 -0.00033 -0.00018 -2e-005 -2e-005 -0.00033 -0.00015 -2e-005 -1e-005 -0.00033 -0.00014 -2e-005 0 -0.00035 -0.00012 -1e-005 -2e-005 -0.00034 -7e-005 -1e-005 -2e-005 -0.00035 -7e-005 -2e-005 0 -0.00033 -5e-005 -2e-005 -1e-005 -0.00035 -2e-005c-0.00047,-1e-005 -0.00097,3e-005 -0.00144,0.00017l-0.00081 0.00026 0 1e-005 -0.00076 0.00038 0 2e-005 -0.00071 0.00048 -0.00034 0.00028 0 1e-005 -0.00033 0.00029 0 2e-005 -0.00032 0.0003 0 2e-005 -0.0003 0.00033 -2e-005 2e-005 -0.00029 0.00035 0 1e-005 -0.0003 0.00037 0 1e-005 -0.00028 0.0004 -1e-005 1e-005 -0.00027 0.0004 0 1e-005 -0.00026 0.00043 0 1e-005 -0.00028 0.00043 0 1e-005 -0.00024 0.00046 0 2e-005 -0.00024 0.00045 0 2e-005 -0.00025 0.00047 0 1e-005 -0.00023 0.00048 0 1e-005 -0.00022 0.0005 -0.00022 0.00052 -1e-005 0 -0.0002 0.00052 -1e-005 0 -0.0002 0.00051 0 2e-005 -0.0002 0.00053 -0.0002 0.00053 -0.00036 0.00108 -2e-005 0 -0.00016 0.00055 -2e-005 0 -0.00015 0.00055 -2e-005 0 -0.00016 0.00053 -2e-005 0 -0.00015 0.00055 -2e-005 0 -0.0003 0.00108 -2e-005 0 -0.00013 0.00051 -2e-005 2e-005 -0.00044 0.00154 -1e-005 1e-005c-0.00119,0.00406 -0.00212,0.00727 -0.00344,0.00727l-0.00014 0 -3e-005 -2e-005 -0.00014 -3e-005 -3e-005 -1e-005 -0.00039 -0.00017 -2e-005 -1e-005 -1e-005 0 -0.00038 -0.00022 -2e-005 -1e-005 -0.00038 -0.00026 -1e-005 -2e-005 -0.00037 -0.0003 -3e-005 -1e-005 -0.00035 -0.00035 -1e-005 -2e-005 -0.00035 -0.00038 -2e-005 -1e-005 -0.00033 -0.00043 -2e-005 -2e-005 -0.00033 -0.00047 -2e-005 0 -0.00032 -0.0005 -1e-005 -1e-005 -0.00031 -0.00055 -1e-005 0 -0.00029 -0.00058 -2e-005 -2e-005 -0.00028 -0.0006 -2e-005 0 -0.00027 -0.00064 -2e-005 -2e-005 -0.00027 -0.00067 0 -1e-005 -0.00026 -0.0007 -2e-005 0 -0.00026 -0.00073 0 -2e-005 -0.00024 -0.00076 -1e-005 0 -0.00023 -0.00079 -2e-005 0 -0.00021 -0.0008 -2e-005 -2e-005 -0.00021 -0.00082 0 -2e-005 -0.00021 -0.00085 -0.0002 -0.00088 -1e-005 0 -0.00019 -0.0009 -1e-005 0 -0.00017 -0.00091 -1e-005 0 -0.00017 -0.00094 -2e-005 0 -0.00015 -0.00094 -1e-005 0 -0.00016 -0.00096 0 -2e-005 -0.00015 -0.00097 -0.00013 -0.00099 -2e-005 0 -0.00012 -0.00099 -2e-005 0 -0.0001 -0.00102 -2e-005 0 -0.00023 -0.00203 -1e-005 0 -9e-005 -0.00102 -9e-005 -0.00104 -2e-005 0 -8e-005 -0.00103 -1e-005 0 -8e-005 -0.00104 0 -1e-005 -7e-005 -0.00102 0 -2e-005 -6e-005 -0.00103 -2e-005 0 -4e-005 -0.00103 -2e-005 0 -5e-005 -0.00102 0 -2e-005 -4e-005 -0.00102 -5e-005 -0.00102 -3e-005 -0.00101 -1e-005 0 -2e-005 -0.00101 -3e-005 -0.00099 -1e-005 -0.00098 -2e-005 -0.00098 0 -0.00096 0 -0.00187 0 -0.00091 2e-005 0 0 -0.0009 1e-005 0c6e-005,-0.00322 0.0002,-0.00606 0.00044,-0.00822 0.00125,-0.01083 0.00052,-0.0209 -0.00179,-0.03001l-2e-005 -1e-005c-0.00077,-0.00304 -0.0017,-0.00596 -0.00281,-0.00879l-2e-005 -2e-005 -0.00066 -0.00167 -2e-005 0 -0.00071 -0.00166 -2e-005 0 -0.00074 -0.00163 -2e-005 0 -0.00078 -0.00159 -1e-005 -2e-005 -0.00082 -0.00156 -2e-005 0 -0.00086 -0.00156 -0.0009 -0.0015 -2e-005 -2e-005 -0.00092 -0.00147 -2e-005 -2e-005 -0.00096 -0.00144 -1e-005 -2e-005 -0.00101 -0.00141 0 -2e-005 -0.00103 -0.0014 -2e-005 0 -0.00106 -0.00136 -2e-005 0 -0.00107 -0.00134 -2e-005 0 -0.00113 -0.00131 -1e-005 0 -0.00116 -0.00128 -1e-005 0 -0.00117 -0.00124 -2e-005 0c-0.0012,-0.00124 -0.00245,-0.00242 -0.00374,-0.00356l-1e-005 0c-0.00128,-0.00114 -0.00263,-0.00224 -0.004,-0.00327l-2e-005 0 -0.00137 -0.00102 -1e-005 0 -0.00283 -0.00195 -2e-005 0c-0.00336,-0.00219 -0.00692,-0.00409 -0.01063,-0.0057l-3e-005 0 -0.00319 -0.00131 -3e-005 0c-0.00271,-0.00102 -0.00551,-0.0019 -0.00833,-0.00261l-4e-005 0c-0.00284,-0.00072 -0.00576,-0.00127 -0.00871,-0.00165 -0.03965,-0.00515 -0.04501,-0.01498 -0.05344,-0.02752 -0.00424,-0.00751 -0.00672,-0.01597 -0.0081,-0.02426l0 -1e-005 -0.00019 -0.00111 0 -2e-005 -0.00016 -0.00111 0 -1e-005 -0.00016 -0.00111 0 -2e-005 -0.00013 -0.00111 -2e-005 -1e-005 -0.00012 -0.0011 0 -2e-005 -0.00012 -0.00109 0 -2e-005 -0.00011 -0.00109 0 -2e-005 -9e-005 -0.00106 -1e-005 -2e-005 -8e-005 -0.00107 0 -2e-005 -8e-005 -0.00106 -1e-005 -2e-005 -5e-005 -0.00105 -1e-005 -1e-005 -5e-005 -0.00104 -1e-005 -1e-005 -3e-005 -0.00104 -2e-005 -1e-005 -3e-005 -0.00102 -1e-005 -2e-005 -2e-005 -0.001 -1e-005 -2e-005c-0.00014,-0.00473 -2e-005,-0.00901 0.00015,-0.01256l0 -1e-005 7e-005 -0.00145 0 -1e-005 8e-005 -0.00136 0 -1e-005 4e-005 -0.00064 0 -2e-005 4e-005 -0.00059 1e-005 -1e-005 3e-005 -0.00058 0 -2e-005 3e-005 -0.00054 2e-005 -2e-005 1e-005 -0.00052 2e-005 -1e-005 3e-005 -0.00049 1e-005 -1e-005 2e-005 -0.00046 1e-005 -1e-005 3e-005 -0.00084 0.00017 -0.00274 2e-005 -1e-005 9e-005 -0.00183 1e-005 -1e-005 5e-005 -0.00089 1e-005 -1e-005 0.00029 -0.00455 2e-005 -1e-005 4e-005 -0.00089 2e-005 -1e-005 4e-005 -0.0009 2e-005 -1e-005 6e-005 -0.0009 2e-005 -2e-005 0.00012 -0.00177 1e-005 -2e-005 6e-005 -0.0009 2e-005 -1e-005 6e-005 -0.00088 1e-005 -2e-005 0.00016 -0.00178 1e-005 -1e-005 0.00015 -0.00178 2e-005 -2e-005 7e-005 -0.00088 2e-005 -2e-005 0.00027 -0.00267 2e-005 -2e-005c0.00126,-0.01127 0.00327,-0.02222 0.00699,-0.0325l0.0002 -0.00053 2e-005 -1e-005 0.00018 -0.00052 1e-005 0 0.00019 -0.0005 1e-005 -2e-005 0.00019 -0.0005 0.00019 -0.00049 0.0002 -0.00048 0.0002 -0.00049 0.0002 -0.00046 0 -1e-005 0.00019 -0.00046 0.0002 -0.00045 0.0002 -0.00044 1e-005 -2e-005 0.00019 -0.00044 1e-005 0 0.0002 -0.00043 0 -1e-005 0.0002 -0.00043 1e-005 -1e-005 0.00018 -0.00043 2e-005 0 0.00018 -0.00042 2e-005 0 0.0002 -0.00043 1e-005 -2e-005 0.00018 -0.00041 2e-005 -1e-005 0.00018 -0.00041 2e-005 0 0.00018 -0.00041 1e-005 -2e-005 0.0004 -0.00083 1e-005 -2e-005 0.00019 -0.00041 1e-005 -1e-005 0.00018 -0.00042 2e-005 -1e-005 0.00018 -0.00041 2e-005 -2e-005 0.00018 -0.00041 2e-005 -1e-005 0.00018 -0.00041 1e-005 -2e-005 0.00019 -0.00042 1e-005 -2e-005 0.00018 -0.00042 2e-005 -2e-005 0.00018 -0.00043 0 -1e-005 0.00018 -0.00044 2e-005 0 0.00018 -0.00046 2e-005 0 0.00016 -0.00045 2e-005 -2e-005 0.00018 -0.00046 0 -1e-005 0.00018 -0.00046 2e-005 -1e-005 0.00017 -0.00047 1e-005 -2e-005 0.00018 -0.00049 0.00019 -0.0005 0.00016 -0.0005 2e-005 -1e-005 0.00017 -0.00052 1e-005 0 0.00017 -0.00053 0.00017 -0.00055 1e-005 0 0.00017 -0.00055 0.00017 -0.00056 0 -2e-005 0.00016 -0.00057 0.00017 -0.0006 0.00015 -0.00061 0.00017 -0.00062 0.00015 -0.00064 0.00015 -0.00065 0.00016 -0.00067 0.00015 -0.00069 0.00029 -0.00143 0.00013 -0.00073 0 -1e-005 0.00014 -0.00075 0 -1e-005 0.00062 -0.00411 2e-005 0 0.0003 -0.00273c-0.00015,-0.0056 -0.00042,-0.01024 -0.00105,-0.01435l-1e-005 -1e-005 -8e-005 -0.00059 -1e-005 -2e-005 -0.00018 -0.00118 -2e-005 -2e-005c-0.00024,-0.00138 -0.00052,-0.00271 -0.00085,-0.00397l-2e-005 -1e-005 -0.00044 -0.00162 -1e-005 -1e-005 -0.00016 -0.0005 -1e-005 -2e-005 -0.00015 -0.00052 -2e-005 -1e-005 -0.00016 -0.0005 -2e-005 -2e-005 -0.00017 -0.0005 -1e-005 -1e-005 -0.00019 -0.00049 -1e-005 -2e-005 -0.00018 -0.00048 -2e-005 -2e-005 -0.0002 -0.00049 -1e-005 -1e-005 -0.0002 -0.00049 -1e-005 -1e-005 -0.00022 -0.00049 -1e-005 -1e-005 -0.00021 -0.00048 -2e-005 -1e-005 -0.00023 -0.00047 -1e-005 -2e-005 -0.00023 -0.00047 -2e-005 -1e-005 -0.00024 -0.00048 -2e-005 -1e-005 -0.00053 -0.00096 -1e-005 -1e-005 -0.00026 -0.00046 -2e-005 -2e-005 -0.00027 -0.00047 -2e-005 -1e-005 -0.00028 -0.00046 -2e-005 -1e-005 -0.0003 -0.00046 -2e-005 -1e-005 -0.0003 -0.00046 -2e-005 -2e-005 -0.0003 -0.00047 -2e-005 -1e-005 -0.00033 -0.00046 -2e-005 -1e-005 -0.00033 -0.00046 -2e-005 -2e-005 -0.00033 -0.00045 -2e-005 -2e-005 -0.00035 -0.00047 -3e-005 -1e-005 -0.00035 -0.00046 -1e-005 -2e-005 -0.00038 -0.00045 -2e-005 -2e-005 -0.00039 -0.00047 -2e-005 -1e-005 -0.00039 -0.00046 -2e-005 -1e-005 -0.00039 -0.00048 -2e-005 -1e-005 -0.00043 -0.00047 -1e-005 -2e-005 0.00044 -6e-005c0.01717,-0.00334 0.02039,-0.00664 0.02839,-0.02266 0.00317,-0.01035 0.01126,-0.01952 0.00928,-0.03005 -0.00199,-0.01046 -0.01734,-0.02114 -0.01734,-0.02114 0.04255,0.00119 0.07308,0.01507 0.09389,0.05204 0.01255,0.02205 -0.00171,0.08439 0.0073,0.10338 0.0242,0.05113 0.09636,0.08144 0.1831,0.09014 0.025,0.00252 0.0506,0.0177 0.07168,0.03294 0.0236,0.01706 0.04211,0.04104 0.06347,0.06142 0.02864,0.02742 0.03931,0.01106 0.07913,0.00178 0.02173,-0.00505 0.02457,0.0017 0.04372,-0.01057 0.01734,-0.01116 0.01712,-0.03987 0.01696,-0.04297 -0.00403,0.0022 -0.08632,0.00948 -0.08123,-0.00162 0.01443,-0.03143 0.02097,-0.02623 0.0197,-0.04716 -0.00119,-0.0185 -0.00516,-0.04287 0.01174,-0.04855 0.03149,-0.01045 0.04329,0.03149 0.11153,0.02625 0.01609,-0.00264 0.02883,-0.00403 0.03834,-0.00816 -0.00382,-0.00182 -0.00803,-0.00456 -0.01279,-0.00836 -0.03735,-0.03042 -0.05248,-0.04088 -0.10618,-0.03042 -0.0537,0.01057 -0.11448,-0.01513 -0.12495,-0.03852 -0.01057,-0.02328 0.0197,0.00993 0.05907,0.01165 0.0257,0.00113 0.06931,-0.00199 0.11728,-0.01963 0.0478,-0.01766 0.07001,0.00219 0.08052,0.0162 0.00291,0.0039 0.00555,0.00831 0.0079,0.01297l0.00015 0.0002c-0.00472,-0.01851 -0.02736,-0.03659 0.0008,-0.06841 0.01244,-0.01399 -0.00214,-0.01673 -0.00214,-0.01673 -0.01212,-0.00488 -0.00917,0.01539 -0.02188,0.02168 -0.0125,0.00622 -0.14502,0.03519 -0.14502,0.00273 0,-0.01572 0.00702,-0.01035 -0.00869,-0.0691 -0.00591,-0.02216 0.00987,-0.02462 0.00987,-0.02462 -0.01084,0.00439 -0.02999,-0.02999 -0.00295,-0.03788 0.00612,-0.00177 0.04453,-0.02248 0.06856,-0.02441 0.02415,-0.00198 0.03005,-0.00161 0.05424,0.00059 0,0 0.00016,-0.0022 -0.00086,-0.01159 -0.00117,-0.01088 0.008,-0.0272 0.0177,-0.03198 0.03472,-0.01683 0.06668,-0.02333 0.0874,-0.02704 0.00317,-0.00056 0.00664,-0.00109 0.01037,-0.00159 -0.00022,-0.00073 -0.00031,-0.00162 -0.00031,-0.00268 -0.0001,-0.04372 -0.00054,-0.08738 -0.00059,-0.13112l0 -0.02676c0.00499,0.00938 0.02494,0.05021 0.03181,0.06014 0.00966,0.01395 0.02206,0.02768 0.04024,0.01862 0.01142,-0.00569 0.02006,-0.01556 0.02762,-0.0256 0.00849,-0.0111 0.03831,-0.05767 0.03831,-0.05767 0,0 0.00902,0.05638 0.01191,0.06818 0.00301,0.01224 0.00698,0.02474 0.01513,0.03455 0.01298,0.01556 0.02988,0.008 0.04431,-0.00091 0.01025,-0.00633 0.04496,-0.03568 0.05323,-0.04232 0,0 -0.00993,0.02269 -0.01074,0.02451 -0.01759,0.04003 -0.03546,0.07989 -0.05316,0.11985 -0.00046,0.00111 -0.00095,0.00196 -0.00151,0.00256 0.00753,0.00612 0.01507,0.01289 0.02257,0.02028 0.03245,0.03214 0.05011,0.06089 0.05569,0.07082 0.01581,0.02811 0.03025,0.04351 0.03884,0.07274 0.00246,0.00838 0.0125,0.02426 0.01823,0.04968 0,0 -0.05321,-0.03788 -0.09646,-0.03047 0,0 0.06588,0.05161 0.08167,0.09045 0.01577,0.03884 0.04376,0.09738 0.03196,0.15199 0,0 -0.04276,-0.06824 -0.08014,-0.06921 -0.00709,-0.00022 0.00138,0.10108 0.00327,0.11112 0.00885,0.04618 0.00526,0.06747 0.03379,0.12467 0.02634,0.05295 0.05312,0.07392 0.05312,0.07392 -0.00215,0.01068 -0.04298,0.00987 -0.04941,0.00677 -0.04325,-0.02092 -0.05338,-0.03412 -0.06443,-0.07468 -0.00382,-0.01422 0.00412,0.06057 0.0073,0.0896 0.00159,0.01577 -0.00586,0.12554 -0.03016,0.13509 0,0 -0.05563,-0.08322 -0.07855,-0.07861 -0.00161,0.00032 -0.00334,0.00193 -0.00486,0.00409l-5e-005 6e-005 0 2e-005 -5e-005 6e-005 -6e-005 7e-005 -6e-005 8e-005 -1e-005 5e-005 -5e-005 4e-005 -6e-005 0.00011 -6e-005 9e-005 0 1e-005 -8e-005 0.00011 -7e-005 0.00011 -2e-005 4e-005 -6e-005 8e-005 -7e-005 0.00012 -5e-005 8e-005 -3e-005 6e-005 -9e-005 0.00013 -3e-005 8e-005 -5e-005 8e-005 -9e-005 0.00013 -3e-005 6e-005 -6e-005 9e-005 -9e-005 0.00017 -2e-005 2e-005 -7e-005 0.00015 -8e-005 0.00014 -1e-005 3e-005 -0.00014 0.00026 -6e-005 9e-005 -9e-005 0.00018 0 1e-005 -0.00015 0.00029 -5e-005 8e-005 -0.00011 0.0002 0 1e-005 -9e-005 0.00018 -4e-005 0.00011 -0.00014 0.00029 -2e-005 2e-005 -9e-005 0.00019 -3e-005 9e-005 -7e-005 0.00014 -6e-005 0.00015 -3e-005 6e-005 -0.0001 0.00022 0 3e-005 -9e-005 0.00019 -0.00015 0.0004 -3e-005 6e-005 -0.0004 0.00113 -3e-005 6e-005 -0.00022 0.00074 -2e-005 8e-005 -6e-005 0.00018 -2e-005 0.00011 -4e-005 0.00013 -3e-005 0.00016 -3e-005 0.0001 -5e-005 0.00017 -1e-005 9e-005 -5e-005 0.0002 -1e-005 6e-005 -5e-005 0.00021 0 5e-005 -4e-005 0.00023 0 3e-005 -8e-005 0.00051 -2e-005 0 -4e-005 0.00052 -2e-005 0 -3e-005 0.00053 -1e-005 0.00022 0 7e-005 -2e-005 0.00026 0 9e-005 -4e-005 0.00114 0 0.00014 -2e-005 0.00029 0 0.00014 -1e-005 0.00015 0 0.00016 -5e-005 0.00118 0 0.00018 -1e-005 7e-005 0 0.00013 0 0.00018 -2e-005 0.0002 -1e-005 0.00039 0 0.0002 -2e-005 0.00021 0 6e-005 0 0.00015 -2e-005 0.00022 0 0.00021 -1e-005 0.00011 0 0.00012 0 0.00021 -2e-005 0.00023 0 0.00012 0 0.00011 -1e-005 0.00023 0 0.00024 -2e-005 0.00012 0 0.00012 0 0.00025 -1e-005 0.00024 0 8e-005 -2e-005 0.00016 0 0.00026 -1e-005 0.0005 -2e-005 0.00026 0 0.00018 -1e-005 0.0001 0 0.00025 -0.00023 0.0093 0 0.00036 0 0.00029 -3e-005 0.00172 0 0.00033 -2e-005 0.00012 0 0.00046 0 0.00011 -1e-005 0.00038 0 0.0003 0 0.0002 0 0.00049 -2e-005 4e-005 0 0.00055 0 9e-005 0 0.00047 -1e-005 0.00021 0 0.00038 0 0.00032 0 0.00029 -2e-005 0.0004 0 0.00026 0 0.00042 0 0.00023 -1e-005 0.00046 0 0.00024 -2e-005 0.00113 0 0.00033 -1e-005 0.00103 0 0.00055 -2e-005 0.00014 0 0.00068 0 2e-005 -1e-005 0.00135 0 0.00041 -3e-005 0.00233 0 0.00056 0 0.00012 -2e-005 0.00137 0 0.00063 -1e-005 6e-005 0 0.00068 0 0.00037 0 0.00031 -2e-005 0.00137 0 0.00066 0 3e-005 -1e-005 0.00068 0 0.0005 0 0.00019 -2e-005 0.00108 0 0.00044 0 0.00088 -1e-005 0.00064 0 0.0007 -2e-005 0.00082 0 0.00058 0 9e-005 0 0.0001 0 0.00011 0 0.00012 0 0.00014 0 0.00012 0 0.00015 -1e-005 0.00063 0 0.00018 0 0.00018 0 0.00018 0 0.00019 0 0.00019 -2e-005 0.00083 0 0.00021 0 0.00021 0 0.00021 -1e-005 0.00067 0 0.00023 0 0.00023 0 0.00023 0 0.00023 -2e-005 0.00047 0 0.00023 0 0.00022 0 0.00023 0 0.00023 0 0.00021 0 2e-005 0 0.00023 -2e-005 0.00022 0 0.00022 0 0.00023 0 0.00021 0 0.00021 0 0.00018 0 3e-005 -1e-005 0.00022 0 0.00019 0 0.0002 0 0.0002 0 0.0002 0 0.00018 0 0.00018 0 0.00012 0 7e-005 0 0.00016 -2e-005 0.00017 0 0.00017 0 0.00015 0 0.00014 0 0.00015 0 0.00012 0 0.00012 0 0.00012 0 0.00011 0 4e-005 0 7e-005 0 9e-005c-0.00027,0.02681 -0.00088,0.0535 -0.00425,0.07985 -0.00869,0.06626 0.02442,0.0949 0.07769,0.1353 0.03519,0.02662 0.0544,0.04582 0.09061,0.07902 0,0 0.03073,0.02871 0.05537,0.06804 0.01785,-0.01734 0.02672,-0.04883 0.02086,-0.06916 -0.00933,-0.03256 -0.03739,-0.05896 -0.06201,-0.08063 -0.02061,-0.01813 -0.07017,-0.07968 -0.07715,-0.13664 -0.00338,-0.02678 -0.00193,-0.05506 0.01781,-0.07624 0.0198,-0.0213 0.04442,-0.02897 0.06685,-0.03283 0.03841,-0.00666 0.08116,0.00938 0.10886,0.02108 0.08986,0.03798 0.14763,0.04677 0.24189,0.0383 0.08718,-0.00789 0.16932,-0.07184 0.18171,-0.15794 0.00703,-0.04892 0.00972,-0.07811 -0.02833,-0.10784 -0.03105,-0.02413 -0.07811,-0.00251 -0.08878,0.0395 -0.00548,0.02173 -0.0072,0.04446 -0.0111,0.06968 -0.03167,-0.0228 -0.04154,-0.07913 -0.02313,-0.11712 0.00577,-0.012 0.00853,-0.01977 0.0074,-0.02498l-0.00017 -0.00043c-0.00217,-0.00667 -0.01295,-0.00896 -0.02802,-0.01099 -0.02861,-0.00324 -0.05359,-0.00613 -0.07485,-0.01775 -0.03086,-0.0157 -0.04476,-0.04974 -0.05688,-0.06941 -0.00014,-0.00012 -0.00021,-0.00024 -0.00021,-0.00036l-2e-005 -3e-005 2e-005 1e-005 0 -3e-005 3e-005 5e-005 0.00112 0.00082c0.007,0.00239 0.0443,0.00255 0.06188,0.00255 0.05064,6e-005 0.09033,0.00017 0.13723,0.00656 0.06423,0.00879 0.12463,0.0662 0.14829,0.13857zm-0.90682 0.80417l-2e-005 0 -0.0003 -0.00026 -2e-005 0 -0.0003 -0.00024 -2e-005 0 -0.00032 -0.00024m-0.00032 -0.00023l-1e-005 0 -0.00032 -0.00024 -1e-005 0 -0.00032 -0.00023 -0.00032 -0.00023 -2e-005 0 -0.00032 -0.00023 -1e-005 0 -0.00032 -0.00021 -2e-005 0m-0.00065 -0.00043l-2e-005 0 -0.00032 -0.00021 -1e-005 0 -0.00032 -0.0002 -0.00037 -0.0002m-0.00098 -0.00054l-2e-005 0 -0.00032 -0.00019 -3e-005 0 -0.0003 -0.00016 -3e-005 0m-0.21022 -1.30414c0,0 0.01342,-0.00193 0.02108,0.00573 0.00768,0.00768 0.01915,0.00554 0.01915,-0.00299 0,-0.00849 -0.01024,-0.01486 -0.02011,-0.01363 -0.00999,0.00128 -0.02012,0.01089 -0.02012,0.01089zm0.19583 -0.07628c0,0 -0.02768,-0.00703 -0.04135,0.01195 0,0 -6e-005,0.00151 5e-005,0.00382 0,0 -0.00048,0.00465 -0.00048,0.00465 0,0 -0.00027,0.02067 0.0162,0.02485 0.01465,0.00365 0.02719,-0.00172 0.03122,-0.01647 0.00639,-0.02301 -0.00564,-0.0288 -0.00564,-0.0288zm0.90391 -0.94588c-0.0185,-0.05228 -0.0574,-0.11927 -0.13906,-0.16107 0.01014,-0.01945 0.01904,-0.03907 0.02623,-0.05868 0.01352,-0.0368 0.02065,-0.07193 0.02125,-0.10465 0.01808,-0.00393 0.03487,-0.00607 0.04817,-0.00607 0.01465,0 0.02184,0.00257 0.0249,0.00407 0.02139,0.01074 0.09039,0.05527 0.07778,0.17839 -0.00197,0.01948 -0.01233,0.05794 -0.05032,0.13101 -0.0029,0.00563 -0.0059,0.0113 -0.00895,0.017zm-1.77422 -0.00229l-0.00768 -0.01466c-0.03798,-0.0735 -0.04829,-0.11179 -0.05022,-0.131 -0.01265,-0.12318 0.05633,-0.16771 0.07774,-0.17845 0.00301,-0.0015 0.01025,-0.00401 0.0249,-0.00401 0.01335,0 0.0302,0.00208 0.04843,0.00605 0.00066,0.03268 0.0079,0.06771 0.02148,0.10436 0.0071,0.01928 0.01586,0.03861 0.02588,0.05778 -0.08201,0.0411 -0.12154,0.10749 -0.14053,0.15993zm0.33009 -0.35554c0.04453,-0.00155 0.31229,-0.01513 0.47244,-0.11685 -0.00874,0.04223 -0.01533,0.09212 -0.01931,0.14614 -0.20467,-0.01072 -0.38532,0.0545 -0.4824,0.09879 -0.00275,-0.01243 -0.0047,-0.02456 -0.0056,-0.03623 -0.00348,-0.0434 0.00794,-0.07351 0.03487,-0.09185zm0.66113 0.02923c-0.00403,-0.0544 -0.0107,-0.10455 -0.0196,-0.14694 0.16015,0.10253 0.42914,0.11616 0.47378,0.11771 0.02693,0.01834 0.03847,0.0485 0.03529,0.0919 -0.00088,0.01198 -0.00285,0.02447 -0.0057,0.03729 -0.09631,-0.04424 -0.27786,-0.1105 -0.48377,-0.09996zm-0.05097 -0.57215l-0.02077 0 -0.06336 0 -0.02076 0 0 0.02082 0 0.01876 -0.01996 0 -0.02076 0 0 0.02078 0 0.06335 0 0.02076 0.02076 0 0.01996 0 0 0.01893c-0.02532,0.01717 -0.04062,0.0455 -0.04062,0.07657 0,0.01148 0.00215,0.02263 0.00618,0.03309 -0.04292,-0.00429 -0.09642,-0.00787 -0.15542,-0.00787 -0.15591,0 -0.36724,0.02612 -0.48842,0.15043 -0.01556,0.01598 -0.02838,0.03326 -0.03821,0.05155 -0.03062,-0.01154 -0.07209,-0.02258 -0.11915,-0.02258 -0.02424,0 -0.04828,0.00295 -0.07156,0.00874 -0.08364,0.02097 -0.14861,0.07329 -0.17376,0.14002 -0.01955,0.05204 -0.02528,0.13954 0.05879,0.26079 0.1374,0.19866 0.32517,0.39582 0.34754,0.41911l0.03881 0.0757c-0.49566,0.25193 -0.8361,0.76694 -0.8361,1.36001 0,0.8405 0.68391,1.52437 1.52448,1.52437 0.84063,0 1.52448,-0.68387 1.52448,-1.52437 0,-0.59775 -0.34582,-1.11625 -0.848,-1.36594l0.04726 -0.06667c0.00756,-0.00777 0.2066,-0.2139 0.35086,-0.42221 0.08396,-0.12125 0.07822,-0.20875 0.05859,-0.26079 -0.02511,-0.06673 -0.09007,-0.11911 -0.17372,-0.14002 -0.02317,-0.00579 -0.04715,-0.00874 -0.07146,-0.00874 -0.047,0 -0.08847,0.01104 -0.11893,0.02258 -0.00993,-0.01819 -0.02275,-0.03546 -0.03837,-0.05151 -0.1213,-0.12441 -0.33273,-0.15053 -0.48885,-0.15053 -0.059,0 -0.11244,0.00358 -0.1551,0.00783 0.00403,-0.0104 0.00613,-0.02157 0.00613,-0.03299 0,-0.03107 -0.01524,-0.05934 -0.04056,-0.07651l0 -0.01899 0.01989 0 0.02077 0 0 -0.02076 0 -0.06335 0 -0.02078 -0.02077 0 -0.01989 0 0 -0.01876 0 -0.02082zm-0.72212 1.3397l-0.04034 -0.07863c0,0 -0.20124,-0.20725 -0.3476,-0.41879 -0.14651,-0.21143 -0.02719,-0.33622 0.10302,-0.36878 0.02307,-0.00573 0.04544,-0.00811 0.06651,-0.00811 0.05279,0 0.0984,0.01471 0.12936,0.02844 0.00928,-0.02226 0.02322,-0.04357 0.04281,-0.06367 0.11431,-0.11724 0.31411,-0.14417 0.47361,-0.14417 0.08455,0 0.15788,0.00757 0.20103,0.01326l0.0001 0c-0.01873,-0.01303 -0.03113,-0.03466 -0.03113,-0.05928 0,-0.0285 0.0167,-0.05291 0.04062,-0.06465l0 -0.05161 -0.04072 0 0 -0.06335 0.04072 0 0 -0.03954 0.06336 0 0 0.03954 0.04066 0 0 0.06335 -0.04066 0 0 0.05166c0.02393,0.01176 0.04055,0.0361 0.04055,0.0646 0,0.02456 -0.01228,0.04613 -0.031,0.05922 6e-005,0 0.0001,-5e-005 0.00016,-5e-005 0.04313,-0.00568 0.1162,-0.0132 0.20059,-0.0132 0.15956,0 0.35966,0.02694 0.47399,0.14422 0.01959,0.0201 0.03358,0.04141 0.04287,0.06367 0.03095,-0.01373 0.07655,-0.02844 0.12929,-0.02844 0.02114,0 0.04341,0.00238 0.06642,0.00811 0.13026,0.03256 0.24946,0.15735 0.10312,0.36878 -0.14196,0.20489 -0.33746,0.40805 -0.34958,0.4205l-0.00055 0.00064 -0.04979 0.07029c-0.19921,-0.09565 -0.42226,-0.14929 -0.65763,-0.14929 -0.24019,0 -0.46756,0.05587 -0.66979,0.15528zm-0.01228 -0.09527c0.00547,-0.00317 0.01093,-0.00622 0.01651,-0.00928 0.01804,-0.01008 0.03627,-0.01974 0.05473,-0.02897 -0.00397,0.0007 -0.008,0.00107 -0.01224,0.00107 -0.04001,0 -0.07237,-0.03229 -0.07237,-0.07226 0,-0.03987 0.03236,-0.07222 0.07237,-0.07222 0.03986,0 0.07227,0.03235 0.07227,0.07222 0,0.02168 -0.00966,0.04114 -0.02484,0.0544 0.04394,-0.02044 0.089,-0.03869 0.13541,-0.0544l0.00011 0c-0.03986,-0.00016 -0.0721,-0.03236 -0.0721,-0.07222 0,-0.01952 0.00762,-0.03707 0.02023,-0.04994 0,-6e-005 -7e-005,-6e-005 -0.00011,-0.0001 -0.05478,-0.04588 -0.20676,-0.19019 -0.26175,-0.33922 -0.01407,-0.03799 -0.0218,-0.07647 -0.01986,-0.11348 -0.02183,-0.00569 -0.04753,-0.01046 -0.06947,-0.01046 -0.01337,0 -0.02532,0.00178 -0.03423,0.00617 -0.0419,0.02097 -0.10129,0.08031 -0.08911,0.19914 0.00343,0.03326 0.02382,0.08305 0.05252,0.13842 0.07248,0.14072 0.19776,0.31749 0.23193,0.35113zm1.25441 -0.05639c-0.01438,-0.01319 -0.02339,-0.03207 -0.02339,-0.05305 0,-0.03987 0.03251,-0.07222 0.07237,-0.07222 0.03996,0 0.07227,0.03235 0.07227,0.07222 0,0.03997 -0.03231,0.07226 -0.07227,0.07226 -0.00359,0 -0.00703,-0.00032 -0.0104,-0.0008 0.01834,0.00917 0.03648,0.01862 0.05429,0.0287 0.00526,0.00274 0.01046,0.00569 0.01549,0.00875 0.03193,-0.02972 0.15939,-0.20844 0.23295,-0.3506 0.02876,-0.0552 0.04914,-0.10505 0.05264,-0.13842 0.01212,-0.11883 -0.04727,-0.17817 -0.08923,-0.19914 -0.00885,-0.00439 -0.02075,-0.00622 -0.03417,-0.00622 -0.02183,0 -0.04732,0.00478 -0.06915,0.01051 0.00198,0.03729 -0.00585,0.0757 -0.0198,0.11384 -0.05461,0.14878 -0.20559,0.29298 -0.26035,0.33886 -0.00076,0.00064 -0.00135,0.00117 -0.0021,0.00176 0.01176,0.01271 0.01889,0.02956 0.01889,0.04828 0,0.0395 -0.03166,0.07142 -0.07109,0.0721l6e-005 0c0.04544,0.01541 0.0898,0.03328 0.13299,0.05317zm-1.01579 -0.19736l0.00017 0c0.00112,-0.00011 0.0022,-0.00011 0.00333,-0.00011 0.03996,0 0.07226,0.03235 0.07226,0.0722 0,0.0242 -0.01181,0.04555 -0.03022,0.05871 0.04873,-0.01477 0.09878,-0.02683 0.14959,-0.03623 -0.03659,-0.00359 -0.06524,-0.034 -0.06524,-0.07157 0,-0.03985 0.0324,-0.0722 0.07232,-0.0722 0.03986,0 0.07221,0.03235 0.07221,0.0722 0,0.02887 -0.017,0.0536 -0.04147,0.06518 0.05917,-0.009 0.11957,-0.01453 0.18106,-0.01577l6e-005 0c-0.03434,-0.05274 -0.05902,-0.19763 -0.05902,-0.36819 0,-0.13364 0.01519,-0.2515 0.0382,-0.32166 -0.15173,0.14071 -0.51395,0.14907 -0.51395,0.14907 -0.04046,0.02431 -0.05312,0.06567 -0.04931,0.11406 0.01047,0.1345 0.14717,0.32345 0.17001,0.35431zm0.47131 0.07241l5e-005 0c0.06127,0.00113 0.12135,0.0065 0.18037,0.01556 -0.02425,-0.01169 -0.04109,-0.03625 -0.04109,-0.06497 0,-0.03985 0.03235,-0.0722 0.07231,-0.0722 0.03992,0 0.07221,0.03235 0.07221,0.0722 0,0.03713 -0.028,0.06734 -0.06399,0.07146 0.05026,0.00924 0.09951,0.0212 0.14769,0.03574 -0.01797,-0.01315 -0.02956,-0.03423 -0.02956,-0.05811 0,-0.03985 0.03234,-0.0722 0.07237,-0.0722 0.00102,0 0.00219,0 0.00322,0.00011 0.00113,4e-005 0.00204,0.00031 0.00311,0.00042 0.0001,-0.00017 0.00021,-0.00027 0.00038,-0.00042 0.02285,-0.03086 0.15875,-0.21992 0.16856,-0.35431 0.00365,-0.04839 -0.00923,-0.08975 -0.04958,-0.11406 0,0 -0.36507,-0.00836 -0.51578,-0.15069 0.02345,0.07002 0.0388,0.18868 0.0388,0.32328 0,0.17056 -0.02469,0.31545 -0.05907,0.36819zm0.78907 0.44993l0.03574 0.02678 -0.09737 0.13004 0.08107 0.06068 -0.02436 0.03256 -0.11686 -0.08749 0.12178 -0.16257zm-0.20956 0.01418l0.00451 -0.07098 -0.053 0.04737 0.04849 0.02361zm0.00998 -0.12801l0.03708 0.01798 -0.01117 0.22194 -0.042 -0.02039 0.00316 -0.04908 -0.07714 -0.0375 -0.03659 0.03283 -0.04099 -0.0199 0.16765 -0.14588zm-0.27021 0.00817c0.0211,0.00542 0.03606,-0.00274 0.04029,-0.01931l0.00016 -0.0006c0.00472,-0.01856 -0.00579,-0.03138 -0.02682,-0.0368l-0.04302 -0.01099 -0.01444 0.05648 0.04383 0.01122zm-0.06265 -0.11787l0.0899 0.02302c0.02507,0.00643 0.0426,0.0184 0.05221,0.03466 0.0082,0.01373 0.01013,0.03073 0.00542,0.04924l-0.00017 0.00059c-0.00809,0.03176 -0.03036,0.04732 -0.05777,0.05022l0.03005 0.08256 -0.05055 -0.01299 -0.02602 -0.07371 -0.03401 -0.00874 -0.01615 0.06299 -0.0433 -0.0111 0.05039 -0.19674zm-0.29827 0.08776l0.00633 -0.11582 0.04463 0.00246 -0.00626 0.11465c-0.00183,0.03305 0.01367,0.05102 0.04092,0.05253 0.02721,0.00149 0.04463,-0.01407 0.04641,-0.04625l0.00644 -0.11609 0.04452 0.00246 -0.00628 0.11438c-0.00342,0.06138 -0.03948,0.08959 -0.09393,0.08659 -0.05451,-0.00301 -0.08611,-0.03525 -0.08278,-0.09491zm-0.19447 -0.05663l-0.06132 0.00821 -0.00537 -0.04088 0.16674 -0.02226 0.00547 0.04083 -0.06121 0.0082 0.0214 0.16041 -0.04432 0.00596 -0.02139 -0.16047zm-0.25961 0.01986l0.04287 -0.01256 0.04555 0.1559 0.0972 -0.02843 0.01138 0.039 -0.14002 0.04094 -0.05698 -0.19485zm-0.21303 0.22423l-0.05262 -0.10338 0.03976 -0.02028 0.05214 0.10236c0.01503,0.02945 0.03755,0.03718 0.06181,0.02479 0.0243,-0.0124 0.03149,-0.0346 0.01689,-0.0633l-0.05284 -0.10361 0.03981 -0.02027 0.05204 0.10204c0.02789,0.05483 0.01089,0.09738 -0.03767,0.12211 -0.0486,0.02478 -0.09216,0.01277 -0.11932,-0.04046zm-0.22423 0.14843l-0.00037 -0.00043c-0.03578,-0.04533 -0.03096,-0.10938 0.01798,-0.14807 0.03003,-0.02377 0.05595,-0.02795 0.08229,-0.02505l-0.00198 0.04334c-0.02114,-0.00144 -0.03907,0.00161 -0.05499,0.01422 -0.02689,0.02119 -0.02861,0.05879 -0.00698,0.08611l0.00032 0.00048c0.02162,0.0273 0.05847,0.03513 0.08578,0.01357 0.01825,-0.01437 0.02361,-0.03052 0.02715,-0.05177l0.04013 0.00488c-0.00257,0.03052 -0.01212,0.0558 -0.04291,0.0801 -0.04684,0.03708 -0.1103,0.02838 -0.14642,-0.01738zm-0.49264 1.23988l0.03515 0.02265c-0.01176,0.01689 -0.01668,0.03278 -0.01197,0.05252 0.00392,0.01609 0.01583,0.02522 0.03026,0.02173l0.0006 -0.00016c0.01577,-0.0038 0.02124,-0.02012 0.01545,-0.04394l-0.00431 -0.01776 0.02549 -0.01325 0.0579 0.03498 -0.01846 -0.07623 0.03654 -0.00891 0.03186 0.13122 -0.0322 0.00779 -0.05874 -0.03772c0.00193,0.02741 -0.00574,0.0566 -0.04173,0.06535l-0.0006 0.00011c-0.03658,0.00889 -0.06995,-0.01123 -0.08041,-0.05452 -0.00849,-0.03492 -0.00049,-0.06245 0.01517,-0.08386zm-0.01686 -0.23599l0.05837 0.0631c0.02194,0.02355 0.03342,0.03262 0.04995,0.0316 0.01673,-0.00102 0.02522,-0.01267 0.0243,-0.02833 -0.00097,-0.01539 -0.01014,-0.02543 -0.02918,-0.03912l0.02284 -0.03224c0.02802,0.01802 0.04368,0.03627 0.04578,0.07184 0.00251,0.04131 -0.02002,0.07013 -0.05737,0.07232l-0.00057 6e-005c-0.03332,0.00197 -0.05087,-0.01407 -0.08031,-0.04775l-0.02704 -0.03097 0.00524 0.08687 -0.03792 0.00225 -0.00886 -0.14753 0.03477 -0.0021zm0.10583 -0.12146l0.00053 5e-005c0.0176,0.00199 0.03182,-0.0096 0.03423,-0.03144 0.00242,-0.02156 -0.0087,-0.03514 -0.02629,-0.03712l-0.00053 -6e-005c-0.0176,-0.00193 -0.03122,0.00972 -0.03364,0.03122 -0.00236,0.02156 0.0087,0.03542 0.0257,0.03735zm-0.05209 -0.00671c-0.00736,-0.01116 -0.01101,-0.02479 -0.00912,-0.0418 0.00488,-0.04307 0.03175,-0.06818 0.07205,-0.06368l0.00058 0.00011c0.03998,0.00446 0.06594,0.03869 0.06095,0.08347 -0.00295,0.02662 -0.01127,0.04148 -0.02801,0.05484 -0.01577,0.01266 -0.03835,0.01957 -0.07741,0.01512l-0.00059 0c-0.06433,-0.00729 -0.10489,-0.04249 -0.09855,-0.09897 0.00327,-0.02893 0.01508,-0.04737 0.03085,-0.06257l0.03062 0.02668c-0.01324,0.01318 -0.01999,0.02477 -0.02193,0.04147 -0.00333,0.03003 0.02376,0.04179 0.04056,0.04533zm0.1171 -0.22574l0.00081 -0.03583 0.03712 0.00054 0.00156 0.05987 -0.00783 0.02892 -0.19421 -0.05252 0.01133 -0.0419 0.15122 0.04092zm0.50716 1.35428l0.0368 0.02409 -0.0875 0.13375 0.08332 0.05455 -0.02184 0.03342 -0.12017 -0.07859 0.10939 -0.16722zm1.4801 0.13566l-0.05675 -0.04098 0.01169 0.06904 0.04506 -0.02806zm-0.10139 -0.07538l0.03449 -0.0214 0.17898 0.12554 -0.03905 0.0243 -0.03912 -0.02837 -0.07173 0.04463 0.00811 0.04763 -0.03804 0.02372 -0.03364 -0.21605zm-0.20273 0.28219l0.01297 -0.03841c0.02205,0.00736 0.04309,0.00929 0.06433,0.00108 0.01679,-0.00656 0.0243,-0.01713 0.02007,-0.02802l-0.00016 -0.00053c-0.00403,-0.0104 -0.0125,-0.0132 -0.04678,-0.00912 -0.04121,0.00499 -0.06942,0.00403 -0.08375,-0.03299l-0.00021 -0.00055c-0.0131,-0.03374 0.00537,-0.06668 0.0434,-0.08143 0.02709,-0.01051 0.05359,-0.011 0.07832,-0.00316l-0.00928 0.03915c-0.02092,-0.00503 -0.03986,-0.00568 -0.05552,0.00045 -0.01572,0.00605 -0.0212,0.01647 -0.0177,0.02547l0.00021 0.00055c0.00478,0.01227 0.01433,0.01313 0.04973,0.00889 0.04158,-0.00482 0.06813,0.00049 0.08074,0.03294l0.00016 0.00055c0.01438,0.03695 -0.00574,0.06866 -0.04597,0.08428 -0.02818,0.01093 -0.06046,0.01212 -0.09056,0.00085zm-0.26625 -0.11337l0.14774 -0.02934 0.00762 0.0383 -0.10493 0.02088 0.00787 0.03975 0.09234 -0.01836 0.00762 0.03831 -0.09234 0.01836 0.00815 0.04113 0.10635 -0.02114 0.0076 0.03837 -0.14914 0.02961 -0.03888 -0.19587zm-0.25646 0.01055l0.0405 -0.00021 0.09421 0.12259 -0.0006 -0.12302 0.04341 -0.00021 0.00097 0.19978 -0.0374 0.00017 -0.09743 -0.12651 0.00065 0.12698 -0.04335 0.00023 -0.00096 -0.1998zm-0.13497 0.0836l0.00011 -0.00053c0.00714,-0.03354 -0.01164,-0.06664 -0.04619,-0.07394 -0.03466,-0.0073 -0.06448,0.01496 -0.07152,0.04849l-0.00011 0.00055c-0.00707,0.03352 0.01159,0.06663 0.0462,0.07393 0.03466,0.00729 0.06444,-0.01497 0.07151,-0.0485zm-0.16281 -0.03434l0.00011 -0.00059c0.0118,-0.05559 0.06522,-0.09184 0.12553,-0.07908 0.06035,0.01271 0.09415,0.06679 0.08235,0.12237l-0.0001 0.00053c-0.0117,0.05559 -0.0652,0.09186 -0.1255,0.07914 -0.06029,-0.01271 -0.0941,-0.06679 -0.08239,-0.12237zm-0.17705 -0.17968l0.13836 0.0596 -0.01545 0.03589 -0.09829 -0.04232 -0.01604 0.03723 0.08648 0.03722 -0.01549 0.03595 -0.08649 -0.03728 -0.01653 0.03858 0.09958 0.04285 -0.01545 0.03595 -0.13976 -0.06019 0.07908 -0.18348zm1.95358 -1.37619l-0.03515 -0.02259c0.0117,-0.01695 0.01669,-0.03284 0.01197,-0.05252 -0.00392,-0.0161 -0.01589,-0.02527 -0.03026,-0.02179l-0.00053 0.00017c-0.01583,0.0038 -0.02131,0.02012 -0.01551,0.04399l0.00428 0.01775 -0.02553 0.01326 -0.05788 -0.03504 0.01851 0.0763 -0.03659 0.00885 -0.03182 -0.13122 0.03214 -0.00779 0.05879 0.03771c-0.00193,-0.0274 0.00569,-0.05654 0.0417,-0.06528l0.00064 -0.00017c0.03659,-0.00885 0.06995,0.01127 0.08042,0.05452 0.00842,0.03498 0.00048,0.06244 -0.01518,0.08385zm0.01991 0.23502l-0.05903 -0.06249c-0.02226,-0.02329 -0.03374,-0.03225 -0.05021,-0.03107 -0.01684,0.00119 -0.02515,0.01293 -0.02398,0.02859 0.00102,0.01535 0.01031,0.02528 0.02956,0.0388l-0.02258 0.03245c-0.02817,-0.01776 -0.044,-0.03578 -0.04652,-0.07135 -0.00285,-0.04126 0.01942,-0.07028 0.05671,-0.07291l0.00054 -6e-005c0.03331,-0.00235 0.05101,0.01358 0.08079,0.04695l0.02731 0.03069 -0.00611 -0.08681 0.03786 -0.00267 0.01036 0.14742 -0.0347 0.00246zm-0.10463 0.12276l-0.00054 -5e-005c-0.01765,-0.00182 -0.03176,0.00998 -0.03401,0.03181 -0.00221,0.02157 0.00906,0.03503 0.02665,0.03685l0.0006 6e-005c0.01755,0.00177 0.03117,-0.01003 0.03332,-0.0316 0.00225,-0.02156 -0.00896,-0.03536 -0.02602,-0.03707zm0.05214 0.00617c0.00746,0.0111 0.01127,0.02468 0.00945,0.04175 -0.0044,0.04312 -0.03101,0.06851 -0.07131,0.06437l-0.00058 -6e-005c-0.04002,-0.00402 -0.06642,-0.03804 -0.0618,-0.08288 0.00267,-0.02666 0.01078,-0.04164 0.0274,-0.0551 0.01562,-0.01282 0.03816,-0.01995 0.07736,-0.01594l0.00055 0.00011c0.06443,0.00649 0.10536,0.04136 0.09956,0.09786 -0.00295,0.02897 -0.01458,0.04758 -0.0302,0.06288l-0.03084 -0.0264c0.01308,-0.0133 0.01974,-0.02489 0.02146,-0.04168 0.00306,-0.03005 -0.0242,-0.04147 -0.04105,-0.04491zm-0.11469 0.22691l-0.00055 0.03585 -0.03701 -0.00022 -0.00215 -0.05982 0.00745 -0.02897 0.19475 0.05059 -0.01089 0.042 -0.1516 -0.03943z"/>
 </g>
</svg>
