<?xml version="1.0" encoding="UTF-8"?>
<!DOCTYPE svg PUBLIC "-//W3C//DTD SVG 1.1//EN" "http://www.w3.org/Graphics/SVG/1.1/DTD/svg11.dtd">
<!-- Creator: CorelDRAW -->
<svg xmlns="http://www.w3.org/2000/svg" xml:space="preserve" width="100%" height="100%" style="shape-rendering:geometricPrecision; text-rendering:geometricPrecision; image-rendering:optimizeQuality; fill-rule:evenodd; clip-rule:evenodd"
viewBox="0 0 1.44759 0.84007"
 xmlns:xlink="http://www.w3.org/1999/xlink">
 <defs>
  <linearGradient id="id0" gradientUnits="userSpaceOnUse" x1="-13.8762" y1="-55.1708" x2="-13.8762" y2="-47.0142">
   <stop offset="0" style="stop-color:white"/>
   <stop offset="0.721569" style="stop-color:#1D1D1B"/>
   <stop offset="1" style="stop-color:#1D1D1B"/>
  </linearGradient>
  <linearGradient id="id1" gradientUnits="userSpaceOnUse" x1="-20.9608" y1="-33.2604" x2="-7.19512" y2="-33.2604">
   <stop offset="0" style="stop-color:#914700"/>
   <stop offset="0" style="stop-color:#914700"/>
   <stop offset="0.129412" style="stop-color:#CFA154"/>
   <stop offset="0.560784" style="stop-color:#FBC233"/>
   <stop offset="0.690196" style="stop-color:#F6DE91"/>
   <stop offset="0.921569" style="stop-color:#914700"/>
   <stop offset="1" style="stop-color:#914700"/>
  </linearGradient>
  <linearGradient id="id2" gradientUnits="userSpaceOnUse" xlink:href="#id0" x1="-14.0779" y1="-21.2688" x2="-14.0779" y2="-32.9409">
  </linearGradient>
 </defs>
<symbol id="Fm5-27-0" viewBox="-16.0303 -39.8316 3.98457 2.38839">
 <path class="fil0" d="M-15.2054 -37.4841l-0.82497 -2.3083 0.50573 0 0.58366 1.70852 0.56539 -1.70852 0.49444 0 -0.82658 2.3083 -0.49767 0zm1.28286 -0.7508l0.4536 -0.04461c0.02688,0.15263 0.08223,0.26442 0.16607,0.3359 0.08331,0.07094 0.19563,0.10695 0.33752,0.10695 0.14994,0 0.26334,-0.03171 0.33912,-0.09566 0.07632,-0.06342 0.11447,-0.13759 0.11447,-0.22251 0,-0.05481 -0.01612,-0.10103 -0.04837,-0.13919 -0.0317,-0.0387 -0.0876,-0.07202 -0.16768,-0.09997 -0.05428,-0.01934 -0.17896,-0.05267 -0.37298,-0.10103 -0.24991,-0.06181 -0.42511,-0.13813 -0.52562,-0.22842 -0.14188,-0.12683 -0.21282,-0.28162 -0.21282,-0.46434 0,-0.1177 0.03332,-0.22734 0.09996,-0.32999 0.06664,-0.10212 0.16285,-0.18005 0.28807,-0.23379 0.12576,-0.05321 0.27678,-0.08008 0.45414,-0.08008 0.29021,0 0.50788,0.06342 0.6546,0.19026 0.14618,0.12737 0.22304,0.29666 0.23056,0.50895l-0.46596 0.02042c-0.01989,-0.11877 -0.06288,-0.20422 -0.12845,-0.25582 -0.06557,-0.05213 -0.16392,-0.07793 -0.29505,-0.07793 -0.13544,0 -0.24185,0.02741 -0.31817,0.08331 -0.04944,0.03547 -0.07416,0.0833 -0.07416,0.14296 0,0.05482 0.02311,0.10157 0.06933,0.14027 0.05858,0.04944 0.20154,0.10104 0.42833,0.15424 0.2268,0.05375 0.39449,0.1091 0.50305,0.16607 0.10856,0.05751 0.19348,0.13544 0.25528,0.23486 0.06127,0.09943 0.0919,0.22197 0.0919,0.36761 0,0.13221 -0.03654,0.25636 -0.11017,0.37137 -0.07363,0.11555 -0.17736,0.20154 -0.31172,0.25744 -0.13436,0.05643 -0.30204,0.08438 -0.5025,0.08438 -0.29183,0 -0.51594,-0.06718 -0.67234,-0.20208 -0.15639,-0.1349 -0.24991,-0.3316 -0.28001,-0.58957z"/>
</symbol>
<symbol id="Fm3-23-0" viewBox="-20.9608 -32.9409 13.7656 11.6721">
 <polygon class="fil1" points="-20.9608,-21.2688 -7.19512,-21.2688 -7.19512,-32.9409 -20.9608,-32.9409 "/>
</symbol>
<symbol id="Fm4-25-0" viewBox="-20.9608 -33.5723 13.7657 0.62368">
 <path class="fil2" d="M-20.9608 -32.9486l13.7657 0 0 -0.06551c0,-0.30826 -0.24991,-0.55817 -0.5582,-0.55817l-12.6493 0c-0.30829,0 -0.5582,0.24991 -0.5582,0.55817l0 0.06551z"/>
</symbol>
<symbol id="Fm1-19-0" viewBox="-21.5357 -17.3465 15.1126 4.17885">
 <path class="fil0" d="M-18.8291 -14.7444l0.78371 0.24818c-0.12036,0.43757 -0.32002,0.76225 -0.59991,0.97497 -0.27897,0.21179 -0.63444,0.31815 -1.06454,0.31815 -0.53181,0 -0.96938,-0.18193 -1.31178,-0.54487 -0.34241,-0.36386 -0.51408,-0.86115 -0.51408,-1.49091 0,-0.66709 0.1726,-1.1849 0.51687,-1.55436 0.34428,-0.36853 0.79678,-0.55326 1.35844,-0.55326 0.48981,0 0.8882,0.14461 1.19422,0.43477 0.18287,0.17074 0.31908,0.41705 0.41052,0.73799l-0.80144 0.19127c-0.04665,-0.20806 -0.14555,-0.37227 -0.29669,-0.49262 -0.15021,-0.12036 -0.33308,-0.18007 -0.54767,-0.18007 -0.29669,0 -0.53833,0.10636 -0.72306,0.32002 -0.18473,0.21272 -0.2771,0.55792 -0.2771,1.03561 0,0.50662 0.0905,0.86768 0.27337,1.08227 0.18193,0.21552 0.41891,0.32281 0.71,0.32281 0.21552,0 0.40025,-0.0681 0.55513,-0.20525 0.15487,-0.13622 0.2659,-0.35174 0.33401,-0.6447zm5.02321 0.9843l-0.46463 0.59245c-0.22765,-0.11102 -0.44597,-0.26403 -0.65589,-0.45903 -0.16234,0.14555 -0.33401,0.25377 -0.51688,0.32282 -0.18193,0.06904 -0.39838,0.10356 -0.65029,0.10356 -0.49915,0 -0.87421,-0.13995 -1.12612,-0.42078 -0.19499,-0.21645 -0.29202,-0.46649 -0.29202,-0.74919 0,-0.25657 0.0765,-0.48795 0.22951,-0.69228 0.15301,-0.20525 0.3816,-0.38346 0.68575,-0.5346 -0.13622,-0.16234 -0.23978,-0.31722 -0.30882,-0.4637 -0.06904,-0.14647 -0.10356,-0.28549 -0.10356,-0.41704 0,-0.24164 0.09703,-0.44784 0.29109,-0.61577 0.19406,-0.16887 0.47023,-0.25284 0.82943,-0.25284 0.34614,0 0.6167,0.08863 0.8117,0.26497 0.19499,0.17633 0.29296,0.39278 0.29296,0.64749 0,0.16234 -0.04852,0.31628 -0.14555,0.46183 -0.0961,0.14648 -0.29109,0.31068 -0.58498,0.49542l0.55792 0.73519c0.06531,-0.11662 0.12223,-0.2687 0.16981,-0.45623l0.69414 0.15767c-0.06904,0.24631 -0.12968,0.42638 -0.181,0.5402 -0.05038,0.11383 -0.10543,0.20899 -0.16327,0.2855 0.0849,0.08024 0.19593,0.16794 0.33214,0.26403 0.13529,0.0961 0.23512,0.15861 0.29856,0.19033zm-2.09083 -2.17852l0.20806 -0.15861c0.15301,-0.11849 0.22951,-0.23605 0.22951,-0.35267 0,-0.0989 -0.03732,-0.18287 -0.11102,-0.25191 -0.07371,-0.06904 -0.17354,-0.10356 -0.29949,-0.10356 -0.12129,0 -0.21739,0.03079 -0.28643,0.09143 -0.06904,0.06065 -0.10449,0.13155 -0.10449,0.21179 0,0.09517 0.05877,0.20992 0.1754,0.34427l0.18846 0.21926zm-0.30042 0.83315c-0.17727,0.08957 -0.30882,0.19687 -0.39652,0.32282 -0.0877,0.12595 -0.13155,0.25377 -0.13155,0.38532 0,0.16608 0.05504,0.30136 0.16327,0.40585 0.10823,0.1045 0.25377,0.15675 0.43571,0.15675 0.12035,0 0.23604,-0.02333 0.34707,-0.07091 0.11102,-0.04665 0.23231,-0.12502 0.36386,-0.23512l-0.78184 -0.96471zm2.88667 -2.17292l1.47878 0c0.33308,0 0.58685,0.02519 0.76225,0.0765 0.23512,0.06904 0.43664,0.1922 0.60365,0.36946 0.16794,0.17634 0.29576,0.39279 0.38346,0.64843 0.08676,0.25657 0.13061,0.57192 0.13061,0.94792 0,0.32934 -0.04105,0.6139 -0.12315,0.85275 -0.09983,0.29109 -0.24258,0.52714 -0.42917,0.7072 -0.13995,0.13715 -0.32935,0.24351 -0.56819,0.32002 -0.1782,0.05691 -0.41705,0.0849 -0.71654,0.0849l-1.5217 0 0 -4.00718zm0.8089 0.67828l0 2.65342 0.60364 0c0.22578,0 0.38906,-0.01213 0.48982,-0.03826 0.13062,-0.03265 0.23978,-0.0877 0.32655,-0.16607 0.08676,-0.07837 0.15674,-0.20805 0.21178,-0.38719 0.05412,-0.17913 0.08211,-0.42451 0.08211,-0.73426 0,-0.30975 -0.02799,-0.54673 -0.08211,-0.7128 -0.05504,-0.16607 -0.13155,-0.29576 -0.22951,-0.38813 -0.0989,-0.09329 -0.22392,-0.15581 -0.37506,-0.18846 -0.11289,-0.02612 -0.33401,-0.03825 -0.66429,-0.03825l-0.36293 0zm3.25799 3.3289l0 -3.97453 0.80891 0 0 3.29905 2.01152 0 0 0.67548 -2.82043 0z"/>
</symbol>
<symbol id="Fm2-21-0" viewBox="-19.846 -13.0246 11.7696 4.09489">
 <path class="fil0" d="M-18.0864 -9.00059l-0.76785 0 0 -2.89506c-0.28083,0.2631 -0.61111,0.45716 -0.99177,0.58218l0 -0.69694c0.19966,-0.06531 0.41798,-0.1894 0.65309,-0.37226 0.23511,-0.1838 0.39652,-0.39746 0.48329,-0.6419l0.62324 0 0 4.02398zm1.16436 -0.92646l0.74359 -0.0821c0.01866,0.15114 0.06625,0.2631 0.14275,0.33588 0.07651,0.07277 0.17727,0.10916 0.30322,0.10916 0.15861,0 0.29296,-0.07278 0.40399,-0.21832 0.11196,-0.14555 0.18286,-0.44784 0.21365,-0.9078 -0.19313,0.22485 -0.43477,0.33681 -0.724,0.33681 -0.31535,0 -0.58778,-0.12222 -0.81636,-0.3648 -0.22858,-0.24351 -0.34334,-0.55979 -0.34334,-0.94978 0,-0.40679 0.12129,-0.73427 0.36293,-0.98337 0.24071,-0.24818 0.5486,-0.3732 0.92179,-0.3732 0.40679,0 0.73986,0.15768 1.0011,0.47209 0.2603,0.31442 0.39092,0.8313 0.39092,1.55063 0,0.73333 -0.13622,1.2614 -0.40771,1.58608 -0.2715,0.32375 -0.62511,0.48609 -1.06081,0.48609 -0.31349,0 -0.56633,-0.08304 -0.75945,-0.25004 -0.19313,-0.16701 -0.31722,-0.41612 -0.37227,-0.74733zm1.73909 -1.67844c0,-0.24818 -0.05691,-0.44037 -0.17073,-0.57659 -0.11383,-0.13715 -0.24631,-0.20526 -0.39559,-0.20526 -0.14182,0 -0.2603,0.05598 -0.3536,0.16794 -0.09424,0.11196 -0.14088,0.29576 -0.14088,0.5514 0,0.25843 0.05131,0.44876 0.15301,0.56912 0.10169,0.12129 0.22951,0.18193 0.38252,0.18193 0.14741,0 0.27243,-0.05784 0.3732,-0.17447 0.10169,-0.11662 0.15207,-0.28829 0.15207,-0.51407zm3.95214 1.89116l0 0.71374 -2.6926 0c0.02985,-0.26963 0.11662,-0.52527 0.2631,-0.76692 0.14554,-0.24164 0.43384,-0.56166 0.86301,-0.96097 0.34707,-0.32189 0.55886,-0.54114 0.63723,-0.6559 0.10543,-0.1586 0.15861,-0.31535 0.15861,-0.47022 0,-0.17074 -0.04572,-0.30229 -0.13808,-0.39466 -0.09237,-0.09236 -0.21925,-0.13808 -0.38159,-0.13808 -0.16048,0 -0.28736,0.04852 -0.38253,0.14462 -0.09423,0.09703 -0.14928,0.2575 -0.1642,0.48142l-0.76505 -0.07651c0.04571,-0.42264 0.18846,-0.72586 0.42917,-0.91059 0.24071,-0.1838 0.54113,-0.27617 0.9022,-0.27617 0.39559,0 0.70627,0.1073 0.93205,0.32002 0.22579,0.21365 0.33868,0.47862 0.33868,0.79584 0,0.18006 -0.03266,0.35173 -0.09703,0.515 -0.06438,0.16328 -0.16701,0.33401 -0.30695,0.51222 -0.0933,0.11849 -0.26124,0.28922 -0.50289,0.51127 -0.24257,0.22205 -0.39652,0.3704 -0.46089,0.44317 -0.06438,0.07278 -0.11756,0.14368 -0.15768,0.21272l1.52544 0zm0.49262 -0.34987l0.74265 -0.08956c0.02426,0.18939 0.0877,0.33401 0.1922,0.43384 0.10356,0.10076 0.22951,0.15114 0.37693,0.15114 0.1586,0 0.29202,-0.06064 0.40025,-0.181 0.10823,-0.12036 0.16234,-0.28176 0.16234,-0.48609 0,-0.19313 -0.05132,-0.34614 -0.15581,-0.45903 -0.10356,-0.11382 -0.23045,-0.1698 -0.37973,-0.1698 -0.09796,0 -0.21552,0.01866 -0.35267,0.05691l0.08491 -0.6251c0.20805,0.00466 0.36666,-0.04012 0.47582,-0.13528 0.10916,-0.0961 0.16421,-0.22299 0.16421,-0.3816 0,-0.13528 -0.04012,-0.24257 -0.12036,-0.32281 -0.08024,-0.08024 -0.18753,-0.12036 -0.32001,-0.12036 -0.13156,0 -0.24351,0.04572 -0.33588,0.13715 -0.0933,0.0905 -0.15021,0.22392 -0.1698,0.39839l-0.70814 -0.11942c0.04945,-0.24258 0.12315,-0.43664 0.22298,-0.58125 0.0989,-0.14462 0.23791,-0.25844 0.41518,-0.34148 0.1782,-0.08303 0.37693,-0.12502 0.59711,-0.12502 0.37786,0 0.68015,0.12036 0.9078,0.36107 0.18753,0.19686 0.28176,0.41891 0.28176,0.66708 0,0.35174 -0.19219,0.63257 -0.57658,0.84156 0.22951,0.04945 0.41238,0.15954 0.55046,0.33121 0.13715,0.17074 0.20619,0.37786 0.20619,0.62044 0,0.35173 -0.12875,0.65122 -0.38532,0.8994 -0.25657,0.24724 -0.57659,0.37133 -0.95912,0.37133 -0.36293,0 -0.66335,-0.1045 -0.90219,-0.31255 -0.23885,-0.20899 -0.37693,-0.48142 -0.41518,-0.81917z"/>
</symbol>
<symbol id="Fm0-17-0" viewBox="-22.3319 -55.1708 16.9113 8.15661">
 <polygon class="fil3" points="-5.42058,-47.0142 -5.42058,-55.1708 -22.3319,-55.1708 -22.3319,-47.0142 "/>
</symbol>
 <g id="Capa_x0020_1">
  <metadata id="CorelCorpID_0Corel-Layer"/>
  <path class="fil4" d="M1.44759 0.03588l-1.44759 0 0 -0.03588 1.44759 0 0 0.03588zm0 0.80419l-1.44759 0 0 -0.03588 1.44759 0 0 0.03588zm0 -0.40209l-1.44759 0 0 -0.03588 1.44759 0 0 0.03588z"/>
 </g>
</svg>
