<?xml version="1.0" encoding="UTF-8"?>
<!DOCTYPE svg PUBLIC "-//W3C//DTD SVG 1.1//EN" "http://www.w3.org/Graphics/SVG/1.1/DTD/svg11.dtd">
<!-- Creator: CorelDRAW -->
<svg xmlns="http://www.w3.org/2000/svg" xml:space="preserve" width="100%" height="100%" style="shape-rendering:geometricPrecision; text-rendering:geometricPrecision; image-rendering:optimizeQuality; fill-rule:evenodd; clip-rule:evenodd"
viewBox="0 0 0.8951 0.76673"
 xmlns:xlink="http://www.w3.org/1999/xlink">
 <defs>
 </defs>
 <g id="Capa_x0020_1">
  <metadata id="CorelCorpID_0Corel-Layer"/>
  <path class="fil0" d="M0.09983 0.27691l0.69547 0 -0.3478 -0.23791 -0.34767 0.23791zm0.77763 0.48982l-0.85982 0c-0.0097,0 -0.01764,-0.0079 -0.01764,-0.01764 0,-0.0097 0.00794,-0.01764 0.01764,-0.01764l0.85982 0c0.00974,0 0.01764,0.00794 0.01764,0.01764 0,0.00974 -0.0079,0.01764 -0.01764,0.01764zm-0.07055 -0.10142l-0.71872 0c-0.0097,0 -0.01764,-0.0079 -0.01764,-0.01764 0,-0.0097 0.00794,-0.01764 0.01764,-0.01764l0.03886 0 0 -0.31784 -0.08426 0c-0.00773,0 -0.01457,-0.00505 -0.01686,-0.01242 -0.00226,-0.00737 0.00053,-0.01542 0.00691,-0.01979l0.40471 -0.27693c0.00603,-0.00406 0.01393,-0.00406 0.01993,0l0.40478 0.27693c0.00642,0.00437 0.00921,0.01242 0.00691,0.01979 -0.00226,0.00737 -0.0091,0.01242 -0.01682,0.01242l-0.08437 0 0 0.31784 0.03893 0c0.00973,0 0.01764,0.00794 0.01764,0.01764 0,0.00974 -0.00791,0.01764 -0.01764,0.01764zm-0.64458 -0.03528l0.11617 0 0 -0.31784 -0.11617 0 0 0.31784zm0.15145 0l0.1161 0 0 -0.31784 -0.1161 0 0 0.31784zm0.15137 0l0.1161 0 0 -0.31784 -0.1161 0 0 0.31784zm0.15138 0l0.11617 0 0 -0.31784 -0.11617 0 0 0.31784z"/>
 </g>
</svg>
