<svg xmlns="http://www.w3.org/2000/svg" xml:space="preserve" width="100%" height="100%" style="shape-rendering:geometricPrecision; text-rendering:geometricPrecision; image-rendering:optimizeQuality; fill-rule:evenodd; clip-rule:evenodd"
viewBox="0 0 0.80261 0.80261"
 xmlns:xlink="http://www.w3.org/1999/xlink">
 <g id="Capa_x0020_1">
  <metadata id="CorelCorpID_0Corel-Layer"/>
  <path class="fil0" d="M0.27904 0.05633c-0.0932,0.03311 -0.16915,0.10299 -0.21028,0.1921l0.11103 0c0.01988,-0.08051 0.05497,-0.14792 0.09925,-0.1921zm-0.24281 0.31892l-0.00013 0.00186 -0.00023 0.00372 -0.0001 0.00186 -0.0001 0.00186 -8e-005 0.00186 -1e-005 8e-005 -6e-005 0.00178 -0.00012 0.00373 -4e-005 0.00187 -1e-005 2e-005 -1e-005 0.00079 -6e-005 0.00665 6e-005 0.00664 1e-005 0.00079 1e-005 2e-005 4e-005 0.00186 0.00012 0.00372 6e-005 0.0018 1e-005 6e-005 8e-005 0.00186 9e-005 0.00186 0.0001 0.00186 1e-005 0.00022c0.00191,0.03276 0.00827,0.06518 0.0191,0.09689l0.11724 0c-0.00682,-0.0372 -0.0105,-0.07668 -0.0105,-0.11758 0,-0.04091 0.00367,-0.08041 0.0105,-0.11762l-0.11717 0c-0.01026,0.02993 -0.01655,0.06057 -0.01881,0.09154zm0.03252 0.17894c0.04113,0.08913 0.11709,0.15902 0.21031,0.19213 -0.04428,-0.04419 -0.07938,-0.1116 -0.09927,-0.19213l-0.11104 0zm0.13907 -0.03528l0.17583 0 0 -0.2352 -0.17583 0c-0.00701,0.03692 -0.01083,0.07649 -0.01083,0.11762 0,0.04112 0.00381,0.08066 0.01083,0.11758zm0.2111 0l0.17577 0c0.00701,-0.03691 0.01082,-0.07646 0.01082,-0.11758 0,-0.04113 -0.00381,-0.0807 -0.01082,-0.11762l-0.17577 0 0 0.2352zm0.21136 0l0.11726 0c0.01046,-0.03062 0.01681,-0.0619 0.01897,-0.09343l0.00012 -0.00186 0.00011 -0.00185 4e-005 -0.00056 6e-005 -0.0013 9e-005 -0.00185 1e-005 -2e-005 3e-005 -0.00078 0.00018 -0.00478 0 -0.00014 6e-005 -0.00171 2e-005 -0.00081 0 -0.00013 1e-005 -0.00013 0 -0.00014 0 -0.00013 1e-005 -0.00013 0 -0.00013 0 -0.00014 0 -0.00012 0 -1e-005 1e-005 -0.00013 0 -0.00013 0 -0.00014 1e-005 -0.00013 0 -0.00013 0 -0.00013 0 -0.00014 1e-005 -0.00013 0 -0.00013 0 -0.00013 0 -0.00014 0 -0.00013 1e-005 -0.00013 0 -0.00013 0 -0.00014 0 -0.00013 0 -0.00013 1e-005 -0.00013 0 -0.00014 0 -0.00013 0 -0.00013 0 -0.00014 0 -0.00013 1e-005 -0.00013 0 -0.00013 0 -0.00014 0 -0.00013 0 -0.00013 0 -0.00014 0 -0.00013 1e-005 -0.00013 0 -0.00013 0 -0.00014 0 -0.00013 0 -0.00013 0 -0.00013 0 -0.00014 0 -0.00013 0 -0.00013 0 -0.00014 0 -0.00013 1e-005 -0.00013 0 -0.00013 0 -0.00014 0 -0.00013 0 -0.00013 0 -0.00014 0 -0.00013 0 -0.00013 0 -0.00013 0 -0.00014 0 -0.00013 0 -0.00013 0 -0.00013 0 -0.00014 0 -0.00013 0 -5e-005 0 -0.00018 0 -0.00013 0 -0.00013 0 -0.00013 0 -0.00012 0 -0.00013 0 -0.00013 0 -0.00013 0 -0.00013 0 -0.00013 0 -0.00012 0 -0.00013 0 -0.00013 0 -9e-005 0 -4e-005 -1e-005 -0.00013 0 -0.00013 0 -0.00012 0 -0.00013 0 -0.00013 0 -0.00013 0 -0.00013 0 -0.00013 0 -0.00012 0 -0.00013 -1e-005 -0.00013 0 -0.00013 0 -0.00013 0 -0.00013 0 -2e-005 0 -0.0001 0 -0.00013 0 -0.00013 -1e-005 -0.00013 0 -0.00013 0 -0.00013 0 -0.00012 0 -0.00013 0 -0.00013 -1e-005 -0.00013 0 -0.00013 0 -0.00012 0 -0.00013 0 -0.00013 0 -9e-005 -1e-005 -4e-005 0 -0.00013 0 -0.00012 0 -0.00013 0 -0.00013 -1e-005 -0.00013 0 -0.00013 0 -0.00012 0 -0.00013 -1e-005 -0.00013 0 -0.00013 0 -0.00013 0 -0.00012 -1e-005 -0.00013 0 -0.00013 0 -3e-005 0 -0.0001 0 -0.00012 -1e-005 -0.00013 0 -0.00013 0 -0.00013 0 -0.00012 -1e-005 -0.00013 0 -0.00013 -2e-005 -0.00087 -6e-005 -0.00186 -2e-005 -0.00038 -0.00016 -0.00436 -2e-005 -0.00055 -2e-005 -0.00028 -9e-005 -0.00186 -9e-005 -0.00177 -1e-005 -8e-005 -0.00011 -0.00186 -0.00012 -0.00186c-0.00209,-0.03162 -0.00829,-0.06277 -0.01901,-0.09346l-0.11722 0c0.00682,0.03721 0.0105,0.07671 0.0105,0.11762 0,0.04089 -0.00368,0.08038 -0.0105,0.11758zm0.10357 0.03528l-0.11115 0c-0.01989,0.08054 -0.05498,0.14797 -0.09926,0.19216 0.06396,-0.02271 0.11979,-0.06272 0.16184,-0.11437l0.00108 -0.00134 0.00393 -0.00496 2e-005 -3e-005c0.00141,-0.00181 0.00282,-0.00363 0.00419,-0.00547l0.00012 -0.00016 0.004 -0.00545 0.004 -0.00568 0 -1e-005 0.00321 -0.00474 0.00098 -0.00146 0.00271 -0.00416 0.00178 -0.00281 0.00229 -0.00367 0.00197 -0.00327 0.0019 -0.00318 9e-005 -0.00015 0.00346 -0.00605 0.0001 -0.00019 0.00152 -0.00276 0.00228 -0.00422 0.00167 -0.0032 0.00183 -0.00358 0.00177 -0.00356 0.00182 -0.00379 0.00152 -0.00319 0.00019 -0.0004 0.00014 -0.00031zm-0.14702 0l-0.16791 0 0 0.21176c0.07461,-0.0115 0.13789,-0.09516 0.16791,-0.21176zm-0.20318 0l-0.16797 0c0.03004,0.11661 0.09335,0.20028 0.16797,0.21176l0 -0.21176zm-0.38353 -0.14297c-9e-005,-0.0033 -0.00012,-0.00659 -0.00012,-0.00989 0,-0.00332 4e-005,-0.00664 0.00013,-0.00995l0 -0.00037 3e-005 -0.00093c7e-005,-0.00262 0.00018,-0.00524 0.0003,-0.00785l0.00017 -0.00315 1e-005 -0.00024 0.00014 -0.00224 0.00015 -0.00224c0.0139,-0.20826 0.18736,-0.37353 0.3989,-0.3743l0.00145 -6e-005c0.16943,0 0.31467,0.10555 0.37344,0.25431l0 2e-005c0.0012,0.00304 0.00236,0.0061 0.00349,0.00917 0.00112,0.00306 0.00222,0.00613 0.00327,0.00923l0 3e-005c0.00105,0.0031 0.00207,0.00621 0.00305,0.00934l0 3e-005c0.00098,0.00313 0.00192,0.00627 0.00282,0.00944l0 3e-005c0.0009,0.00316 0.00176,0.00634 0.00259,0.00953l0 3e-005c0.00082,0.00319 0.00163,0.0064 0.00237,0.00962l0 3e-005c0.00074,0.00322 0.00145,0.00646 0.00212,0.00971l0 4e-005c0.00066,0.00325 0.0013,0.00651 0.00189,0.00979l0 4e-005c0.00058,0.00328 0.00114,0.00657 0.00165,0.00987l0 4e-005c0.0005,0.00331 0.00098,0.00662 0.0014,0.00995l0 4e-005c0.00042,0.00333 0.0008,0.00667 0.00115,0.01003l0 4e-005c0.00034,0.00335 0.00065,0.00672 0.00091,0.0101l0 4e-005c0.00026,0.00338 0.00047,0.00677 0.00065,0.01017l0 4e-005 5e-005 0.00112 1e-005 0.00016 2e-005 0.00047 1e-005 0.00016 1e-005 0.00016 1e-005 0.00032 1e-005 0.00016 0 0.00013 1e-005 3e-005 0 0.00016 1e-005 0.00016 1e-005 0.00016 0 0.00016 1e-005 0.00016 1e-005 0.00032 1e-005 0.00016 1e-005 0.00032 1e-005 0.00016 1e-005 0.00032 0 0.00013 1e-005 3e-005 1e-005 0.00032 1e-005 0.00016 0 0.00016 1e-005 0.00016 0 0.00016 1e-005 0.00016 1e-005 0.00016 0 0.00016 1e-005 0.00016 0 0.00016 1e-005 0.00016 0 0.00016 1e-005 0.00013 0 3e-005 0 0.00016 1e-005 0.00016 1e-005 0.00016 0 0.00016 1e-005 0.00016 0 0.00016 1e-005 0.00016 0 0.00016 0 0.00016 1e-005 0.00016 0 0.00016 1e-005 0.00016 0 0.00016 1e-005 0.00014 0 2e-005 0 0.00016 1e-005 0.00016 0 0.00016 1e-005 0.00016 0 0.00016 0 5e-005 0 0.00016 1e-005 0.00016 0 0.00016 1e-005 0.00016 0 0.00016 0 0.00016 1e-005 0.00016 0 0.00016 1e-005 9e-005 0 7e-005 0 0.00016 0 0.00016 1e-005 0.00016 0 0.00016 0 0.00016 1e-005 0.00016 0 0.00016 0 0.00016 0 0.00016 1e-005 0.00016 0 0.00016 0 0.00017 1e-005 0.00016 0 8e-005 0 8e-005 0 0.00016 0 0.00016 1e-005 0.00016 0 0.00016 0 0.00016 0 0.00016 0 0.00016 1e-005 0.00016 0 0.00016 0 0.00016 0 0.00017 0 0.00016 1e-005 0.00016 0 7e-005 0 9e-005 0 0.00016 0 0.00016 0 0.00016 0 0.00016 1e-005 0.00016 0 0.00016 0 0.00017 0 0.00016 0 0.00016 0 0.00016 0 0.00016 0 0.00016 0 0.00016 1e-005 0.00033 0 0.00016 0 0.00016 0 0.00016 0 0.00016 0 0.00016 0 0.00016 0 0.00016 0 0.00017 0 0.00016 0 0.00016 0 0.00016 0 0.00016 1e-005 5e-005 -1e-005 0 0 0.00016 0 0.00016 0 0.00016 0 0.00016 0 0.00017 0 0.00016 0 0.00016 0 0.00016 0 0.00016 0 0.00016 0 0.00016 0 0.00016 -1e-005 0.00033 0 0.00016 0 0.00016 0 0.00016 0 0.00016 0 0.00016 0 0.00016 0 0.00016 0 0.00016 -1e-005 0.00016 0 0.00017 0 0.00016 0 0.00016 0 0.00016 0 0.00014 0 2e-005 -1e-005 0.00016 0 0.00016 0 0.00016 0 0.00016 0 0.00016 -1e-005 0.00016 0 0.00016 0 0.00017 0 0.00016 0 0.00016 -1e-005 0.00016 0 0.00016 0 0.00016 0 0.00013 0 3e-005 -1e-005 0.00016 0 0.00016 0 0.00016 -1e-005 0.00016 0 0.00016 0 0.00016 0 0.00016 -1e-005 0.00016 0 0.00016 0 0.00017 -1e-005 0.00016 0 0.00016 0 0.00016 0 0.00012 -1e-005 4e-005 0 0.00016 -1e-005 0.00032 0 0.00016 -1e-005 0.00016 0 0.00016 -1e-005 0.00016 0 0.00016 0 5e-005 0 0.00016 -1e-005 0.00016 0 0.00016 -1e-005 0.00016 0 0.00016 0 7e-005 -1e-005 9e-005 0 0.00016 -1e-005 0.00016 0 0.00016 -1e-005 0.00016 0 0.00016 0 0.00016 -1e-005 0.00016 0 0.00016 -1e-005 0.00016 0 0.00016 -1e-005 0.00016 -1e-005 0.00016 0 0.00016 0 8e-005 -1e-005 8e-005 0 0.00016 -1e-005 0.00016 0 0.00016 -1e-005 0.00016 0 0.00016 -1e-005 0.00016 -1e-005 0.00016 0 0.00016 -1e-005 0.00016 0 0.00016 -1e-005 0.00016 -1e-005 0.00032 -1e-005 8e-005 0 8e-005 0 0.00016 -1e-005 0.00016 -1e-005 0.00016 0 0.00016 -1e-005 0.00016 -1e-005 0.00016 0 0.00016 -1e-005 0.00016 -1e-005 0.00016 0 0.00016 -1e-005 0.00015 -1e-005 0.00016 0 0.00016 -1e-005 9e-005 0 7e-005 -1e-005 0.00016 0 0.00016 -1e-005 0.00016 -1e-005 0.00016 -1e-005 0.00016 -1e-005 0.00032 -1e-005 0.00016 -1e-005 0.00016 -1e-005 0.00032 -1e-005 0.00016 -1e-005 0.00016 -2e-005 0.00048 0 4e-005c-0.00017,0.0034 -0.00039,0.00679 -0.00065,0.01017l0 4e-005c-0.00026,0.00338 -0.00057,0.00675 -0.00091,0.01011l0 3e-005c-0.00034,0.00335 -0.00073,0.0067 -0.00115,0.01003l0 4e-005c-0.00042,0.00333 -0.00089,0.00665 -0.0014,0.00996l0 3e-005c-0.00051,0.00331 -0.00106,0.0066 -0.00165,0.00988l0 3e-005c-0.00059,0.00328 -0.00123,0.00655 -0.00189,0.0098l0 3e-005c-0.00067,0.00325 -0.00137,0.00649 -0.00212,0.00971l0 3e-005c-0.00075,0.00323 -0.00154,0.00644 -0.00237,0.00963l0 2e-005c-0.00082,0.0032 -0.00169,0.00638 -0.00259,0.00954l0 2e-005c-0.0009,0.00317 -0.00184,0.00631 -0.00282,0.00945l0 2e-005c-0.00098,0.00313 -0.002,0.00625 -0.00305,0.00935l0 2e-005c-0.00105,0.0031 -0.00214,0.00618 -0.00327,0.00925l0 1e-005c-0.00113,0.00307 -0.00229,0.00612 -0.00349,0.00915l0 1e-005c-0.0012,0.00303 -0.00244,0.00604 -0.00371,0.00904l0 2e-005c-0.00127,0.003 -0.00257,0.00597 -0.00391,0.00893l0 1e-005c-0.00134,0.00296 -0.00272,0.00589 -0.00413,0.00881l0 2e-005c-0.00141,0.00292 -0.00286,0.00582 -0.00434,0.00869l0 2e-005c-0.00148,0.00288 -0.003,0.00574 -0.00454,0.00857l0 2e-005c-0.00154,0.00284 -0.00312,0.00565 -0.00473,0.00845l0 1e-005c-0.00161,0.0028 -0.00327,0.00557 -0.00494,0.00833l0 1e-005c-0.00168,0.00275 -0.00339,0.00549 -0.00513,0.0082l0 1e-005c-0.00174,0.00271 -0.00351,0.00539 -0.00532,0.00806l0 1e-005c-0.0018,0.00267 -0.00365,0.00531 -0.00551,0.00793l0 1e-005c-0.00187,0.00262 -0.00376,0.00522 -0.00569,0.00779l0 1e-005c-0.00386,0.00515 -0.00783,0.0102 -0.01192,0.01515l0 1e-005c-0.00205,0.00248 -0.00413,0.00493 -0.00623,0.00735l0 1e-005c-0.0021,0.00243 -0.00424,0.00483 -0.0064,0.0072l0 1e-005c-0.00216,0.00237 -0.00435,0.00472 -0.00656,0.00704l0 1e-005c-0.00665,0.00697 -0.01355,0.0137 -0.02068,0.02018l0 1e-005c-0.07129,0.0648 -0.16596,0.10439 -0.2697,0.10439 -0.21217,0 -0.38638,-0.16558 -0.40035,-0.37424l-1e-005 -0.00013 -0.00015 -0.00224 -0.00013 -0.00224 -0.00019 -0.00367 -0.00029 -0.00754 -3e-005 -0.00088 -1e-005 -0.00045zm0.21557 -0.16279l0.16796 0 0 -0.21173c-0.07462,0.01148 -0.13791,0.09514 -0.16796,0.21173zm0.20323 0l0.1679 0c-0.03003,-0.11659 -0.0933,-0.20024 -0.1679,-0.21173l0 0.21173zm0.20379 0l0.11113 0 -0.00013 -0.00028 -0.00202 -0.00427 -0.00146 -0.00302 -0.00198 -0.00397 -0.00142 -0.00278 -0.00207 -0.00396 -0.00167 -0.00309 -0.00208 -0.0038 -0.00345 -0.00605 -0.00038 -0.00065 -0.00074 -0.00123 -0.00328 -0.00543 -0.00119 -0.00191 -0.00284 -0.00447 -0.00193 -0.00297 -0.00193 -0.00289 -0.00262 -0.00385 -3e-005 -5e-005 -0.004 -0.00568 -0.00014 -0.0002 -0.00396 -0.00539 -0.00034 -0.00044 -0.00282 -0.0037 -0.00167 -0.00215 -0.00307 -0.00387 -0.00175 -0.00215 -0.00298 -0.00361 -0.00153 -0.0018c-0.00212,-0.0025 -0.00428,-0.00498 -0.00647,-0.00742l-0.00163 -0.00183 -0.00322 -0.00348 -0.00174 -0.00186 -0.0034 -0.00355 -0.00191 -0.00195 -0.00374 -0.00375 -0.0008 -0.00078 -0.00431 -0.00417 -0.00507 -0.00472 -0.00389 -0.0035 -0.00176 -0.00156 -0.00402 -0.00347 -0.00125 -0.00106 -0.00468 -0.00389 -0.00044 -0.00036c-0.00499,-0.00406 -0.01008,-0.00799 -0.01528,-0.01178l-0.0011 -0.00081 -0.00452 -0.00321 -0.00141 -0.00099 -0.00495 -0.00338 -0.00087 -0.00058c-0.00703,-0.00469 -0.01422,-0.00913 -0.02157,-0.01333l-0.0023 -0.00131 -0.00474 -0.00262 -0.00131 -0.0007 -0.00525 -0.00278 -0.00102 -0.00052c-0.00587,-0.00301 -0.01184,-0.00587 -0.0179,-0.00857l-0.00029 -0.00013 -0.00579 -0.00251 -0.00121 -0.00051 -0.00543 -0.00223 -0.00167 -0.00066c-0.00395,-0.00157 -0.00793,-0.00307 -0.01196,-0.00449 0.04428,0.04418 0.07936,0.1116 0.09925,0.19212zm0.15201 0.0059c0.0012,0.00303 0.00236,0.0061 0.00349,0.00917"/>
 </g>
</svg>
