<?xml version="1.0" encoding="UTF-8"?>
<!DOCTYPE svg PUBLIC "-//W3C//DTD SVG 1.1//EN" "http://www.w3.org/Graphics/SVG/1.1/DTD/svg11.dtd">
<!-- Creator: CorelDRAW -->
<svg xmlns="http://www.w3.org/2000/svg" xml:space="preserve" width="100%" height="100%" style="shape-rendering:geometricPrecision; text-rendering:geometricPrecision; image-rendering:optimizeQuality; fill-rule:evenodd; clip-rule:evenodd"
viewBox="0 0 0.62251 0.80843"
 xmlns:xlink="http://www.w3.org/1999/xlink">
 <defs>
 </defs>
 <g id="Capa_x0020_1">
  <metadata id="CorelCorpID_0Corel-Layer"/>
  <path class="fil0" d="M0.05292 0.20878c-0.00974,0 -0.01764,0.00794 -0.01764,0.01764l0 0.52909c0,0.00967 0.0079,0.01764 0.01764,0.01764l0.51667 0c0.00971,0 0.01764,-0.00797 0.01764,-0.01764l0 -0.52909c0,-0.0097 -0.00793,-0.01764 -0.01764,-0.01764l-0.11291 0 0 0.06463c0,0.0097 -0.0079,0.01764 -0.01764,0.01764 -0.0097,0 -0.01764,-0.00794 -0.01764,-0.01764l0 -0.06463 -0.22045 0 0 0.06463c0,0.0097 -0.0079,0.01764 -0.01764,0.01764 -0.0097,0 -0.01764,-0.00794 -0.01764,-0.01764l0 -0.06463 -0.11275 0zm0.36848 -0.03528l0 -0.12058c0,-0.0097 -0.0079,-0.01764 -0.01764,-0.01764l-0.18517 0c-0.0097,0 -0.01764,0.00794 -0.01764,0.01764l0 0.12058 0.22045 0zm-0.25573 0l0 -0.12058c0,-0.02917 0.02378,-0.05292 0.05292,-0.05292l0.18517 0c0.02918,0 0.05292,0.02375 0.05292,0.05292l0 0.12058 0.11291 0c0.02918,0 0.05292,0.02374 0.05292,0.05292l0 0.52909c0,0.02914 -0.02374,0.05292 -0.05292,0.05292l-0.51667 0c-0.02918,0 -0.05292,-0.02378 -0.05292,-0.05292l0 -0.52909c0,-0.02918 0.02374,-0.05292 0.05292,-0.05292l0.11275 0z"/>
 </g>
</svg>
