<?xml version="1.0" encoding="UTF-8"?>
<!DOCTYPE svg PUBLIC "-//W3C//DTD SVG 1.1//EN" "http://www.w3.org/Graphics/SVG/1.1/DTD/svg11.dtd">
<!-- Creator: CorelDRAW -->
<svg xmlns="http://www.w3.org/2000/svg" xml:space="preserve" width="100%" height="100%" style="shape-rendering:geometricPrecision; text-rendering:geometricPrecision; image-rendering:optimizeQuality; fill-rule:evenodd; clip-rule:evenodd"
viewBox="0 0 0.78324 0.69412"
 xmlns:xlink="http://www.w3.org/1999/xlink">
 <defs>
 </defs>
 <g id="Capa_x0020_1">
  <metadata id="CorelCorpID_0Corel-Layer"/>
  <path class="fil0" d="M0.25786 0.03528c-0.05532,0 -0.10033,0.05309 -0.10033,0.11832 0,0.06523 0.04501,0.11832 0.10033,0.11832 0.05528,0 0.10026,-0.05309 0.10026,-0.11832 0,-0.06523 -0.04498,-0.11832 -0.10026,-0.11832zm0.35973 0.09715c-0.04099,0 -0.07433,0.03965 -0.07433,0.08837 0,0.04872 0.03334,0.08834 0.07433,0.08834 0.04096,0 0.0743,-0.03962 0.0743,-0.08834 0,-0.04872 -0.03334,-0.08837 -0.0743,-0.08837zm0 0.21198c-0.06047,0 -0.10961,-0.05545 -0.10961,-0.12361 0,-0.06823 0.04914,-0.12365 0.10961,-0.12365 0.0604,0 0.10957,0.05542 0.10957,0.12365 0,0.06816 -0.04917,0.12361 -0.10957,0.12361zm0.13918 0.34971l-0.18087 0c-0.00973,0 -0.01764,-0.00794 -0.01764,-0.01764 0,-0.00974 0.00791,-0.01764 0.01764,-0.01764l0.1644 0 0.00755 -0.1101c0.00169,-0.02445 -0.01979,-0.06142 -0.05003,-0.07261 -0.04145,-0.01481 -0.08505,-0.02271 -0.12947,-0.02353 -0.00973,-0.00017 -0.01749,-0.00814 -0.01732,-0.01792 0.00018,-0.00973 0.00787,-0.01689 0.01796,-0.01735 0.04826,0.00088 0.09564,0.00949 0.14086,0.02568 0.04272,0.0157 0.07617,0.06519 0.0732,0.10813l-0.00867 0.12654c-0.00067,0.00927 -0.00833,0.01644 -0.01761,0.01644zm-0.71251 -0.03528l0.42125 0 0.00886 -0.13011c0.00211,-0.02984 -0.02293,-0.0733 -0.05966,-0.08678 -0.10262,-0.03676 -0.21682,-0.03679 -0.31972,0 -0.03648,0.01348 -0.0616,0.05701 -0.05958,0.08678l0.00885 0.13011zm0.43773 0.03528l-0.4542 0c-0.00925,0 -0.01694,-0.0072 -0.01761,-0.01648l-0.00998 -0.14651c-0.00325,-0.0485 0.03464,-0.10453 0.08272,-0.12234 0.11092,-0.03965 0.23323,-0.03965 0.34382,-4e-005 0.0484,0.01785 0.08626,0.07388 0.08287,0.12245l-0.01002 0.14644c-0.00063,0.00928 -0.00833,0.01648 -0.0176,0.01648zm-0.22413 -0.38692c-0.07476,0 -0.13561,-0.0689 -0.13561,-0.1536 0,-0.0847 0.06085,-0.1536 0.13561,-0.1536 0.07471,0 0.13553,0.0689 0.13553,0.1536 0,0.0847 -0.06082,0.1536 -0.13553,0.1536z"/>
 </g>
</svg>
