<svg width="11" height="11" viewBox="0 0 11 11" fill="none" xmlns="http://www.w3.org/2000/svg">
<path d="M10.9062 9.59375C11 9.6875 11 9.84375 10.9062 9.9375C10.8125 10.0312 10.6562 10.0312 10.5625 9.9375L6 5.375L1.40625 9.9375C1.3125 10.0312 1.15625 10.0312 1.0625 9.9375C0.96875 9.84375 0.96875 9.6875 1.0625 9.59375L5.625 5L1.0625 0.4375C0.96875 0.34375 0.96875 0.1875 1.0625 0.09375C1.15625 0 1.3125 0 1.40625 0.09375L6 4.65625L10.5625 0.09375C10.6562 0 10.8125 0 10.9062 0.09375C11 0.1875 11 0.34375 10.9062 0.4375L6.34375 5L10.9062 9.59375Z" fill="#BF1522"/>
</svg>
